<?xml version="1.0" encoding="UTF-8" standalone="no"?>
<!-- Generator: Adobe Illustrator 18.0.0, SVG Export Plug-In . SVG Version: 6.00 Build 0)  -->

<svg
   xmlns:dc="http://purl.org/dc/elements/1.1/"
   xmlns:cc="http://creativecommons.org/ns#"
   xmlns:rdf="http://www.w3.org/1999/02/22-rdf-syntax-ns#"
   xmlns:svg="http://www.w3.org/2000/svg"
   xmlns="http://www.w3.org/2000/svg"
   xmlns:sodipodi="http://sodipodi.sourceforge.net/DTD/sodipodi-0.dtd"
   xmlns:inkscape="http://www.inkscape.org/namespaces/inkscape"
   version="1.1"
   id="Capa_1"
   x="0px"
   y="0px"
   viewBox="0 0 350.175 350.175"
   style="enable-background:new 0 0 350.175 350.175;"
   xml:space="preserve"
   inkscape:version="0.91 r13725"
   sodipodi:docname="acicular.svg"><metadata
     id="metadata41"><rdf:RDF><cc:Work
         rdf:about=""><dc:format>image/svg+xml</dc:format><dc:type
           rdf:resource="http://purl.org/dc/dcmitype/StillImage" /></cc:Work></rdf:RDF></metadata><defs
     id="defs39" /><sodipodi:namedview
     pagecolor="#ffffff"
     bordercolor="#666666"
     borderopacity="1"
     objecttolerance="10"
     gridtolerance="10"
     guidetolerance="10"
     inkscape:pageopacity="0"
     inkscape:pageshadow="2"
     inkscape:window-width="1920"
     inkscape:window-height="1018"
     id="namedview37"
     showgrid="false"
     inkscape:zoom="0.67394876"
     inkscape:cx="175.08749"
     inkscape:cy="175.08749"
     inkscape:window-x="-8"
     inkscape:window-y="-8"
     inkscape:window-maximized="1"
     inkscape:current-layer="Capa_1" /><g
     id="g3"
     transform="matrix(-1,0,0,-1,350.175,350.17447)"
     style="fill:#000000;fill-opacity:1"><path
       d="M 317.153,169.169 C 214.862,142.268 106.747,142.298 4.47,169.265 1.836,169.96 0,172.342 0,175.067 c 0,2.725 1.836,5.107 4.47,5.802 51.201,13.5 103.866,20.25 156.53,20.25 52.25,0 104.498,-6.653 155.319,-19.941 6.684,1.084 21.856,5.34 21.856,13.98 0,3.313 2.687,6 6,6 3.313,0 6,-2.687 6,-6 0,-17.07 -20.56,-24.33 -33.022,-25.989 z m -285.62,5.898 c 85.173,-18.737 173.761,-18.737 258.934,0 -85.173,18.737 -173.761,18.737 -258.934,0 z"
       id="path5"
       inkscape:connector-curvature="0"
       style="fill:#000000;fill-opacity:1" /></g><g
     id="g7" /><g
     id="g9" /><g
     id="g11" /><g
     id="g13" /><g
     id="g15" /><g
     id="g17" /><g
     id="g19" /><g
     id="g21" /><g
     id="g23" /><g
     id="g25" /><g
     id="g27" /><g
     id="g29" /><g
     id="g31" /><g
     id="g33" /><g
     id="g35" /><path
     style="opacity:1;fill:#89a02c;fill-opacity:1;stroke:#373e48;stroke-width:0.76712066;stroke-miterlimit:4;stroke-dasharray:none;stroke-opacity:1"
     d="m 149.41789,187.11914 c -26.88535,-1.79654 -77.249224,-8.93104 -82.09947,-11.63012 -2.257928,-1.2565 24.9304,-6.24782 54.64931,-10.03269 28.3519,-3.61078 106.6732,-3.61078 135.0251,0 29.44161,3.74956 56.91063,8.77836 54.6493,10.00474 -1.08606,0.58901 -10.321,2.4567 -20.52208,4.15043 -50.40178,8.36838 -94.1413,10.68578 -141.70216,7.50764 z"
     id="path4179"
     inkscape:connector-curvature="0" /></svg>