<?xml version="1.0" encoding="UTF-8" standalone="no"?>
<!-- Generator: Adobe Illustrator 18.0.0, SVG Export Plug-In . SVG Version: 6.00 Build 0)  -->

<svg
   xmlns:dc="http://purl.org/dc/elements/1.1/"
   xmlns:cc="http://creativecommons.org/ns#"
   xmlns:rdf="http://www.w3.org/1999/02/22-rdf-syntax-ns#"
   xmlns:svg="http://www.w3.org/2000/svg"
   xmlns="http://www.w3.org/2000/svg"
   xmlns:sodipodi="http://sodipodi.sourceforge.net/DTD/sodipodi-0.dtd"
   xmlns:inkscape="http://www.inkscape.org/namespaces/inkscape"
   version="1.1"
   id="Capa_1"
   x="0px"
   y="0px"
   viewBox="0 0 339 339"
   style="enable-background:new 0 0 339 339;"
   xml:space="preserve"
   inkscape:version="0.91 r13725"
   sodipodi:docname="american-mountain-ash.svg"><metadata
     id="metadata41"><rdf:RDF><cc:Work
         rdf:about=""><dc:format>image/svg+xml</dc:format><dc:type
           rdf:resource="http://purl.org/dc/dcmitype/StillImage" /></cc:Work></rdf:RDF></metadata><defs
     id="defs39" /><sodipodi:namedview
     pagecolor="#ffffff"
     bordercolor="#666666"
     borderopacity="1"
     objecttolerance="10"
     gridtolerance="10"
     guidetolerance="10"
     inkscape:pageopacity="0"
     inkscape:pageshadow="2"
     inkscape:window-width="690"
     inkscape:window-height="480"
     id="namedview37"
     showgrid="false"
     inkscape:zoom="0.69616519"
     inkscape:cx="169.5"
     inkscape:cy="169.5"
     inkscape:window-x="0"
     inkscape:window-y="0"
     inkscape:window-maximized="0"
     inkscape:current-layer="Capa_1" /><g
     id="g3"
     transform="matrix(0,1,-1,0,339.007,-0.007)"><path
       d="m 176.093,231.63 c 17.412,0 34.321,-6.494 47.27,-18.34 14.729,-13.477 23.013,-32.672 22.729,-52.665 -0.043,-3.042 -2.356,-5.57 -5.382,-5.883 -19.89,-2.058 -39.744,4.493 -54.473,17.969 -4.1,3.751 -7.68,7.959 -10.735,12.49 l 0,-37.35 c 0.198,0.002 0.396,0.015 0.594,0.015 17.41,0 34.321,-6.495 47.269,-18.34 14.729,-13.476 23.013,-32.671 22.729,-52.665 -0.043,-3.042 -2.356,-5.57 -5.382,-5.883 -19.89,-2.055 -39.744,4.493 -54.473,17.969 -4.1,3.751 -7.68,7.958 -10.735,12.49 l 0,-10.745 c 14.575,-9.791 23.493,-26.344 23.493,-44.008 0,-18.843 -10.149,-36.423 -26.488,-45.877 -1.859,-1.076 -4.151,-1.076 -6.011,0 -16.338,9.455 -26.488,27.034 -26.488,45.877 0,17.664 8.918,34.217 23.493,44.008 l 0,10.744 c -3.055,-4.531 -6.635,-8.738 -10.735,-12.49 -14.729,-13.476 -34.58,-20.025 -54.473,-17.969 -3.026,0.313 -5.339,2.841 -5.382,5.883 -0.284,19.993 8,39.188 22.729,52.665 12.949,11.847 29.857,18.34 47.269,18.34 0.198,0 0.396,-0.014 0.594,-0.015 l 0,37.35 c -3.055,-4.531 -6.635,-8.739 -10.735,-12.49 -14.729,-13.476 -34.58,-20.025 -54.473,-17.969 -3.026,0.313 -5.339,2.841 -5.382,5.883 -0.284,19.993 8,39.188 22.729,52.665 12.949,11.847 29.856,18.34 47.27,18.34 0.197,0 0.396,-0.014 0.593,-0.015 l 0,37.35 c -3.055,-4.531 -6.635,-8.738 -10.735,-12.49 -14.729,-13.476 -34.58,-20.025 -54.473,-17.969 -3.026,0.313 -5.339,2.841 -5.382,5.883 -0.284,19.993 8,39.188 22.729,52.665 12.949,11.847 29.856,18.34 47.27,18.34 0.197,0 0.396,-0.014 0.593,-0.015 l 0,17.622 c 0,3.313 2.686,6 6,6 3.314,0 6,-2.687 6,-6 l 0,-17.622 c 0.197,0.002 0.396,0.015 0.593,0.015 17.412,0 34.321,-6.494 47.27,-18.34 14.729,-13.476 23.013,-32.671 22.729,-52.665 -0.043,-3.042 -2.356,-5.57 -5.382,-5.883 -19.89,-2.057 -39.744,4.493 -54.473,17.969 -4.1,3.751 -7.68,7.958 -10.735,12.49 l 0,-37.35 c 0.186,0.002 0.385,0.016 0.582,0.016 z m 18.243,-50.066 c 10.826,-9.905 24.953,-15.277 39.567,-15.192 -1.192,14.522 -7.815,28.159 -18.642,38.064 -10.727,9.814 -24.737,15.194 -39.167,15.194 -0.133,0 -0.267,0 -0.4,-0.001 1.192,-14.523 7.816,-28.159 18.642,-38.065 z m 0,-83.764 c 10.826,-9.905 24.953,-15.301 39.567,-15.192 -1.192,14.522 -7.815,28.159 -18.642,38.064 -10.828,9.906 -25.035,15.311 -39.567,15.192 1.192,-14.521 7.816,-28.158 18.642,-38.064 z m -70.598,22.872 c -10.826,-9.905 -17.45,-23.542 -18.642,-38.064 14.618,-0.117 28.742,5.288 39.567,15.192 10.826,9.905 17.45,23.542 18.642,38.064 -14.564,0.108 -28.741,-5.287 -39.567,-15.192 z m 39.167,98.958 c -14.429,0 -28.44,-5.38 -39.167,-15.194 -10.826,-9.906 -17.45,-23.542 -18.642,-38.064 14.618,-0.098 28.742,5.288 39.567,15.192 10.826,9.906 17.45,23.542 18.642,38.064 -0.133,0.001 -0.267,0.002 -0.4,0.002 z m 0,83.764 c -14.429,0 -28.44,-5.38 -39.167,-15.194 -10.826,-9.905 -17.45,-23.542 -18.642,-38.064 0.133,-0.001 0.268,-0.001 0.401,-0.001 14.428,0 28.44,5.38 39.167,15.194 10.826,9.905 17.45,23.542 18.642,38.064 -0.134,0 -0.268,0.001 -0.401,0.001 z m 31.431,-38.066 c 10.826,-9.905 25.027,-15.286 39.567,-15.192 -1.192,14.522 -7.815,28.159 -18.642,38.064 -10.727,9.814 -24.737,15.194 -39.167,15.194 -0.133,0 -0.267,0 -0.4,-0.001 1.192,-14.523 7.816,-28.16 18.642,-38.065 z M 152.007,46.685 c 0,-13.383 6.622,-25.943 17.493,-33.572 10.872,7.629 17.493,20.189 17.493,33.572 0,13.383 -6.622,25.943 -17.493,33.572 -10.872,-7.63 -17.493,-20.19 -17.493,-33.572 z"
       id="path5"
       inkscape:connector-curvature="0" /></g><g
     id="g7" /><g
     id="g9" /><g
     id="g11" /><g
     id="g13" /><g
     id="g15" /><g
     id="g17" /><g
     id="g19" /><g
     id="g21" /><g
     id="g23" /><g
     id="g25" /><g
     id="g27" /><g
     id="g29" /><g
     id="g31" /><g
     id="g33" /><g
     id="g35" /></svg>