<?xml version="1.0" encoding="UTF-8" standalone="no"?>
<!-- Generator: Adobe Illustrator 18.0.0, SVG Export Plug-In . SVG Version: 6.00 Build 0)  -->

<svg
   xmlns:dc="http://purl.org/dc/elements/1.1/"
   xmlns:cc="http://creativecommons.org/ns#"
   xmlns:rdf="http://www.w3.org/1999/02/22-rdf-syntax-ns#"
   xmlns:svg="http://www.w3.org/2000/svg"
   xmlns="http://www.w3.org/2000/svg"
   xmlns:sodipodi="http://sodipodi.sourceforge.net/DTD/sodipodi-0.dtd"
   xmlns:inkscape="http://www.inkscape.org/namespaces/inkscape"
   version="1.1"
   id="Capa_1"
   x="0px"
   y="0px"
   viewBox="0 0 240.29 240.29"
   style="enable-background:new 0 0 240.29 240.29;"
   xml:space="preserve"
   inkscape:version="0.91 r13725"
   sodipodi:docname="black-willow.svg"><metadata
     id="metadata41"><rdf:RDF><cc:Work
         rdf:about=""><dc:format>image/svg+xml</dc:format><dc:type
           rdf:resource="http://purl.org/dc/dcmitype/StillImage" /></cc:Work></rdf:RDF></metadata><defs
     id="defs39" /><sodipodi:namedview
     pagecolor="#ffffff"
     bordercolor="#666666"
     borderopacity="1"
     objecttolerance="10"
     gridtolerance="10"
     guidetolerance="10"
     inkscape:pageopacity="0"
     inkscape:pageshadow="2"
     inkscape:window-width="1371"
     inkscape:window-height="828"
     id="namedview37"
     showgrid="false"
     inkscape:zoom="0.9821466"
     inkscape:cx="-32.072602"
     inkscape:cy="149.1739"
     inkscape:window-x="318"
     inkscape:window-y="59"
     inkscape:window-maximized="0"
     inkscape:current-layer="Capa_1" /><g
     id="g3"
     transform="matrix(0,1,-1,0,240.29005,-4.6487643e-4)"
     style="fill:#004f00;fill-opacity:1"><path
       d="m 213.44,76.429 c -1.421,-1.338 -3.404,-1.899 -5.315,-1.509 -26.488,5.424 -52.111,20.133 -72.15,41.419 -5.764,6.123 -10.935,12.685 -15.499,19.549 2.087,-12.73 3.698,-25.153 4.939,-36.909 0.399,-0.104 0.791,-0.243 1.167,-0.43 16.123,-8.034 30.087,-21.881 39.319,-38.991 9.232,-17.109 13.142,-36.382 11.008,-54.268 -0.231,-1.938 -1.391,-3.643 -3.108,-4.569 -1.717,-0.926 -3.779,-0.96 -5.525,-0.09 -15.935,7.941 -29.753,21.566 -38.988,38.401 0.355,-14.731 0.124,-24.149 0.084,-25.532 -0.093,-3.255 -2.76,-5.831 -5.995,-5.831 -0.057,0 -0.114,0.001 -0.172,0.002 -3.313,0.094 -5.922,2.854 -5.829,6.167 0.01,0.343 0.237,9.647 -0.165,24.751 C 107.977,21.959 94.266,8.502 78.472,0.63 76.727,-0.241 74.665,-0.208 72.947,0.72 71.229,1.647 70.07,3.351 69.839,5.289 67.705,23.177 71.614,42.45 80.847,59.558 l 0,0 c 7.256,13.447 17.443,24.864 29.296,33.042 1.142,0.788 2.298,1.551 3.47,2.277 -1.243,12.22 -2.882,25.21 -5.036,38.515 -0.819,-4.371 -1.839,-8.731 -3.083,-13.06 C 102.608,110.285 98.602,100.407 93.507,90.966 79.622,65.24 58.65,44.431 34.449,32.371 c -1.745,-0.871 -3.807,-0.838 -5.525,0.09 -1.718,0.927 -2.877,2.631 -3.108,4.569 -3.204,26.849 2.678,55.803 16.561,81.528 12.913,23.93 31.965,43.595 54.038,55.932 1.125,0.629 2.262,1.225 3.402,1.815 -2.512,9.982 -5.377,19.872 -8.649,29.486 -3.049,8.959 -6.446,17.681 -10.238,26.011 -1.373,3.016 -0.041,6.574 2.976,7.947 0.806,0.367 1.65,0.541 2.481,0.541 2.279,0 4.459,-1.306 5.465,-3.516 5.683,-12.486 10.512,-25.722 14.618,-39.27 26.368,-5.48 51.859,-20.148 71.81,-41.342 20.037,-21.286 33.173,-47.75 36.988,-74.518 0.275,-1.932 -0.407,-3.878 -1.828,-5.215 z M 139.514,45.32 c 6.448,-11.948 15.479,-22.047 25.956,-29.165 -0.199,12.664 -3.684,25.756 -10.131,37.705 -6.447,11.948 -15.479,22.047 -25.955,29.165 0.198,-12.665 3.683,-25.758 10.13,-37.705 z M 98.849,162.037 C 80.198,150.729 64.1,133.547 52.937,112.86 l 0,0 C 41.773,92.173 36.247,69.286 37.033,47.489 c 18.65,11.308 34.748,28.489 45.912,49.177 11.165,20.687 16.69,43.575 15.904,65.371 z M 91.406,53.859 c 0,0 0,0 0,0 -6.448,-11.948 -9.932,-25.041 -10.131,-37.705 10.477,7.118 19.508,17.217 25.955,29.165 6.448,11.947 9.932,25.04 10.131,37.705 C 106.885,75.907 97.854,65.807 91.406,53.859 Z m 78.135,94.077 c -16.112,17.117 -36.09,29.576 -57.023,35.702 4.852,-21.265 16.081,-41.958 32.194,-59.075 16.113,-17.117 36.091,-29.576 57.023,-35.702 -4.851,21.266 -16.081,41.959 -32.194,59.075 z"
       id="path5"
       inkscape:connector-curvature="0"
       style="fill:#004f00;fill-opacity:1" /></g><g
     id="g7" /><g
     id="g9" /><g
     id="g11" /><g
     id="g13" /><g
     id="g15" /><g
     id="g17" /><g
     id="g19" /><g
     id="g21" /><g
     id="g23" /><g
     id="g25" /><g
     id="g27" /><g
     id="g29" /><g
     id="g31" /><g
     id="g33" /><g
     id="g35" /><path
     style="opacity:1;fill:#4cb55f;fill-opacity:1;stroke:#373e48;stroke-width:0.526398;stroke-miterlimit:4;stroke-dasharray:none;stroke-opacity:1"
     d="M 140.88547,198.1111 C 116.4435,189.91439 92.791826,172.56776 76.491382,150.88314 71.17809,143.81482 59.618218,121.89925 58.365557,116.51963 c -0.811127,-3.48342 -0.319958,-3.49658 9.349862,-0.25053 29.197446,9.80126 56.401721,32.45629 72.178371,60.10831 4.33144,7.5918 11.22417,23.69732 10.4662,24.45529 -0.1877,0.1877 -4.45124,-1.03702 -9.47452,-2.7216 z"
     id="path4153"
     inkscape:connector-curvature="0" /><path
     style="opacity:1;fill:#4cb55f;fill-opacity:1;stroke:#373e48;stroke-width:0.526398;stroke-miterlimit:4;stroke-dasharray:none;stroke-opacity:1"
     d="m 206.58831,162.55213 c -4.19999,-1.08036 -12.3944,-4.31118 -18.20981,-7.1796 -9.22047,-4.54794 -11.82622,-6.46226 -20.36356,-14.96009 -11.28992,-11.23769 -11.09677,-11.76515 3.25582,-8.89127 18.33753,3.67181 37.59834,15.20218 48.60181,29.0952 l 3.1777,4.01217 -4.41282,-0.0561 c -2.42704,-0.0308 -7.84916,-0.93999 -12.04914,-2.02035 z"
     id="path4155"
     inkscape:connector-curvature="0" /><path
     style="opacity:1;fill:#4cb55f;fill-opacity:1;stroke:#373e48;stroke-width:0.526398;stroke-miterlimit:4;stroke-dasharray:none;stroke-opacity:1"
     d="m 159.61933,114.99237 c 1.88901,-3.51699 14.00537,-14.77565 20.6681,-19.205015 11.55315,-7.680522 31.0042,-14.300708 39.51994,-13.450657 l 3.29108,0.328519 -6.29789,6.860659 c -11.5929,12.628834 -30.39737,23.005324 -47.37998,26.144734 -8.89042,1.64349 -10.97095,1.49951 -9.80125,-0.67824 z"
     id="path4157"
     inkscape:connector-curvature="0" /><path
     style="opacity:1;fill:#4cb55f;fill-opacity:1;stroke:#373e48;stroke-width:0.526398;stroke-miterlimit:4;stroke-dasharray:none;stroke-opacity:1"
     d="m 80.770895,95.815495 c 14.762038,-22.944718 41.045035,-42.60591 69.350365,-51.878046 13.83829,-4.533088 41.19438,-8.48221 41.19438,-5.946816 0,1.797359 -10.51155,14.969052 -17.32567,21.710252 -22.89201,22.64704 -53.28512,36.334492 -85.359431,38.441375 l -9.769499,0.641734 1.909855,-2.968499 z"
     id="path4159"
     inkscape:connector-curvature="0" /></svg>