<?xml version="1.0" encoding="UTF-8" standalone="no"?>
<!-- Generator: Adobe Illustrator 18.0.0, SVG Export Plug-In . SVG Version: 6.00 Build 0)  -->

<svg
   xmlns:dc="http://purl.org/dc/elements/1.1/"
   xmlns:cc="http://creativecommons.org/ns#"
   xmlns:rdf="http://www.w3.org/1999/02/22-rdf-syntax-ns#"
   xmlns:svg="http://www.w3.org/2000/svg"
   xmlns="http://www.w3.org/2000/svg"
   xmlns:sodipodi="http://sodipodi.sourceforge.net/DTD/sodipodi-0.dtd"
   xmlns:inkscape="http://www.inkscape.org/namespaces/inkscape"
   version="1.1"
   id="Capa_1"
   x="0px"
   y="0px"
   viewBox="0 0 249.624 249.624"
   style="enable-background:new 0 0 249.624 249.624;"
   xml:space="preserve"
   inkscape:version="0.91 r13725"
   sodipodi:docname="chestnut.svg"><metadata
     id="metadata41"><rdf:RDF><cc:Work
         rdf:about=""><dc:format>image/svg+xml</dc:format><dc:type
           rdf:resource="http://purl.org/dc/dcmitype/StillImage" /></cc:Work></rdf:RDF></metadata><defs
     id="defs39" /><sodipodi:namedview
     pagecolor="#ffffff"
     bordercolor="#666666"
     borderopacity="1"
     objecttolerance="10"
     gridtolerance="10"
     guidetolerance="10"
     inkscape:pageopacity="0"
     inkscape:pageshadow="2"
     inkscape:window-width="690"
     inkscape:window-height="480"
     id="namedview37"
     showgrid="false"
     inkscape:zoom="0.94542194"
     inkscape:cx="124.812"
     inkscape:cy="124.812"
     inkscape:window-x="0"
     inkscape:window-y="0"
     inkscape:window-maximized="0"
     inkscape:current-layer="Capa_1" /><g
     id="g3"
     transform="matrix(0,1,-1,0,249.62486,0.00114312)"><path
       d="m 224.91,82.185 c -1.128,-1.567 -2.94,-2.496 -4.871,-2.496 -0.002,0 -0.004,0 -0.005,0 l -11.538,0.011 -9.052,-5.823 c -1.501,-0.966 -3.355,-1.214 -5.059,-0.674 l -13.919,4.411 0.307,-15.896 c 0.042,-2.159 -1.08,-4.173 -2.936,-5.275 L 162.579,47.385 157.93,26.329 c -0.43,-1.949 -1.802,-3.556 -3.659,-4.288 L 139.549,16.238 129.685,2.5 C 128.558,0.93 126.744,0 124.811,0 c -1.933,0 -3.747,0.931 -4.874,2.5 l -9.864,13.737 -14.722,5.803 c -1.857,0.732 -3.229,2.339 -3.659,4.288 l -4.649,21.056 -15.258,9.058 c -1.856,1.102 -2.978,3.116 -2.936,5.275 L 69.156,77.613 55.237,73.202 C 53.534,72.661 51.68,72.91 50.178,73.876 L 41.128,79.7 29.59,79.689 c -0.002,0 -0.003,0 -0.005,0 -1.93,0 -3.743,0.929 -4.871,2.496 -1.128,1.568 -1.433,3.584 -0.816,5.416 l 3.677,10.937 -2.644,10.434 c -0.49,1.935 0.014,3.986 1.344,5.474 l 10.696,11.958 7.064,19.618 c 0.433,1.203 1.24,2.237 2.301,2.949 l 5.64,3.785 -5.603,3.889 c -1.406,0.976 -2.329,2.506 -2.535,4.205 l -0.803,6.606 -8.188,6.017 c -1.624,1.193 -2.54,3.121 -2.44,5.134 0.101,2.012 1.204,3.84 2.938,4.866 l 18.612,11.008 c 0.99,0.585 2.123,0.872 3.277,0.832 l 11.582,-0.431 c 11.054,3.6 23.316,1.953 33.036,-4.494 l 18.002,-11.939 c 0.799,13.708 0.045,38.47 -11.894,62.506 -1.474,2.968 -0.263,6.569 2.704,8.043 0.858,0.426 1.768,0.628 2.665,0.628 2.206,0 4.33,-1.222 5.378,-3.332 12.529,-25.223 13.886,-51.05 13.232,-66.406 l 15.832,10.5 c 6.335,4.202 13.75,6.364 21.207,6.364 3.983,0 7.98,-0.617 11.829,-1.871 l 11.582,0.431 c 1.16,0.04 2.288,-0.247 3.277,-0.832 l 18.612,-11.008 c 1.734,-1.026 2.838,-2.854 2.938,-4.866 0.1,-2.013 -0.816,-3.941 -2.44,-5.134 l -8.188,-6.017 -0.803,-6.606 c -0.211,-1.74 -1.174,-3.301 -2.633,-4.272 -1.833,-1.219 -3.796,-2.536 -5.6,-3.759 l 5.735,-3.849 c 1.062,-0.712 1.868,-1.746 2.301,-2.949 l 7.064,-19.618 10.696,-11.958 c 1.331,-1.487 1.834,-3.539 1.344,-5.474 l -2.644,-10.434 3.677,-10.937 c 0.618,-1.829 0.313,-3.846 -0.815,-5.414 z m -23.152,39.054 -6.792,18.864 -11.305,7.587 c -0.567,0.38 -1.065,0.855 -1.472,1.403 -0.981,1.321 -1.379,2.997 -1.097,4.618 0.48,2.761 1.285,3.307 8.98,8.533 1.484,1.008 2.967,2.005 4.134,2.788 l 0.784,6.447 c 0.2,1.643 1.069,3.131 2.403,4.111 l 2.96,2.175 -9.279,5.488 -10.935,-0.406 c -0.776,-0.033 -1.539,0.091 -2.263,0.353 -7.793,2.817 -16.567,1.765 -23.472,-2.814 l -26.276,-17.427 c -1.005,-0.667 -2.161,-1 -3.316,-1 -1.155,0 -2.312,0.333 -3.316,1 L 95.22,180.385 c -6.905,4.58 -15.679,5.633 -23.472,2.814 -0.724,-0.262 -1.491,-0.386 -2.263,-0.353 l -10.935,0.406 -9.279,-5.488 2.96,-2.175 c 1.334,-0.98 2.204,-2.468 2.403,-4.111 l 0.792,-6.51 10.615,-7.367 c 1.629,-1.131 2.594,-2.993 2.579,-4.976 -0.016,-1.983 -1.01,-3.83 -2.656,-4.935 l -11.305,-7.587 -6.792,-18.864 c -0.261,-0.725 -0.659,-1.393 -1.173,-1.967 l -9.346,-10.448 2.293,-9.051 c 0.283,-1.118 0.238,-2.293 -0.129,-3.386 l -1.577,-4.69 4.949,0.004 c 0.002,0 0.003,0 0.005,0 1.151,0 2.278,-0.331 3.246,-0.954 l 8.166,-5.253 19.204,6.085 c 1.844,0.584 3.855,0.245 5.403,-0.913 1.549,-1.157 2.445,-2.989 2.408,-4.922 l -0.4,-20.766 14.49,-8.603 c 1.426,-0.847 2.438,-2.246 2.796,-3.865 l 4.521,-20.477 13.395,-5.28 c 1.073,-0.423 2.001,-1.146 2.673,-2.083 l 6.021,-8.385 6.021,8.385 c 0.672,0.937 1.601,1.66 2.673,2.083 l 13.395,5.28 4.521,20.477 c 0.357,1.619 1.37,3.019 2.796,3.865 l 14.49,8.603 -0.4,20.766 c -0.037,1.933 0.859,3.766 2.408,4.922 1.549,1.158 3.56,1.498 5.403,0.913 l 19.204,-6.085 8.166,5.253 c 0.968,0.623 2.095,0.954 3.246,0.954 0.002,0 0.004,0 0.005,0 l 4.949,-0.004 -1.577,4.69 c -0.368,1.093 -0.413,2.268 -0.129,3.386 l 2.293,9.051 -9.346,10.448 c -0.513,0.574 -0.912,1.242 -1.172,1.967 z"
       id="path5"
       inkscape:connector-curvature="0" /></g><g
     id="g7" /><g
     id="g9" /><g
     id="g11" /><g
     id="g13" /><g
     id="g15" /><g
     id="g17" /><g
     id="g19" /><g
     id="g21" /><g
     id="g23" /><g
     id="g25" /><g
     id="g27" /><g
     id="g29" /><g
     id="g31" /><g
     id="g33" /><g
     id="g35" /></svg>