<?xml version="1.0" encoding="UTF-8" standalone="no"?>
<!-- Generator: Adobe Illustrator 18.0.0, SVG Export Plug-In . SVG Version: 6.00 Build 0)  -->

<svg
   xmlns:dc="http://purl.org/dc/elements/1.1/"
   xmlns:cc="http://creativecommons.org/ns#"
   xmlns:rdf="http://www.w3.org/1999/02/22-rdf-syntax-ns#"
   xmlns:svg="http://www.w3.org/2000/svg"
   xmlns="http://www.w3.org/2000/svg"
   xmlns:sodipodi="http://sodipodi.sourceforge.net/DTD/sodipodi-0.dtd"
   xmlns:inkscape="http://www.inkscape.org/namespaces/inkscape"
   version="1.1"
   id="Capa_1"
   x="0px"
   y="0px"
   viewBox="0 0 243.86 243.86"
   style="enable-background:new 0 0 243.86 243.86;"
   xml:space="preserve"
   inkscape:version="0.91 r13725"
   sodipodi:docname="elliptic.svg"><metadata
     id="metadata41"><rdf:RDF><cc:Work
         rdf:about=""><dc:format>image/svg+xml</dc:format><dc:type
           rdf:resource="http://purl.org/dc/dcmitype/StillImage" /></cc:Work></rdf:RDF></metadata><defs
     id="defs39" /><sodipodi:namedview
     pagecolor="#ffffff"
     bordercolor="#666666"
     borderopacity="1"
     objecttolerance="10"
     gridtolerance="10"
     guidetolerance="10"
     inkscape:pageopacity="0"
     inkscape:pageshadow="2"
     inkscape:window-width="690"
     inkscape:window-height="480"
     id="namedview37"
     showgrid="false"
     inkscape:zoom="0.96776839"
     inkscape:cx="77.464549"
     inkscape:cy="121.93"
     inkscape:window-x="0"
     inkscape:window-y="0"
     inkscape:window-maximized="0"
     inkscape:current-layer="Capa_1" /><g
     id="g3"
     transform="matrix(0.70325774,0.71093498,-0.71093498,0.70325774,122.86575,-50.502219)"><path
       d="m 240.944,26.306 c -0.471,-2.389 -2.339,-4.257 -4.728,-4.728 C 185.838,11.66 134.119,27.381 97.864,63.636 62.226,99.274 46.446,149.855 55.34,199.415 l -2.57,2.57 c -0.853,0.853 -1.682,1.729 -2.509,2.606 -2.215,2.352 -14.682,13.687 -42.642,5.858 -3.19,-0.893 -6.502,0.969 -7.396,4.16 -0.894,3.191 0.969,6.502 4.16,7.396 8.16,2.285 15.313,3.192 21.536,3.192 19.508,0 29.831,-8.932 33.076,-12.377 0.745,-0.791 1.491,-1.581 2.26,-2.35 l 3.059,-3.059 c 8.69,1.489 17.405,2.22 26.065,2.22 40.336,0 79.406,-15.873 108.506,-44.974 36.256,-36.254 51.978,-87.974 42.059,-138.351 z m -50.543,129.867 c -30.525,30.525 -72.947,45.255 -115.459,40.612 L 176.618,95.108 c 2.343,-2.343 2.343,-6.142 0,-8.485 -2.343,-2.343 -6.143,-2.343 -8.485,0 L 65.893,188.862 c -5.084,-42.939 9.624,-85.908 40.456,-116.74 32.463,-32.462 78.379,-47.066 123.549,-39.498 7.57,45.169 -7.035,91.086 -39.497,123.549 z"
       id="path5"
       inkscape:connector-curvature="0" /></g><g
     id="g7" /><g
     id="g9" /><g
     id="g11" /><g
     id="g13" /><g
     id="g15" /><g
     id="g17" /><g
     id="g19" /><g
     id="g21" /><g
     id="g23" /><g
     id="g25" /><g
     id="g27" /><g
     id="g29" /><g
     id="g31" /><g
     id="g33" /><g
     id="g35" /></svg>