<?xml version="1.0" encoding="UTF-8" standalone="no"?>
<!-- Generator: Adobe Illustrator 18.0.0, SVG Export Plug-In . SVG Version: 6.00 Build 0)  -->

<svg
   xmlns:dc="http://purl.org/dc/elements/1.1/"
   xmlns:cc="http://creativecommons.org/ns#"
   xmlns:rdf="http://www.w3.org/1999/02/22-rdf-syntax-ns#"
   xmlns:svg="http://www.w3.org/2000/svg"
   xmlns="http://www.w3.org/2000/svg"
   xmlns:sodipodi="http://sodipodi.sourceforge.net/DTD/sodipodi-0.dtd"
   xmlns:inkscape="http://www.inkscape.org/namespaces/inkscape"
   version="1.1"
   id="Capa_1"
   x="0px"
   y="0px"
   viewBox="0 0 260.524 260.524"
   style="enable-background:new 0 0 260.524 260.524;"
   xml:space="preserve"
   inkscape:version="0.91 r13725"
   sodipodi:docname="escuamiforme.svg"><metadata
     id="metadata41"><rdf:RDF><cc:Work
         rdf:about=""><dc:format>image/svg+xml</dc:format><dc:type
           rdf:resource="http://purl.org/dc/dcmitype/StillImage" /></cc:Work></rdf:RDF></metadata><defs
     id="defs39" /><sodipodi:namedview
     pagecolor="#ffffff"
     bordercolor="#666666"
     borderopacity="1"
     objecttolerance="10"
     gridtolerance="10"
     guidetolerance="10"
     inkscape:pageopacity="0"
     inkscape:pageshadow="2"
     inkscape:window-width="690"
     inkscape:window-height="480"
     id="namedview37"
     showgrid="false"
     inkscape:zoom="0.90586668"
     inkscape:cx="130.26199"
     inkscape:cy="130.26199"
     inkscape:window-x="0"
     inkscape:window-y="0"
     inkscape:window-maximized="0"
     inkscape:current-layer="Capa_1" /><g
     id="g3"
     transform="matrix(0,1,-1,0,260.52335,3.4758898e-4)"><path
       d="M 163.707,1.532 C 161.32,0.68 158.65,1.423 157.046,3.387 l -3.064,3.751 C 146.739,2.39 138.359,-0.104 129.695,0.003 121.386,0.113 113.436,2.596 106.534,7.129 L 103.477,3.387 C 101.873,1.423 99.205,0.679 96.816,1.532 94.426,2.384 92.831,4.646 92.831,7.183 l 0,247.341 c 0,3.314 2.687,6 6,6 l 62.861,0 c 3.313,0 6,-2.686 6,-6 l 0,-247.341 c 0.001,-2.537 -1.595,-4.8 -3.985,-5.651 z m -53.226,158.976 c 5.685,-4.602 12.519,-7.087 19.781,-7.087 7.262,0 14.096,2.486 19.781,7.087 l -19.781,17.06 -19.781,-17.06 z M 130.262,60.201 c 7.262,0 14.096,2.486 19.781,7.087 l -19.781,17.06 -19.781,-17.06 c 5.685,-4.602 12.519,-7.087 19.781,-7.087 z m 5.767,81.63 19.664,-16.959 0,24.893 c -5.866,-4.233 -12.602,-6.964 -19.664,-7.934 z m -31.198,7.934 0,-24.893 19.664,16.959 c -7.062,0.97 -13.799,3.701 -19.664,7.934 z m 19.664,-54.544 c -7.063,0.97 -13.799,3.701 -19.664,7.934 l 0,-24.893 19.664,16.959 z m -14.014,18.677 c 5.685,-4.602 12.519,-7.088 19.781,-7.088 7.262,0 14.096,2.486 19.781,7.088 l -19.781,17.06 -19.781,-17.06 z m 25.548,-18.677 19.664,-16.959 0,24.894 c -5.866,-4.234 -12.602,-6.965 -19.664,-7.935 z m 19.664,-71.208 0,32.532 c -5.972,-4.31 -12.846,-7.066 -20.048,-7.988 l 20.048,-24.544 z m -50.862,32.532 0,-32.532 20.048,24.544 c -7.202,0.922 -14.076,3.678 -20.048,7.988 z m 0,114.937 19.664,16.96 c -7.063,0.97 -13.799,3.701 -19.664,7.934 l 0,-24.894 z m 50.862,0 0,24.893 c -5.865,-4.233 -12.602,-6.964 -19.664,-7.934 l 19.664,-16.959 z M 129.854,12.002 c 5.828,-0.095 11.485,1.48 16.486,4.492 L 130.262,36.176 114.188,16.498 c 4.754,-2.858 10.106,-4.422 15.666,-4.496 z m -25.023,236.522 0,-35.891 c 0.317,-0.249 0.616,-0.528 0.886,-0.848 6.4,-7.58 15.117,-11.754 24.545,-11.754 9.428,0 18.145,4.174 24.545,11.754 0.271,0.321 0.568,0.605 0.886,0.854 l 0,35.885 -50.862,0 z"
       id="path5"
       inkscape:connector-curvature="0" /></g><g
     id="g7" /><g
     id="g9" /><g
     id="g11" /><g
     id="g13" /><g
     id="g15" /><g
     id="g17" /><g
     id="g19" /><g
     id="g21" /><g
     id="g23" /><g
     id="g25" /><g
     id="g27" /><g
     id="g29" /><g
     id="g31" /><g
     id="g33" /><g
     id="g35" /></svg>