<?xml version="1.0" encoding="UTF-8" standalone="no"?>
<!-- Generator: Adobe Illustrator 18.0.0, SVG Export Plug-In . SVG Version: 6.00 Build 0)  -->

<svg
   xmlns:dc="http://purl.org/dc/elements/1.1/"
   xmlns:cc="http://creativecommons.org/ns#"
   xmlns:rdf="http://www.w3.org/1999/02/22-rdf-syntax-ns#"
   xmlns:svg="http://www.w3.org/2000/svg"
   xmlns="http://www.w3.org/2000/svg"
   xmlns:sodipodi="http://sodipodi.sourceforge.net/DTD/sodipodi-0.dtd"
   xmlns:inkscape="http://www.inkscape.org/namespaces/inkscape"
   version="1.1"
   id="Capa_1"
   x="0px"
   y="0px"
   viewBox="0 0 235.268 235.268"
   style="enable-background:new 0 0 235.268 235.268;"
   xml:space="preserve"
   inkscape:version="0.91 r13725"
   sodipodi:docname="ginkgo.svg"><metadata
     id="metadata41"><rdf:RDF><cc:Work
         rdf:about=""><dc:format>image/svg+xml</dc:format><dc:type
           rdf:resource="http://purl.org/dc/dcmitype/StillImage" /></cc:Work></rdf:RDF></metadata><defs
     id="defs39" /><sodipodi:namedview
     pagecolor="#ffffff"
     bordercolor="#666666"
     borderopacity="1"
     objecttolerance="10"
     gridtolerance="10"
     guidetolerance="10"
     inkscape:pageopacity="0"
     inkscape:pageshadow="2"
     inkscape:window-width="690"
     inkscape:window-height="480"
     id="namedview37"
     showgrid="false"
     inkscape:zoom="1.0031113"
     inkscape:cx="117.634"
     inkscape:cy="117.634"
     inkscape:window-x="0"
     inkscape:window-y="0"
     inkscape:window-maximized="0"
     inkscape:current-layer="Capa_1" /><g
     id="g3"
     transform="matrix(0,1,-1,0,235.26752,-4.8257646e-4)"><path
       d="m 235.268,64.459 0,-11.02 C 235.268,37.69 227.301,23.294 213.956,14.93 202.22,7.575 188.734,2.945 174.953,1.54 l -2.602,-0.265 c -11.762,-1.196 -23.578,1.869 -33.273,8.637 -7.615,5.316 -13.559,12.645 -17.188,21.193 l -4.256,10.027 -4.257,-10.027 C 109.748,22.557 103.805,15.228 96.189,9.912 86.494,3.144 74.675,0.077 62.916,1.275 L 60.315,1.54 C 46.535,2.945 33.048,7.575 21.312,14.93 7.967,23.294 0,37.69 0,53.439 l 0,11.02 c 0,0.02 0,0.039 0,0.059 l 0,25.396 c 0,13.849 6.779,26.85 18.114,34.765 l 93.384,65.74 c -0.541,6.096 -3.18,20.889 -15.929,33.574 -2.35,2.337 -2.359,6.136 -0.022,8.485 1.173,1.178 2.713,1.768 4.254,1.768 1.53,0 3.062,-0.582 4.231,-1.747 15.931,-15.85 18.938,-34.406 19.486,-41.904 l 93.615,-65.903 c 11.354,-7.928 18.134,-20.93 18.134,-34.778 l 0,-25.396 c 0.001,-0.02 0.001,-0.039 0.001,-0.059 z M 12,53.439 c 0,-7.248 2.293,-14.105 6.412,-19.732 51.676,2.091 87.826,61.744 93.222,71.178 l 0,22.497 C 93.403,109.446 53.837,74.154 12,60.056 l 0,-6.617 z m 111.634,51.308 c 4.698,-9.091 37.799,-69.085 93.218,-71.045 4.121,5.628 6.416,12.487 6.416,19.737 l 0,6.617 c -41.836,14.098 -81.403,49.389 -99.634,67.326 l 0,-22.635 z m 9.302,-68.952 c 2.748,-6.471 7.247,-12.019 13.012,-16.043 7.339,-5.124 16.284,-7.447 25.188,-6.538 l 2.602,0.265 c 10.6,1.08 20.996,4.364 30.314,9.539 -23.117,4.06 -45.201,17.136 -64.611,38.426 -6.378,6.997 -11.652,13.965 -15.806,20.05 l 0,-23.785 9.301,-21.914 z M 61.531,13.479 64.133,13.214 c 8.903,-0.908 17.849,1.415 25.188,6.538 5.765,4.024 10.264,9.572 13.011,16.043 l 9.303,21.915 0,25.04 C 107.083,76.371 101.223,68.894 94.156,61.376 74.372,40.332 52.806,27.324 31.013,23.134 40.384,17.892 50.854,14.567 61.531,13.479 Z M 12,89.914 12,72.784 c 46.456,17.284 90.874,62.5 99.634,71.747 l 0,31.308 -86.631,-60.985 C 16.861,109.168 12,99.846 12,89.914 Z m 198.245,24.953 -86.611,60.972 0,-31.31 c 8.755,-9.247 53.133,-54.451 99.634,-71.746 l 0,17.131 c 0,9.932 -4.862,19.254 -13.023,24.953 z"
       id="path5"
       inkscape:connector-curvature="0" /></g><g
     id="g7" /><g
     id="g9" /><g
     id="g11" /><g
     id="g13" /><g
     id="g15" /><g
     id="g17" /><g
     id="g19" /><g
     id="g21" /><g
     id="g23" /><g
     id="g25" /><g
     id="g27" /><g
     id="g29" /><g
     id="g31" /><g
     id="g33" /><g
     id="g35" /></svg>