<?xml version="1.0" encoding="UTF-8" standalone="no"?>
<!-- Generator: Adobe Illustrator 18.0.0, SVG Export Plug-In . SVG Version: 6.00 Build 0)  -->

<svg
   xmlns:dc="http://purl.org/dc/elements/1.1/"
   xmlns:cc="http://creativecommons.org/ns#"
   xmlns:rdf="http://www.w3.org/1999/02/22-rdf-syntax-ns#"
   xmlns:svg="http://www.w3.org/2000/svg"
   xmlns="http://www.w3.org/2000/svg"
   xmlns:sodipodi="http://sodipodi.sourceforge.net/DTD/sodipodi-0.dtd"
   xmlns:inkscape="http://www.inkscape.org/namespaces/inkscape"
   version="1.1"
   id="Capa_1"
   x="0px"
   y="0px"
   viewBox="0 0 347.269 347.269"
   style="enable-background:new 0 0 347.269 347.269;"
   xml:space="preserve"
   inkscape:version="0.91 r13725"
   sodipodi:docname="lanceolate.svg"><metadata
     id="metadata41"><rdf:RDF><cc:Work
         rdf:about=""><dc:format>image/svg+xml</dc:format><dc:type
           rdf:resource="http://purl.org/dc/dcmitype/StillImage" /></cc:Work></rdf:RDF></metadata><defs
     id="defs39" /><sodipodi:namedview
     pagecolor="#ffffff"
     bordercolor="#666666"
     borderopacity="1"
     objecttolerance="10"
     gridtolerance="10"
     guidetolerance="10"
     inkscape:pageopacity="0"
     inkscape:pageshadow="2"
     inkscape:window-width="690"
     inkscape:window-height="480"
     id="namedview37"
     showgrid="false"
     inkscape:zoom="0.67958842"
     inkscape:cx="173.63451"
     inkscape:cy="173.63451"
     inkscape:window-x="0"
     inkscape:window-y="0"
     inkscape:window-maximized="0"
     inkscape:current-layer="Capa_1" /><g
     id="g3"
     transform="matrix(-1,0,0,1,347.26962,0)"><path
       d="m 345.517,160.653 0,0 c -2.095,-2.095 -5.435,-2.386 -7.793,-0.591 -6.455,4.913 -14.297,7.573 -22.548,7.573 l -8.033,0 C 276.671,142.762 238.354,129.081 198.979,129.081 l -104.231,0 c -35.179,0 -69.125,14.747 -93.133,40.459 -2.153,2.305 -2.153,5.884 0,8.189 24.009,25.712 57.955,40.459 93.133,40.459 l 104.232,0 c 39.374,0 77.691,-13.681 108.164,-38.554 l 8.033,0 c 10.852,0 21.17,-3.481 29.678,-9.916 2.921,-2.21 3.252,-6.475 0.662,-9.065 z m -146.537,45.535 -104.232,0 c -29.948,0 -58.911,-11.8 -80.342,-32.554 C 35.837,152.88 64.8,141.08 94.748,141.08 l 104.232,0 c 31.368,0 62.013,9.335 87.97,26.554 l -198.411,0 c -3.313,0 -6,2.686 -6,6 0,3.314 2.687,6 6,6 l 198.41,0 c -25.956,17.219 -56.602,26.554 -87.969,26.554 z"
       id="path5"
       inkscape:connector-curvature="0" /></g><g
     id="g7" /><g
     id="g9" /><g
     id="g11" /><g
     id="g13" /><g
     id="g15" /><g
     id="g17" /><g
     id="g19" /><g
     id="g21" /><g
     id="g23" /><g
     id="g25" /><g
     id="g27" /><g
     id="g29" /><g
     id="g31" /><g
     id="g33" /><g
     id="g35" /></svg>