<?xml version="1.0" encoding="UTF-8" standalone="no"?>
<!-- Generator: Adobe Illustrator 18.0.0, SVG Export Plug-In . SVG Version: 6.00 Build 0)  -->

<svg
   xmlns:dc="http://purl.org/dc/elements/1.1/"
   xmlns:cc="http://creativecommons.org/ns#"
   xmlns:rdf="http://www.w3.org/1999/02/22-rdf-syntax-ns#"
   xmlns:svg="http://www.w3.org/2000/svg"
   xmlns="http://www.w3.org/2000/svg"
   xmlns:sodipodi="http://sodipodi.sourceforge.net/DTD/sodipodi-0.dtd"
   xmlns:inkscape="http://www.inkscape.org/namespaces/inkscape"
   version="1.1"
   id="Capa_1"
   x="0px"
   y="0px"
   viewBox="0 0 260.431 260.431"
   style="enable-background:new 0 0 260.431 260.431;"
   xml:space="preserve"
   inkscape:version="0.91 r13725"
   sodipodi:docname="laurel.svg"><metadata
     id="metadata41"><rdf:RDF><cc:Work
         rdf:about=""><dc:format>image/svg+xml</dc:format><dc:type
           rdf:resource="http://purl.org/dc/dcmitype/StillImage" /></cc:Work></rdf:RDF></metadata><defs
     id="defs39" /><sodipodi:namedview
     pagecolor="#ffffff"
     bordercolor="#666666"
     borderopacity="1"
     objecttolerance="10"
     gridtolerance="10"
     guidetolerance="10"
     inkscape:pageopacity="0"
     inkscape:pageshadow="2"
     inkscape:window-width="690"
     inkscape:window-height="480"
     id="namedview37"
     showgrid="false"
     inkscape:zoom="0.90619012"
     inkscape:cx="4.2716949"
     inkscape:cy="130.2155"
     inkscape:window-x="0"
     inkscape:window-y="0"
     inkscape:window-maximized="0"
     inkscape:current-layer="Capa_1" /><g
     id="g3"
     transform="matrix(0.70501715,0.70919025,-0.70919025,0.70501715,130.75838,-53.936835)"><path
       d="m 259.827,5.792 c -0.348,-2.708 -2.479,-4.84 -5.188,-5.188 -22.498,-2.89 -53.371,4.641 -86.925,21.2 -27.775,13.707 -55.049,32.583 -72.958,50.492 -17.78,17.78 -33.752,41.812 -44.972,67.668 -11.998,27.645 -17.329,54.966 -15.181,77.378 L 1.758,250.188 c -2.343,2.343 -2.343,6.142 0,8.485 1.171,1.171 2.707,1.757 4.243,1.757 1.536,0 3.071,-0.586 4.243,-1.757 l 32.828,-32.828 c 3.237,0.31 6.575,0.467 10.004,0.467 20.311,0 43.739,-5.4 67.392,-15.666 25.857,-11.221 49.889,-27.192 67.668,-44.972 17.909,-17.91 36.785,-45.184 50.491,-72.958 16.558,-33.553 24.088,-64.424 21.2,-86.924 z m -31.962,81.615 c -13.158,26.663 -31.183,52.75 -48.216,69.784 -16.739,16.739 -39.454,31.814 -63.96,42.449 -21.594,9.371 -42.786,14.411 -61.075,14.663 L 223.252,45.664 c 2.343,-2.343 2.343,-6.142 0,-8.485 -2.343,-2.343 -6.143,-2.343 -8.485,0 L 46.129,205.817 c 0.252,-18.292 5.291,-39.48 14.662,-61.074 10.635,-24.506 25.71,-47.221 42.45,-63.96 17.032,-17.033 43.12,-35.058 69.783,-48.216 29.061,-14.341 55.549,-21.514 75.324,-20.482 1.031,19.778 -6.141,46.262 -20.483,75.322 z"
       id="path5"
       inkscape:connector-curvature="0" /></g><g
     id="g7" /><g
     id="g9" /><g
     id="g11" /><g
     id="g13" /><g
     id="g15" /><g
     id="g17" /><g
     id="g19" /><g
     id="g21" /><g
     id="g23" /><g
     id="g25" /><g
     id="g27" /><g
     id="g29" /><g
     id="g31" /><g
     id="g33" /><g
     id="g35" /></svg>