<?xml version="1.0" encoding="UTF-8" standalone="no"?>
<!-- Generator: Adobe Illustrator 18.0.0, SVG Export Plug-In . SVG Version: 6.00 Build 0)  -->

<svg
   xmlns:dc="http://purl.org/dc/elements/1.1/"
   xmlns:cc="http://creativecommons.org/ns#"
   xmlns:rdf="http://www.w3.org/1999/02/22-rdf-syntax-ns#"
   xmlns:svg="http://www.w3.org/2000/svg"
   xmlns="http://www.w3.org/2000/svg"
   xmlns:sodipodi="http://sodipodi.sourceforge.net/DTD/sodipodi-0.dtd"
   xmlns:inkscape="http://www.inkscape.org/namespaces/inkscape"
   version="1.1"
   id="Capa_1"
   x="0px"
   y="0px"
   viewBox="0 0 298.721 298.721"
   style="enable-background:new 0 0 298.721 298.721;"
   xml:space="preserve"
   inkscape:version="0.91 r13725"
   sodipodi:docname="obcordate.svg"><metadata
     id="metadata41"><rdf:RDF><cc:Work
         rdf:about=""><dc:format>image/svg+xml</dc:format><dc:type
           rdf:resource="http://purl.org/dc/dcmitype/StillImage" /></cc:Work></rdf:RDF></metadata><defs
     id="defs39" /><sodipodi:namedview
     pagecolor="#ffffff"
     bordercolor="#666666"
     borderopacity="1"
     objecttolerance="10"
     gridtolerance="10"
     guidetolerance="10"
     inkscape:pageopacity="0"
     inkscape:pageshadow="2"
     inkscape:window-width="690"
     inkscape:window-height="480"
     id="namedview37"
     showgrid="false"
     inkscape:zoom="0.79003483"
     inkscape:cx="149.3605"
     inkscape:cy="149.3605"
     inkscape:window-x="0"
     inkscape:window-y="0"
     inkscape:window-maximized="0"
     inkscape:current-layer="Capa_1" /><g
     id="g3"
     transform="matrix(-1,0,0,1,298.72129,0)"><path
       d="m 298.17,157.351 c -3.913,-8.499 -12.486,-13.991 -21.843,-13.991 l -28.958,0 c -2.073,-11.693 -10.261,-23.398 -25.755,-26.902 L 80.263,84.492 C 63.183,80.63 45.645,78.671 28.134,78.671 c -9.667,0 -18.536,4.87 -23.724,13.027 -5.188,8.157 -5.839,18.254 -1.739,27.01 l 11.151,23.82 c 2.033,4.342 2.033,9.323 0,13.666 l -11.151,23.82 c -4.1,8.755 -3.449,18.853 1.739,27.01 5.187,8.157 14.057,13.027 23.724,13.027 17.511,0 35.049,-1.958 52.129,-5.821 l 141.352,-31.966 c 15.494,-3.504 23.682,-15.209 25.755,-26.902 l 28.958,0 c 4.688,0 8.982,2.751 10.942,7.009 1.012,2.197 3.184,3.492 5.454,3.492 0.84,0 1.692,-0.177 2.505,-0.551 3.01,-1.387 4.327,-4.95 2.941,-7.961 z m -140.222,-19.258 17.045,5.268 -37.702,0 -48.64,-27.235 c -2.892,-1.618 -6.548,-0.586 -8.167,2.304 -1.619,2.891 -0.587,6.547 2.304,8.167 l 29.94,16.765 -48.008,0 c -3.313,0 -6,2.686 -6,6 0,3.314 2.687,6 6,6 l 48.003,0 -29.935,16.762 c -2.891,1.619 -3.923,5.275 -2.304,8.167 1.1,1.964 3.14,3.07 5.241,3.07 0.992,0 1.998,-0.247 2.926,-0.766 l 48.634,-27.232 37.698,0 -17.036,5.265 c -3.166,0.979 -4.939,4.338 -3.961,7.504 0.796,2.576 3.169,4.23 5.73,4.23 0.587,0 1.184,-0.086 1.773,-0.269 l 54.134,-16.729 19.466,0 c -1.769,6.525 -6.603,13.045 -16.124,15.198 L 77.616,202.525 c -16.213,3.666 -32.861,5.525 -49.482,5.525 -5.541,0 -10.625,-2.792 -13.599,-7.467 -2.974,-4.676 -3.346,-10.463 -0.997,-15.482 l 11.151,-23.819 c 3.548,-7.576 3.548,-16.267 0,-23.842 L 13.538,113.62 c -2.349,-5.019 -1.977,-10.806 0.997,-15.482 2.974,-4.675 8.058,-7.467 13.599,-7.467 16.621,0 33.27,1.859 49.482,5.525 l 141.352,31.966 c 9.521,2.153 14.355,8.673 16.124,15.198 l -19.457,0 -54.144,-16.732 c -3.165,-0.981 -6.526,0.795 -7.504,3.961 -0.978,3.166 0.795,6.526 3.961,7.504 z"
       id="path5"
       inkscape:connector-curvature="0" /></g><g
     id="g7" /><g
     id="g9" /><g
     id="g11" /><g
     id="g13" /><g
     id="g15" /><g
     id="g17" /><g
     id="g19" /><g
     id="g21" /><g
     id="g23" /><g
     id="g25" /><g
     id="g27" /><g
     id="g29" /><g
     id="g31" /><g
     id="g33" /><g
     id="g35" /></svg>