<?xml version="1.0" encoding="UTF-8" standalone="no"?>
<!-- Generator: Adobe Illustrator 18.0.0, SVG Export Plug-In . SVG Version: 6.00 Build 0)  -->

<svg
   xmlns:dc="http://purl.org/dc/elements/1.1/"
   xmlns:cc="http://creativecommons.org/ns#"
   xmlns:rdf="http://www.w3.org/1999/02/22-rdf-syntax-ns#"
   xmlns:svg="http://www.w3.org/2000/svg"
   xmlns="http://www.w3.org/2000/svg"
   xmlns:sodipodi="http://sodipodi.sourceforge.net/DTD/sodipodi-0.dtd"
   xmlns:inkscape="http://www.inkscape.org/namespaces/inkscape"
   version="1.1"
   id="Capa_1"
   x="0px"
   y="0px"
   viewBox="0 0 247.371 247.371"
   style="enable-background:new 0 0 247.371 247.371;"
   xml:space="preserve"
   inkscape:version="0.91 r13725"
   sodipodi:docname="orbicular.svg"><metadata
     id="metadata43"><rdf:RDF><cc:Work
         rdf:about=""><dc:format>image/svg+xml</dc:format><dc:type
           rdf:resource="http://purl.org/dc/dcmitype/StillImage" /></cc:Work></rdf:RDF></metadata><defs
     id="defs41" /><sodipodi:namedview
     pagecolor="#ffffff"
     bordercolor="#666666"
     borderopacity="1"
     objecttolerance="10"
     gridtolerance="10"
     guidetolerance="10"
     inkscape:pageopacity="0"
     inkscape:pageshadow="2"
     inkscape:window-width="690"
     inkscape:window-height="480"
     id="namedview39"
     showgrid="false"
     inkscape:zoom="0.9540326"
     inkscape:cx="64.138619"
     inkscape:cy="118.36901"
     inkscape:window-x="0"
     inkscape:window-y="0"
     inkscape:window-maximized="0"
     inkscape:current-layer="Capa_1" /><g
     id="g3"
     transform="matrix(-0.93041945,0.36649645,-0.36649645,-0.93041945,284.09423,193.43478)"><path
       d="m 156.392,110.32 -47.943,6.383 6.382,-47.943 c 0.438,-3.285 -1.871,-6.302 -5.155,-6.74 -3.28,-0.433 -6.302,1.871 -6.739,5.156 l -5.815,43.68 -27.52,-27.52 c -2.341,-2.343 -6.142,-2.344 -8.484,0 -2.344,2.343 -2.344,6.142 0,8.485 l 27.519,27.52 -43.679,5.815 c -3.284,0.438 -5.593,3.455 -5.155,6.74 0.401,3.016 2.978,5.208 5.939,5.208 0.264,0 0.531,-0.017 0.8,-0.053 l 47.943,-6.383 -6.382,47.943 c -0.438,3.285 1.871,6.302 5.155,6.74 0.27,0.036 0.535,0.053 0.8,0.053 2.961,0 5.538,-2.193 5.939,-5.208 l 5.815,-43.68 27.52,27.52 c 1.171,1.172 2.706,1.757 4.242,1.757 1.535,0 3.071,-0.586 4.242,-1.757 2.344,-2.343 2.344,-6.142 0,-8.485 l -27.519,-27.52 43.679,-5.815 c 3.284,-0.438 5.593,-3.455 5.155,-6.74 -0.438,-3.285 -3.446,-5.589 -6.739,-5.156 z"
       id="path5"
       inkscape:connector-curvature="0" /><path
       d="m 241.371,204.118 -19.473,0 c -20.222,0 -39.237,-7.842 -53.584,-22.079 l 14.806,-13.495 c 12.591,-11.474 19.812,-27.824 19.812,-44.858 0,-17.034 -7.221,-33.385 -19.811,-44.858 L 165.537,62.803 c -1.104,-1.006 -2.178,-2.08 -3.189,-3.189 L 146.325,42.03 C 134.85,29.44 118.5,22.219 101.466,22.219 84.432,22.219 68.082,29.44 56.609,42.03 L 40.585,59.612 c -1.012,1.11 -2.086,2.184 -3.19,3.191 L 19.812,78.827 C 7.221,90.301 0,106.651 0,123.686 c 0,17.035 7.221,33.385 19.812,44.858 l 17.582,16.023 c 1.105,1.008 2.18,2.082 3.19,3.191 l 16.024,17.583 c 11.474,12.59 27.823,19.811 44.857,19.811 10e-4,0 0,0 10e-4,0 17.033,0 33.385,-7.222 44.858,-19.811 l 13.504,-14.818 c 16.613,16.504 38.64,25.595 62.069,25.595 l 19.473,0 c 3.313,0 6,-2.687 6,-6 0,-3.313 -2.685,-6 -5.999,-6 z m -87.892,-24.443 -16.023,17.583 c -9.206,10.101 -22.323,15.894 -35.99,15.894 -13.666,0 -26.783,-5.793 -35.988,-15.894 L 49.453,179.675 c -1.259,-1.381 -2.597,-2.719 -3.976,-3.976 L 27.894,159.675 C 17.793,150.469 12,137.352 12,123.686 12,110.02 17.793,96.902 27.894,87.697 L 45.478,71.673 c 1.378,-1.256 2.716,-2.594 3.976,-3.976 L 65.478,50.114 C 74.683,40.013 87.8,34.22 101.466,34.219 c 13.667,0 26.784,5.793 35.99,15.894 l 16.024,17.583 c 1.262,1.384 2.6,2.722 3.976,3.976 l 17.583,16.024 c 10.101,9.206 15.894,22.323 15.894,35.989 0,13.666 -5.793,26.784 -15.894,35.989 l -10e-4,0 -17.58,16.023 c -1.378,1.256 -2.716,2.594 -3.979,3.978 z"
       id="path7"
       inkscape:connector-curvature="0" /></g><g
     id="g9" /><g
     id="g11" /><g
     id="g13" /><g
     id="g15" /><g
     id="g17" /><g
     id="g19" /><g
     id="g21" /><g
     id="g23" /><g
     id="g25" /><g
     id="g27" /><g
     id="g29" /><g
     id="g31" /><g
     id="g33" /><g
     id="g35" /><g
     id="g37" /></svg>