<?xml version="1.0" encoding="UTF-8" standalone="no"?>
<!-- Generator: Adobe Illustrator 18.0.0, SVG Export Plug-In . SVG Version: 6.00 Build 0)  -->

<svg
   xmlns:dc="http://purl.org/dc/elements/1.1/"
   xmlns:cc="http://creativecommons.org/ns#"
   xmlns:rdf="http://www.w3.org/1999/02/22-rdf-syntax-ns#"
   xmlns:svg="http://www.w3.org/2000/svg"
   xmlns="http://www.w3.org/2000/svg"
   xmlns:sodipodi="http://sodipodi.sourceforge.net/DTD/sodipodi-0.dtd"
   xmlns:inkscape="http://www.inkscape.org/namespaces/inkscape"
   version="1.1"
   id="Capa_1"
   x="0px"
   y="0px"
   viewBox="0 0 303.745 303.745"
   style="enable-background:new 0 0 303.745 303.745;"
   xml:space="preserve"
   inkscape:version="0.91 r13725"
   sodipodi:docname="pedunculate.svg"><metadata
     id="metadata41"><rdf:RDF><cc:Work
         rdf:about=""><dc:format>image/svg+xml</dc:format><dc:type
           rdf:resource="http://purl.org/dc/dcmitype/StillImage" /></cc:Work></rdf:RDF></metadata><defs
     id="defs39" /><sodipodi:namedview
     pagecolor="#ffffff"
     bordercolor="#666666"
     borderopacity="1"
     objecttolerance="10"
     gridtolerance="10"
     guidetolerance="10"
     inkscape:pageopacity="0"
     inkscape:pageshadow="2"
     inkscape:window-width="690"
     inkscape:window-height="480"
     id="namedview37"
     showgrid="false"
     inkscape:zoom="0.77696753"
     inkscape:cx="151.8725"
     inkscape:cy="151.8725"
     inkscape:window-x="284"
     inkscape:window-y="109"
     inkscape:window-maximized="0"
     inkscape:current-layer="Capa_1" /><g
     id="g3"
     transform="matrix(0,1,-1,0,303.74291,-0.00208143)"><path
       d="m 234.062,111.326 c -1.056,-7.685 -4.979,-14.425 -11.051,-18.979 -4.313,-3.235 -9.303,-5.125 -14.416,-5.637 l 5.425,-7.077 c 9.713,-12.67 7.618,-30.873 -4.669,-40.576 -8.327,-6.576 -19.34,-7.821 -28.664,-4.082 l 0,-6.164 c 0,-15.59 -12.677,-28.513 -28.259,-28.809 -7.685,-0.13 -14.925,2.781 -20.488,8.24 -5.645,5.539 -8.882,13.223 -8.882,21.083 l 0,5.649 c -9.323,-3.738 -20.339,-2.493 -28.664,4.082 -12.287,9.703 -14.382,27.905 -4.669,40.576 l 5.425,7.077 c -5.112,0.513 -10.104,2.402 -14.416,5.637 -6.071,4.555 -9.995,11.295 -11.051,18.979 -1.071,7.795 1.035,15.815 5.778,22.002 l 16.322,21.291 c -0.255,0.189 -0.507,0.383 -0.755,0.581 -12.206,9.716 -14.276,27.874 -4.615,40.476 l 20.903,27.265 c -2.136,3.668 -3.431,7.77 -3.792,12.077 -1.292,15.412 10.395,29.358 26.052,31.089 5.012,0.554 10.05,0.904 15.094,1.083 -1.885,9.724 -5.956,19.008 -11.931,26.945 -1.992,2.647 -1.462,6.41 1.186,8.402 1.081,0.813 2.348,1.207 3.604,1.207 1.82,0 3.619,-0.826 4.799,-2.392 7.521,-9.992 12.506,-21.782 14.527,-34.087 5.787,-0.142 11.568,-0.523 17.316,-1.159 l 0.5,-0.055 c 7.649,-0.846 14.513,-4.62 19.324,-10.627 4.812,-6.007 6.995,-13.529 6.149,-21.179 -0.445,-4.021 -1.713,-7.857 -3.718,-11.303 l 20.904,-27.267 c 9.661,-12.602 7.591,-30.76 -4.614,-40.476 -0.249,-0.198 -0.501,-0.392 -0.756,-0.582 l 16.322,-21.291 c 4.745,-6.184 6.851,-14.203 5.78,-21.999 z m -15.302,14.702 -20.533,26.783 c -1.15,1.5 -1.526,3.454 -1.015,5.274 0.511,1.82 1.851,3.292 3.614,3.973 1.597,0.617 3.082,1.468 4.417,2.531 7.122,5.67 8.272,16.34 2.564,23.787 l -23.57,30.744 c -1.711,2.231 -1.643,5.351 0.164,7.506 2.131,2.54 3.449,5.631 3.815,8.94 0.494,4.464 -0.78,8.853 -3.588,12.358 -2.808,3.506 -6.813,5.708 -11.273,6.201 l -0.5,0.055 c -4.978,0.551 -9.981,0.896 -14.991,1.052 0,-0.127 0.008,-0.253 0.008,-0.38 l 0,-19.252 8.339,0 c 3.313,0 6,-2.687 6,-6 0,-3.313 -2.687,-6 -6,-6 l -8.339,0 0,-24.031 26.096,-18.088 c 2.724,-1.888 3.401,-5.626 1.514,-8.349 -1.89,-2.724 -5.629,-3.401 -8.35,-1.513 l -19.26,13.35 0,-38.219 26.096,-18.089 c 2.724,-1.888 3.401,-5.626 1.514,-8.349 -1.89,-2.725 -5.629,-3.4 -8.35,-1.513 l -19.26,13.35 0,-33.358 26.096,-18.089 c 2.724,-1.888 3.401,-5.626 1.514,-8.349 -1.89,-2.724 -5.629,-3.401 -8.35,-1.513 l -19.26,13.35 0,-44.033 c 0,-3.313 -2.687,-6 -6,-6 -3.313,0 -6,2.687 -6,6 l 0,44.033 -19.26,-13.35 c -2.722,-1.888 -6.461,-1.212 -8.35,1.513 -1.888,2.723 -1.21,6.461 1.514,8.349 l 26.096,18.089 0,33.356 -19.26,-13.35 c -2.722,-1.887 -6.461,-1.212 -8.35,1.513 -1.888,2.723 -1.21,6.461 1.514,8.349 l 26.096,18.089 0,38.219 -19.26,-13.35 c -2.722,-1.888 -6.462,-1.212 -8.35,1.513 -1.888,2.723 -1.21,6.461 1.514,8.349 l 26.096,18.088 0,24.031 -8.339,0 c -3.313,0 -6,2.687 -6,6 0,3.313 2.687,6 6,6 l 8.339,0 0,19.252 c 0,0.127 -0.007,0.253 -0.008,0.38 -5.003,-0.157 -9.999,-0.501 -14.97,-1.051 -9.252,-1.022 -16.165,-9.169 -15.411,-18.159 0.292,-3.484 1.626,-6.733 3.859,-9.396 1.807,-2.154 1.875,-5.274 0.164,-7.505 l -23.57,-30.744 c -5.708,-7.446 -4.558,-18.117 2.565,-23.787 1.334,-1.062 2.819,-1.913 4.416,-2.53 1.764,-0.681 3.103,-2.153 3.614,-3.973 0.511,-1.82 0.136,-3.774 -1.015,-5.274 L 84.983,126.028 c -2.808,-3.662 -4.052,-8.425 -3.414,-13.068 0.616,-4.486 2.877,-8.397 6.364,-11.014 5.46,-4.097 12.788,-4.492 18.667,-1.007 2.477,1.467 5.639,0.971 7.547,-1.179 1.908,-2.15 2.023,-5.352 0.274,-7.633 L 99.248,72.333 c -5.745,-7.494 -4.586,-18.196 2.583,-23.857 6.877,-5.431 16.895,-4.634 22.803,1.815 1.671,1.824 4.292,2.436 6.599,1.539 2.306,-0.897 3.825,-3.118 3.825,-5.592 l 0,-16.911 c 0,-4.659 1.927,-9.221 5.286,-12.517 3.245,-3.184 7.485,-4.885 11.856,-4.808 9.091,0.172 16.486,7.713 16.486,16.811 l 0,17.425 c 0,2.475 1.52,4.695 3.825,5.592 2.303,0.896 4.926,0.286 6.599,-1.539 5.908,-6.448 15.925,-7.247 22.803,-1.815 7.169,5.661 8.328,16.363 2.583,23.857 l -15.175,19.793 c -1.749,2.281 -1.634,5.483 0.274,7.633 1.908,2.15 5.074,2.646 7.547,1.179 5.881,-3.486 13.207,-3.089 18.667,1.007 3.487,2.617 5.748,6.528 6.364,11.014 0.639,4.643 -0.605,9.406 -3.413,13.069 z"
       id="path5"
       inkscape:connector-curvature="0" /></g><g
     id="g7" /><g
     id="g9" /><g
     id="g11" /><g
     id="g13" /><g
     id="g15" /><g
     id="g17" /><g
     id="g19" /><g
     id="g21" /><g
     id="g23" /><g
     id="g25" /><g
     id="g27" /><g
     id="g29" /><g
     id="g31" /><g
     id="g33" /><g
     id="g35" /></svg>