<?xml version="1.0" encoding="UTF-8" standalone="no"?>
<!-- Generator: Adobe Illustrator 18.0.0, SVG Export Plug-In . SVG Version: 6.00 Build 0)  -->

<svg
   xmlns:dc="http://purl.org/dc/elements/1.1/"
   xmlns:cc="http://creativecommons.org/ns#"
   xmlns:rdf="http://www.w3.org/1999/02/22-rdf-syntax-ns#"
   xmlns:svg="http://www.w3.org/2000/svg"
   xmlns="http://www.w3.org/2000/svg"
   xmlns:sodipodi="http://sodipodi.sourceforge.net/DTD/sodipodi-0.dtd"
   xmlns:inkscape="http://www.inkscape.org/namespaces/inkscape"
   version="1.1"
   id="Capa_1"
   x="0px"
   y="0px"
   viewBox="0 0 301.432 301.432"
   style="enable-background:new 0 0 301.432 301.432;"
   xml:space="preserve"
   inkscape:version="0.91 r13725"
   sodipodi:docname="pine-needle.svg"><metadata
     id="metadata45"><rdf:RDF><cc:Work
         rdf:about=""><dc:format>image/svg+xml</dc:format><dc:type
           rdf:resource="http://purl.org/dc/dcmitype/StillImage" /></cc:Work></rdf:RDF></metadata><defs
     id="defs43" /><sodipodi:namedview
     pagecolor="#ffffff"
     bordercolor="#666666"
     borderopacity="1"
     objecttolerance="10"
     gridtolerance="10"
     guidetolerance="10"
     inkscape:pageopacity="0"
     inkscape:pageshadow="2"
     inkscape:window-width="690"
     inkscape:window-height="480"
     id="namedview41"
     showgrid="false"
     inkscape:zoom="0.78292947"
     inkscape:cx="150.716"
     inkscape:cy="150.716"
     inkscape:window-x="477"
     inkscape:window-y="79"
     inkscape:window-maximized="0"
     inkscape:current-layer="Capa_1" /><g
     id="g3"
     transform="matrix(0,1,-1,0,301.43129,7.0507615e-4)"><path
       d="m 263.505,93.118 c -2.641,-1.999 -6.404,-1.482 -8.406,1.16 l -72.564,95.789 49.914,-103.069 c 1.444,-2.982 0.198,-6.571 -2.785,-8.015 -2.983,-1.445 -6.571,-0.197 -8.015,2.785 L 180.94,165.83 212.569,65.165 c 0.993,-3.161 -0.764,-6.529 -3.926,-7.522 -3.159,-0.993 -6.529,0.764 -7.522,3.926 L 171.318,156.423 192.6,30.944 c 0.554,-3.267 -1.645,-6.365 -4.912,-6.919 -3.271,-0.554 -6.365,1.645 -6.919,4.912 l -24.053,141.813 0,-115.834 0,-48.916 c 0,-3.314 -2.686,-6 -6,-6 -3.314,0 -6,2.686 -6,6 l 0,48.916 0,115.835 -24.053,-141.813 c -0.554,-3.267 -3.649,-5.468 -6.919,-4.912 -3.267,0.554 -5.466,3.652 -4.912,6.919 L 130.114,156.424 100.311,61.57 c -0.993,-3.161 -4.36,-4.92 -7.522,-3.926 -3.162,0.993 -4.919,4.361 -3.926,7.522 l 31.629,100.665 -40.71,-84.064 c -1.444,-2.982 -5.031,-4.23 -8.015,-2.785 -2.982,1.444 -4.229,5.033 -2.785,8.015 L 118.896,190.066 46.332,94.278 c -2.001,-2.641 -5.765,-3.16 -8.406,-1.16 -2.641,2.001 -3.161,5.764 -1.16,8.406 l 73.781,97.396 -52.693,-46.068 c -2.495,-2.181 -6.285,-1.926 -8.466,0.568 -2.181,2.495 -1.927,6.285 0.568,8.466 l 80.232,70.145 c -0.023,0.211 -0.036,0.426 -0.036,0.643 l 0,11.999 c -2.732,0.561 -4.786,2.979 -4.786,5.877 0,2.898 2.055,5.316 4.786,5.877 l 0,6.065 c -2.732,0.561 -4.786,2.979 -4.786,5.877 0,2.898 2.055,5.316 4.786,5.877 l 0,8.615 c 0,10.24 8.331,18.571 18.571,18.571 l 3.983,0 c 10.24,0 18.571,-8.331 18.571,-18.571 l 0,-8.615 c 2.732,-0.561 4.786,-2.979 4.786,-5.877 0,-2.898 -2.055,-5.316 -4.786,-5.877 l 0,-6.065 c 2.732,-0.561 4.786,-2.979 4.786,-5.877 0,-2.898 -2.055,-5.316 -4.786,-5.877 l 0,-11.999 c 0,-0.217 -0.013,-0.432 -0.036,-0.643 l 80.232,-70.145 c 2.495,-2.181 2.749,-5.972 0.568,-8.466 -2.181,-2.495 -5.972,-2.748 -8.466,-0.568 l -52.693,46.068 73.781,-97.396 c 2.003,-2.642 1.483,-6.405 -1.158,-8.406 z M 159.278,282.86 c 0,3.624 -2.948,6.571 -6.571,6.571 l -3.983,0 c -3.623,0 -6.571,-2.948 -6.571,-6.571 l 0,-44.187 17.125,0 0,44.187 z"
       id="path5"
       inkscape:connector-curvature="0" /><path
       d="m 150.716,247.466 c -3.313,0 -6,2.687 -6,6 l 0,2.917 c 0,3.313 2.687,6 6,6 3.313,0 6,-2.687 6,-6 l 0,-2.917 c 0,-3.314 -2.687,-6 -6,-6 z"
       id="path7"
       inkscape:connector-curvature="0" /><path
       d="m 150.716,266.132 c -3.313,0 -6,2.687 -6,6 l 0,2.917 c 0,3.313 2.687,6 6,6 3.313,0 6,-2.687 6,-6 l 0,-2.917 c 0,-3.313 -2.687,-6 -6,-6 z"
       id="path9"
       inkscape:connector-curvature="0" /></g><g
     id="g11" /><g
     id="g13" /><g
     id="g15" /><g
     id="g17" /><g
     id="g19" /><g
     id="g21" /><g
     id="g23" /><g
     id="g25" /><g
     id="g27" /><g
     id="g29" /><g
     id="g31" /><g
     id="g33" /><g
     id="g35" /><g
     id="g37" /><g
     id="g39" /></svg>