<?xml version="1.0" encoding="UTF-8" standalone="no"?>
<!-- Generator: Adobe Illustrator 18.0.0, SVG Export Plug-In . SVG Version: 6.00 Build 0)  -->

<svg
   xmlns:dc="http://purl.org/dc/elements/1.1/"
   xmlns:cc="http://creativecommons.org/ns#"
   xmlns:rdf="http://www.w3.org/1999/02/22-rdf-syntax-ns#"
   xmlns:svg="http://www.w3.org/2000/svg"
   xmlns="http://www.w3.org/2000/svg"
   xmlns:sodipodi="http://sodipodi.sourceforge.net/DTD/sodipodi-0.dtd"
   xmlns:inkscape="http://www.inkscape.org/namespaces/inkscape"
   version="1.1"
   id="Capa_1"
   x="0px"
   y="0px"
   viewBox="0 0 198 198"
   style="enable-background:new 0 0 198 198;"
   xml:space="preserve"
   inkscape:version="0.91 r13725"
   sodipodi:docname="trifoliate-ternate.svg"><metadata
     id="metadata41"><rdf:RDF><cc:Work
         rdf:about=""><dc:format>image/svg+xml</dc:format><dc:type
           rdf:resource="http://purl.org/dc/dcmitype/StillImage" /></cc:Work></rdf:RDF></metadata><defs
     id="defs39" /><sodipodi:namedview
     pagecolor="#ffffff"
     bordercolor="#666666"
     borderopacity="1"
     objecttolerance="10"
     gridtolerance="10"
     guidetolerance="10"
     inkscape:pageopacity="0"
     inkscape:pageshadow="2"
     inkscape:window-width="690"
     inkscape:window-height="480"
     id="namedview37"
     showgrid="false"
     inkscape:zoom="1.1919192"
     inkscape:cx="99"
     inkscape:cy="99"
     inkscape:window-x="64"
     inkscape:window-y="502"
     inkscape:window-maximized="0"
     inkscape:current-layer="Capa_1" /><g
     id="g3"
     transform="matrix(0,1,-1,0,198,0)"><path
       d="m 198,94.739 c 0,-15.988 -13.008,-28.996 -28.996,-28.996 -5.896,0 -11.571,1.76 -16.413,5.09 l -44.952,30.908 c -1.003,0.69 -1.878,1.515 -2.639,2.427 l 0,-1.815 c 1.95,-0.995 3.649,-2.462 4.903,-4.318 l 30.875,-44.902 c 0.051,-0.074 0.101,-0.149 0.148,-0.225 3.234,-4.797 4.942,-10.388 4.942,-16.188 0,-15.988 -13.008,-28.996 -28.996,-28.996 -6.571,0 -12.823,2.192 -17.874,6.155 C 93.945,9.918 87.687,7.724 81.128,7.724 65.14,7.724 52.132,20.732 52.132,36.72 c 0,5.896 1.76,11.571 5.09,16.413 L 88.13,98.084 c 1.262,1.834 2.946,3.282 4.87,4.266 l 0,1.811 c -0.775,-0.927 -1.667,-1.763 -2.689,-2.453 L 45.409,70.833 C 45.335,70.782 45.26,70.732 45.184,70.685 40.387,67.451 34.796,65.743 28.996,65.743 13.008,65.743 0,78.751 0,94.74 0,101.311 2.192,107.563 6.155,112.614 2.194,117.666 0,123.924 0,130.483 c 0,15.988 13.008,28.996 28.996,28.996 5.895,0 11.57,-1.76 16.413,-5.09 L 90.361,123.48 c 1.003,-0.69 1.878,-1.515 2.639,-2.427 l 0,11.437 c 0,17.03 -3.068,33.735 -9.12,49.652 -1.178,3.098 0.379,6.563 3.476,7.741 0.702,0.267 1.422,0.393 2.131,0.393 2.419,0 4.699,-1.474 5.609,-3.869 6.571,-17.284 9.903,-35.424 9.903,-53.917 l 0,-11.43 c 0.775,0.927 1.667,1.763 2.689,2.453 l 44.902,30.875 c 0.071,0.049 0.144,0.097 0.216,0.142 4.799,3.238 10.394,4.948 16.197,4.948 15.988,0 28.996,-13.008 28.996,-28.996 0,-6.571 -2.192,-12.823 -6.155,-17.873 3.963,-5.053 6.156,-11.31 6.156,-17.87 z M 67.11,46.334 c -1.948,-2.833 -2.978,-6.157 -2.978,-9.614 0,-9.372 7.625,-16.996 16.996,-16.996 5.091,0 9.872,2.255 13.06,6.117 l 0.125,0.156 c 1.134,1.418 2.85,2.246 4.666,2.252 0.006,0 0.013,0 0.02,0 1.809,0 3.521,-0.816 4.661,-2.222 3.248,-4.006 8.063,-6.303 13.212,-6.303 9.372,0 16.996,7.625 16.996,16.996 0,3.452 -1.032,6.776 -2.983,9.613 -0.046,0.067 -0.09,0.134 -0.133,0.203 L 99.987,91.278 C 99.88,91.436 99.57,91.804 99,91.804 c -0.564,0 -0.875,-0.363 -0.982,-0.519 L 67.11,46.334 Z m 16.451,67.259 -44.951,30.908 c -2.833,1.948 -6.158,2.978 -9.614,2.978 -9.372,0 -16.996,-7.625 -16.996,-16.996 0,-5.091 2.255,-9.872 6.117,-13.06 l 0.156,-0.125 c 1.418,-1.134 2.246,-2.85 2.252,-4.666 0.006,-1.816 -0.811,-3.537 -2.222,-4.68 C 14.297,104.704 12,99.888 12,94.74 c 0,-9.372 7.625,-16.996 16.996,-16.996 3.452,0 6.776,1.032 9.613,2.983 0.067,0.046 0.134,0.09 0.203,0.133 l 44.741,30.764 c 0.158,0.107 0.526,0.417 0.526,0.987 0.001,0.564 -0.363,0.875 -0.518,0.982 z m 96.136,3.678 c 4.006,3.247 6.303,8.063 6.303,13.211 0,9.372 -7.625,16.996 -16.996,16.996 -3.452,0 -6.776,-1.031 -9.614,-2.983 -0.063,-0.044 -0.128,-0.086 -0.193,-0.127 l -44.75,-30.77 c -0.158,-0.107 -0.526,-0.417 -0.526,-0.987 0,-0.564 0.363,-0.875 0.519,-0.982 l 44.951,-30.908 c 2.833,-1.948 6.157,-2.978 9.614,-2.978 9.372,0 16.996,7.625 16.996,16.996 0,5.091 -2.255,9.872 -6.126,13.067 l -0.156,0.125 c -1.414,1.136 -2.239,2.851 -2.243,4.665 -0.004,1.814 0.812,3.532 2.221,4.675 z"
       id="path5"
       inkscape:connector-curvature="0" /></g><g
     id="g7" /><g
     id="g9" /><g
     id="g11" /><g
     id="g13" /><g
     id="g15" /><g
     id="g17" /><g
     id="g19" /><g
     id="g21" /><g
     id="g23" /><g
     id="g25" /><g
     id="g27" /><g
     id="g29" /><g
     id="g31" /><g
     id="g33" /><g
     id="g35" /></svg>