<?xml version="1.0" encoding="UTF-8" standalone="no"?>
<!-- Created with Inkscape (http://www.inkscape.org/) -->

<svg
   xmlns:dc="http://purl.org/dc/elements/1.1/"
   xmlns:cc="http://creativecommons.org/ns#"
   xmlns:rdf="http://www.w3.org/1999/02/22-rdf-syntax-ns#"
   xmlns:svg="http://www.w3.org/2000/svg"
   xmlns="http://www.w3.org/2000/svg"
   xmlns:sodipodi="http://sodipodi.sourceforge.net/DTD/sodipodi-0.dtd"
   xmlns:inkscape="http://www.inkscape.org/namespaces/inkscape"
   width="52"
   height="52"
   viewBox="0 0 51.999997 51.999997"
   id="svg2"
   version="1.1"
   inkscape:version="0.91 r13725"
   sodipodi:docname="NewChainedNodes.svg">
  <defs
     id="defs4">
    <inkscape:perspective
       sodipodi:type="inkscape:persp3d"
       inkscape:vp_x="0 : 526.18106 : 1"
       inkscape:vp_y="0 : 999.99993 : 0"
       inkscape:vp_z="744.09444 : 526.18106 : 1"
       inkscape:persp3d-origin="372.04722 : 350.78738 : 1"
       id="perspective4180" />
  </defs>
  <sodipodi:namedview
     id="base"
     pagecolor="#433b43"
     bordercolor="#666666"
     borderopacity="1.0"
     inkscape:pageopacity="0"
     inkscape:pageshadow="2"
     inkscape:zoom="11.313708"
     inkscape:cx="19.783262"
     inkscape:cy="26.655016"
     inkscape:document-units="px"
     inkscape:current-layer="layer1"
     showgrid="false"
     inkscape:window-width="1920"
     inkscape:window-height="1018"
     inkscape:window-x="-8"
     inkscape:window-y="-8"
     inkscape:window-maximized="1"
     units="px" />
  <metadata
     id="metadata7">
    <rdf:RDF>
      <cc:Work
         rdf:about="">
        <dc:format>image/svg+xml</dc:format>
        <dc:type
           rdf:resource="http://purl.org/dc/dcmitype/StillImage" />
        <dc:title></dc:title>
      </cc:Work>
    </rdf:RDF>
  </metadata>
  <g
     inkscape:label="Layer 1"
     inkscape:groupmode="layer"
     id="layer1"
     transform="translate(0,-1000.3622)">
    <path
       id="rect5932-3-4-80-4-6-7"
       style="opacity:1;fill:#ffffff;fill-opacity:1;stroke:#69ffff;stroke-width:0;stroke-linecap:butt;stroke-linejoin:miter;stroke-miterlimit:4;stroke-dasharray:none;stroke-dashoffset:0;stroke-opacity:1"
       d="m 32.471243,1028.1331 1.4321,1.4432 -5.5146,5.5147 c -0.043,0.043 -0.043,0.114 0,0.1574 l 1.3424,1.3424 c 0.043,0.043 0.114,0.043 0.1575,0 l 5.509,-5.5091 1.2996,1.3106 2.1214,-6.3639 -6.3474,2.1047 z m -12.329156,0.8347 -1.881395,0.7708 -2.984477,-7.2052 c -0.02374,-0.056 -0.08602,-0.086 -0.145275,-0.06 l -1.753989,0.7265 c -0.05622,0.023 -0.08374,0.089 -0.06025,0.1455 l 2.98153,7.1979 -1.708183,0.6991 5.067685,4.3953 0.484519,-6.6697 z m -9.904645,-25.2763 a 8.9999944,8.9999944 0 0 0 -9.0000002,9 8.9999944,8.9999944 0 0 0 9.0000002,9 8.9999944,8.9999944 0 0 0 9,-9 8.9999944,8.9999944 0 0 0 -9,-9 z m 0,2 a 6.9999946,6.9999951 0 0 1 7,7 6.9999946,6.9999951 0 0 1 -7,7 6.9999946,6.9999951 0 0 1 -7.0000002,-7 6.9999946,6.9999951 0 0 1 7.0000002,-7 z m 19.117078,36.9597 a 6.2673926,6.4300647 0 0 1 -6.267392,6.4301 6.2673926,6.4300647 0 0 1 -6.267393,-6.4301 6.2673926,6.4300647 0 0 1 6.267393,-6.43 6.2673926,6.4300647 0 0 1 6.267392,6.43 z m 21.655144,-22.852 a 6.2673926,6.4300647 0 0 1 -6.267393,6.4301 6.2673926,6.4300647 0 0 1 -6.267392,-6.4301 6.2673926,6.4300647 0 0 1 6.267392,-6.4301 6.2673926,6.4300647 0 0 1 6.267393,6.4301 z m -35.772232,-7.1077 a 4.9999952,4.9999952 0 0 1 -4.999995,5 4.9999952,4.9999952 0 0 1 -4.999995,-5 4.9999952,4.9999952 0 0 1 4.999995,-5 4.9999952,4.9999952 0 0 1 4.999995,5 z" />
  </g>
</svg>
