<?xml version='1.0' encoding='iso-8859-1'?>
<svg version="1.1" xmlns="http://www.w3.org/2000/svg" viewBox="0 0 462.999 462.999" xmlns:xlink="http://www.w3.org/1999/xlink" enable-background="new 0 0 462.999 462.999">
  <path d="m430.912,246.365c-11.335-74.115-85.438-137.969-139.547-184.593-15.57-13.417-29.018-25.004-38.659-34.85-12.371-12.633-13.707-17.791-13.707-19.422 0-4.142-3.357-7.5-7.5-7.5s-7.5,3.358-7.5,7.5c0,1.631-1.336,6.789-13.707,19.422-9.642,9.846-23.089,21.433-38.659,34.85-54.108,46.624-128.212,110.478-139.547,184.593-6.126,40.053 5.114,82.456 29.332,110.66 19.085,22.226 44.702,33.974 74.081,33.974 31.733,0 55.259-16.017 72.436-27.712 5.774-3.931 11.347-7.725 16.064-10.032v102.244c0,4.142 3.357,7.5 7.5,7.5s7.5-3.358 7.5-7.5v-102.244c4.717,2.307 10.29,6.1 16.064,10.032 17.177,11.695 40.702,27.712 72.436,27.712 29.379,0 54.996-11.748 74.081-33.974 24.218-28.204 35.458-70.607 29.332-110.66zm-231.419,104.522c-16.433,11.188-36.883,25.111-63.994,25.111-24.871,0-46.553-9.94-62.701-28.746-21.124-24.601-31.284-63.312-25.884-98.62 10.497-68.637 82.174-130.4 134.51-175.497 18.669-16.087 32.915-28.543 42.575-38.883v185.141l-56.165-64.806c-2.713-3.131-7.45-3.469-10.58-0.755-3.13,2.712-3.469,7.449-0.756,10.58l67.501,77.886v81.096l-104.698-120.807c-2.714-3.131-7.45-3.469-10.58-0.755-3.13,2.712-3.469,7.449-0.756,10.58l110.114,127.054c-5.879,2.77-11.979,6.923-18.586,11.421zm190.707-3.634c-16.148,18.806-37.83,28.746-62.701,28.746-27.111,0-47.562-13.923-63.994-25.111-6.607-4.498-12.706-8.651-18.585-11.421l110.114-127.054c2.713-3.13 2.374-7.867-0.756-10.58-3.13-2.713-7.866-2.375-10.58,0.755l-104.699,120.805v-81.096l67.501-77.886c2.713-3.13 2.374-7.867-0.756-10.58-3.13-2.713-7.867-2.375-10.58,0.755l-56.165,64.806v-185.14c9.661,10.34 23.906,22.797 42.575,38.883 52.336,45.097 124.013,106.86 134.51,175.497 5.401,35.309-4.76,74.02-25.884,98.621z"/>
</svg>
