<?xml version='1.0' encoding='iso-8859-1'?>
<svg version="1.1" xmlns="http://www.w3.org/2000/svg" viewBox="0 0 463.004 463.004" xmlns:xlink="http://www.w3.org/1999/xlink" enable-background="new 0 0 463.004 463.004">
  <path d="m455.151,327.177c-61.621,2.881-116.093,24.061-151.573,42.671 32.77-22.679 82.98-51.27 145.833-67.822 4.006-1.055 6.397-5.157 5.343-9.163-1.056-4.005-5.153-6.4-9.163-5.343-43.394,11.428-80.68,28.371-109.7,44.5 36.578-29.5 81.609-60.928 122.529-78.213 3.815-1.612 5.602-6.012 3.99-9.827-1.613-3.816-6.013-5.604-9.828-3.99-49.925,21.089-103.942,62.231-131.697,84.879-14.943,12.193-30.791,26.034-43.874,38.464 27.988-42.07 83.382-111.875 174.712-174.069 3.424-2.332 4.309-6.997 1.978-10.421-2.332-3.423-6.997-4.31-10.421-1.978-72.618,49.452-122.466,103.441-152.376,141.577 25.842-41.605 70.1-98.682 145.735-169.811 3.018-2.837 3.163-7.584 0.326-10.602-2.84-3.019-7.587-3.162-10.602-0.325-152.622,143.526-180.46,231.569-185.339,254.297h-0.583c2.981-13.733 10.775-44.884 27.384-85.806 20.875-51.432 60.245-128.902 129.261-205.896 2.765-3.084 2.506-7.826-0.579-10.591-3.084-2.765-7.825-2.504-10.591,0.579-52.908,59.024-88.76,118.345-112.365,166.48 17.474-52.645 44.457-117.125 84.072-173.1 2.393-3.381 1.592-8.062-1.789-10.455-3.383-2.393-8.062-1.591-10.455,1.79-39.476,55.779-66.644,119.569-84.516,172.432 10.776-56.325 26.639-126.194 49.839-205.899 1.157-3.977-1.128-8.14-5.105-9.297-3.976-1.156-8.139,1.129-9.297,5.105-19.301,66.309-33.563,125.91-44.064,176.681 5.8-74.236 12.648-152.694 18.698-197.519 0.554-4.104-2.324-7.881-6.43-8.436-4.093-0.554-7.882,2.324-8.436,6.43-8.274,61.305-18.014,184.887-24.567,275.262-6.553-90.375-16.293-213.958-24.567-275.262-0.554-4.105-4.332-6.981-8.436-6.43-4.105,0.554-6.983,4.331-6.43,8.436 6.05,44.824 12.898,123.282 18.698,197.519-10.501-50.771-24.764-110.371-44.064-176.68-1.157-3.976-5.32-6.26-9.297-5.105-3.978,1.158-6.263,5.32-5.105,9.297 23.651,81.253 39.501,151.802 49.921,206.142-17.871-52.911-45.061-116.81-84.598-172.675-2.394-3.381-7.072-4.183-10.455-1.79-3.381,2.393-4.182,7.074-1.789,10.455 39.627,55.992 66.608,120.484 84.073,173.1-23.606-48.135-59.458-107.456-112.366-166.48-2.766-3.085-7.507-3.344-10.591-0.579-3.085,2.765-3.344,7.507-0.579,10.591 68.857,76.818 108.192,154.105 129.064,205.414 16.705,41.065 24.571,72.477 27.576,86.289h-0.579c-4.877-22.729-32.715-110.772-185.337-254.297-3.017-2.838-7.764-2.693-10.602,0.325-2.837,3.018-2.691,7.764 0.326,10.602 45.254,42.558 105.602,105.212 145.734,169.81-29.91-38.136-79.757-92.124-152.375-141.576-3.422-2.33-8.09-1.446-10.421,1.978s-1.446,8.089 1.978,10.421c73.882,50.312 123.617,105.372 152.33,142.702 8.927,11.606 16.425,22.258 22.592,31.565-13.123-12.481-29.062-26.405-44.084-38.662-27.755-22.647-81.772-63.79-131.697-84.879-3.815-1.613-8.216,0.174-9.828,3.99-1.611,3.815 0.175,8.215 3.99,9.827 40.931,17.29 85.968,48.724 122.549,78.224-29.023-16.131-66.318-33.081-109.72-44.511-4.006-1.056-8.107,1.336-9.163,5.343-1.055,4.006 1.337,8.108 5.343,9.163 62.854,16.553 113.064,45.144 145.834,67.822-35.48-18.61-89.951-39.79-151.573-42.672-4.17-0.21-7.648,3.003-7.843,7.142-0.193,4.137 3.004,7.648 7.142,7.842 80.331,3.756 147.69,39.784 173.841,57.937-2.034,3.745-2.459,8.215-1.096,12.306l7.021,21.059c4.294,12.883 16.303,21.539 29.883,21.539h29.404c13.58,0 25.589-8.656 29.883-21.539l7.021-21.06c1.364-4.09 0.938-8.561-1.096-12.306 26.151-18.153 93.51-54.181 173.841-57.937 4.138-0.193 7.335-3.705 7.142-7.842-0.195-4.138-3.707-7.351-7.845-7.142zm-258.243,88.825l-2.781-8.342c-0.026-0.079-0.081-0.243 0.068-0.451 0.15-0.208 0.323-0.208 0.406-0.208h73.801c0.083,0 0.256,0 0.406,0.208 0.149,0.208 0.095,0.372 0.068,0.45l-2.781,8.342h-69.187zm49.296,24.001h-29.404c-6.277,0-11.908-3.533-14.692-9h58.788c-2.784,5.467-8.415,9-14.692,9z"/>
</svg>
