<?xml version='1.0' encoding='iso-8859-1'?>
<svg version="1.1" xmlns="http://www.w3.org/2000/svg" viewBox="0 0 463 463" xmlns:xlink="http://www.w3.org/1999/xlink" enable-background="new 0 0 463 463">
  <path d="m343,263.485c-0.004-116.23-45.995-171.394-76.43-207.897-16.006-19.198-27.57-33.068-27.57-48.088 0-4.142-3.358-7.5-7.5-7.5s-7.5,3.358-7.5,7.5c0,15.02-11.564,28.89-27.57,48.088-30.435,36.505-76.429,91.671-76.43,207.909 0,0.002 0,0.004 0,0.006 0,46.464 10.449,86.205 31.055,118.118 17.521,27.137 38.83,43.709 54.388,55.81 8.698,6.764 18.557,14.432 18.557,18.069 0,4.142 3.358,7.5 7.5,7.5h0c4.142,0 7.5-3.358 7.5-7.5v-0.006c0.01-3.639 9.863-11.302 18.556-18.063 15.559-12.101 36.867-28.673 54.389-55.81 20.605-31.911 31.053-71.647 31.055-118.106 0-0.01 0-0.02 0-0.03zm-19.684,49.592l-84.316,84.317v-26.787l88.385-88.385c-0.742,11.102-2.138,21.361-4.069,30.855zm-170.959-158.113l71.643,71.642v26.787l-78.122-78.122c1.96-7.143 4.132-13.902 6.479-20.307zm14.993-33.008l56.65,56.65v26.787l-65.529-65.529c2.815-6.33 5.793-12.282 8.879-17.908zm18.847-29.153l37.803,37.803v26.787l-48.78-48.78c3.567-5.645 7.211-10.936 10.865-15.934 0.039,0.041 0.073,0.085 0.112,0.124zm90.718-.123c3.654,4.998 7.299,10.289 10.865,15.934l-48.78,48.78v-26.787l37.803-37.803c0.04-0.04 0.073-0.084 0.112-0.124zm27.614,47.185l-65.529,65.529v-26.787l56.65-56.65c3.087,5.625 6.064,11.577 8.879,17.908zm23.452,120.548l-88.981,88.981v-26.787l87.982-87.982c0.595,8.209 0.935,16.8 0.999,25.788zm-2.926-45.074l-86.055,86.055v-26.787l82.222-82.222c1.506,7.277 2.797,14.916 3.833,22.954zm-7.934-40.067l-78.121,78.122v-26.787l71.643-71.643c2.347,6.406 4.519,13.165 6.478,20.308zm-93.121,99.334v26.787l-86.055-86.055c1.036-8.039 2.327-15.677 3.833-22.955l82.222,82.223zm0,48v26.787l-88.982-88.981c0.064-8.987 0.405-17.578 0.999-25.788l87.983,87.982zm-88.385-40.385l88.385,88.385v26.787l-84.317-84.317c-1.93-9.494-3.326-19.753-4.068-30.855zm132.312-201.312c-0.62,0.336-1.205,0.763-1.729,1.288l-27.198,27.197v-26.788l16.669-16.669c3.944,4.732 8.066,9.691 12.258,14.972zm-21.846-26.596l-7.08,7.08v-16.257c2.191,3.008 4.567,6.057 7.08,9.177zm-22.081,7.081l-7.08-7.08c2.513-3.12 4.888-6.169 7.08-9.177v16.257zm-16.669,4.544l16.669,16.668v26.787l-27.197-27.197c-0.525-0.524-1.109-0.951-1.73-1.288 4.192-5.281 8.314-10.24 12.258-14.97zm7.322,359.652c-20.17-15.687-49.535-38.537-66.401-82.732l75.748,75.748v14.402c-2.836-2.354-5.981-4.8-9.347-7.418zm33.694,0c-3.366,2.618-6.51,5.063-9.347,7.418v-14.402l75.748-75.748c-16.866,44.195-46.231,67.045-66.401,82.732z"/>
</svg>
