<?xml version='1.0' encoding='iso-8859-1'?>
<svg version="1.1" xmlns="http://www.w3.org/2000/svg" viewBox="0 0 463 463" xmlns:xlink="http://www.w3.org/1999/xlink" enable-background="new 0 0 463 463">
  <path d="m282.648,99.804c-21.459-37.021-43.648-75.303-43.648-92.304 0-4.142-3.357-7.5-7.5-7.5s-7.5,3.358-7.5,7.5c0,17.001-22.189,55.283-43.648,92.304-29.671,51.188-60.352,104.118-60.352,139.696 0,49.789 11.796,66.824 21.274,80.511 5.247,7.578 9.392,13.563 10.786,24.442 3.337,26.029 22.319,39.708 40.677,52.937 11.466,8.262 23.295,16.8 31.263,28.385v29.725c0,4.142 3.357,7.5 7.5,7.5s7.5-3.358 7.5-7.5v-29.724c7.968-11.585 19.797-20.123 31.263-28.385 18.357-13.229 37.34-26.907 40.677-52.937 1.395-10.879 5.539-16.865 10.786-24.442 9.478-13.688 21.274-30.723 21.274-80.512 0-35.578-30.681-88.508-60.352-139.696zm-81.141,285.417c-17.202-12.396-32.059-23.102-34.567-42.674-1.86-14.506-7.692-22.929-13.333-31.075-8.722-12.595-18.607-26.87-18.607-71.972 0-31.544 30.988-85.006 58.329-132.173 11.606-20.023 22.457-38.748 30.671-55.152v350.842c-7.054-6.659-14.846-12.286-22.493-17.796zm107.887-73.749c-5.641,8.146-11.473,16.569-13.333,31.075-2.509,19.572-17.365,30.278-34.567,42.674-7.647,5.51-15.439,11.137-22.493,17.795v-350.841c8.214,16.405 19.065,35.13 30.671,55.152 27.34,47.167 58.328,100.629 58.328,132.173 0,45.102-9.885,59.377-18.606,71.972z"/>
</svg>
