<?xml version='1.0' encoding='iso-8859-1'?>
<svg version="1.1" xmlns="http://www.w3.org/2000/svg" viewBox="0 0 463.001 463.001" xmlns:xlink="http://www.w3.org/1999/xlink" enable-background="new 0 0 463.001 463.001">
  <path d="m460.553,145.957c-2.498-2.277-6.209-2.602-9.065-0.793-54.789,34.699-86.796,16.686-88.077,15.937-2.912-1.781-6.657-1.369-9.113,0.997-8.951,8.619-35.676,30.051-55.633,30.05-0.83,0-1.649-0.037-2.454-0.114-0.652-0.062-0.813-0.165-1.15-0.735-6.038-10.23 7.403-56.142 23.319-92.813 0.95-2.189 0.802-4.701-0.401-6.764-1.202-2.062-3.314-3.429-5.688-3.681-25.74-2.73-45.638-15.33-59.139-37.45-11.552-18.924-14.152-37.926-14.152-43.091 0-4.142-3.358-7.5-7.5-7.5s-7.5,3.358-7.5,7.5c0,5.165-2.6,24.167-14.152,43.092-13.501,22.12-33.399,34.72-59.139,37.45-2.374,0.251-4.486,1.619-5.688,3.681s-1.351,4.574-0.4,6.764c15.919,36.662 29.361,82.571 23.318,92.811-0.336,0.57-0.498,0.673-1.15,0.735-20.108,1.912-48.747-20.963-58.087-29.936-2.457-2.366-6.202-2.776-9.113-0.997-0.321,0.195-32.66,19.16-88.077-15.937-2.855-1.81-6.566-1.483-9.065,0.793-2.498,2.276-3.165,5.942-1.628,8.953 0.314,0.616 31.357,62.044 23.351,99.001-0.3,1.384-0.834,6.108 4.897,8.775 0.506,0.235 1.25,0.569 2.194,0.992 39,17.475 47.792,28.399 49.561,33.356 0.261,0.73 0.347,1.306 0.329,1.783l-54.011,38.579c-2.75,1.964-3.847,5.525-2.678,8.696 1.168,3.171 4.309,5.164 7.681,4.879 0.24-0.021 24.33-2.074 49.701-2.431 40.64-0.574 51.58,3.674 54.142,5.152-1.36,9.67-16.593,48.708-31.369,82.826-1.253,2.893-0.563,6.261 1.727,8.428 1.425,1.349 3.28,2.054 5.158,2.053 1.139,0 2.287-0.259 3.352-0.792 0.429-0.214 43.337-21.367 83.525-15.292 4.708,0.714 6.973-2.553 8.796-5.176 0.925-1.331 2.219-3.235 3.757-5.523 2.686-3.995 6.39-9.563 11.009-16.553 0.688-1.041 1.376-2.082 2.058-3.116v54.954c0,4.142 3.358,7.5 7.5,7.5s7.5-3.358 7.5-7.5v-54.952c0.682,1.033 1.37,2.074 2.058,3.116 4.62,6.989 8.324,12.558 11.009,16.553 1.539,2.288 2.833,4.193 3.757,5.523 1.823,2.623 4.092,5.882 8.796,5.176 40.058-6.059 83.1,15.081 83.525,15.292 1.065,0.533 2.212,0.792 3.352,0.792 1.877,0 3.733-0.705 5.158-2.053 2.29-2.167 2.979-5.535 1.727-8.428-14.776-34.117-30.009-73.156-31.369-82.826 2.563-1.479 13.493-5.726 54.142-5.152 25.371,0.356 49.46,2.41 49.701,2.431 3.371,0.289 6.513-1.708 7.681-4.879 1.169-3.171 0.072-6.732-2.678-8.696l-54.011-38.579c-0.018-0.477 0.068-1.053 0.329-1.783 1.77-4.957 10.562-15.881 49.561-33.356 0.944-0.423 1.688-0.757 2.194-0.992 5.731-2.667 5.197-7.391 4.897-8.775-7.995-36.897 23.037-98.387 23.35-99.002 1.539-3.01 0.872-6.676-1.625-8.953zm-37.392,105.138c-32.983,15.02-50.521,28.044-55.11,40.896-1.823,5.107-1.567,10.247 0.741,14.863 0.547,1.094 1.354,2.038 2.349,2.749l34.623,24.731c-8.72-0.423-18.777-0.775-28.849-0.836-53.797-0.313-62.913,7.716-64.754,16.458-0.641,3.047-1.715,8.147 15.617,51.871 3.376,8.519 6.813,16.881 9.695,23.788-16.785-5.967-43.53-13.029-70.497-10.124-5.372-7.881-18.715-28.111-27.976-42.229v-26.093l141.105-109.749c3.27-2.543 3.859-7.255 1.315-10.524-2.543-3.269-7.255-3.859-10.524-1.315l-131.896,102.585v-165.559l29.803-29.803c2.929-2.929 2.929-7.678 0-10.606-2.929-2.929-7.678-2.929-10.606,0l-19.197,19.196v-37.894c0-4.142-3.358-7.5-7.5-7.5s-7.5,3.358-7.5,7.5v37.894l-19.197-19.197c-2.929-2.929-7.678-2.929-10.606,0-2.929,2.929-2.929,7.678 0,10.606l29.803,29.804v165.559l-131.895-102.586c-3.269-2.543-7.982-1.954-10.524,1.315-2.543,3.27-1.954,7.981 1.315,10.524l141.104,109.749v26.093c-9.26,14.119-22.604,34.348-27.975,42.229-26.976-2.91-53.714,4.156-70.498,10.124 2.881-6.906 6.318-15.27 9.695-23.788 17.332-43.724 16.258-48.824 15.617-51.871-1.84-8.741-10.978-16.772-64.754-16.458-10.072,0.062-20.129,0.413-28.849,0.836l34.623-24.731c0.995-0.711 1.802-1.655 2.349-2.749 2.309-4.616 2.564-9.756 0.741-14.863-4.589-12.853-22.127-25.877-55.11-40.896 3.333-26.992-7.696-60.817-16.339-82.199 39.957,18.806 67.65,11.919 78.661,7.514 3.933,3.441 10.586,8.936 18.68,14.331 18.06,12.04 33.996,17.5 47.371,16.226 5.397-0.514 9.889-3.371 12.646-8.044 8.102-13.729 0.245-42.735-6.37-63.359-4.347-13.552-9.167-26.088-12.394-34.102 39.663-7.995 59.878-36.777 69.406-61.043 9.528,24.266 29.744,53.048 69.406,61.043-3.227,8.013-8.047,20.549-12.394,34.102-6.615,20.624-14.471,49.629-6.37,63.359 2.758,4.673 7.249,7.53 12.646,8.044 13.368,1.272 29.311-4.186 47.371-16.226 8.093-5.396 14.746-10.89 18.679-14.331 11.014,4.406 38.703,11.296 78.661-7.515-8.641,21.383-19.671,55.208-16.338,82.201z"/>
</svg>
