<?xml version='1.0' encoding='iso-8859-1'?>
<svg version="1.1" xmlns="http://www.w3.org/2000/svg" viewBox="0 0 463 463" xmlns:xlink="http://www.w3.org/1999/xlink" enable-background="new 0 0 463 463">
  <path d="m338.854,158.208c0.81-0.404 1.771-0.879 2.86-1.417 41.224-20.359 57.286-33.057 57.286-45.291 0-3.535-1.932-6.756-5.301-8.838-7.529-4.653-25.458-4.845-39.172-4.189-4.755,0.228-28.951,1.604-38.381,6.319-9.504,4.752-50.461,43.404-74.435,66.417 6.566-31.836 21.289-104.472 21.289-115.709 0-8.09-3.131-21.198-7.614-31.874-6.583-15.677-14.619-23.626-23.886-23.626s-17.303,7.949-23.886,23.626c-4.483,10.676-7.614,23.784-7.614,31.874 0,11.237 14.723,83.873 21.289,115.709-23.974-23.013-64.931-61.665-74.435-66.417-9.43-4.715-33.626-6.091-38.381-6.319-13.714-0.656-31.642-0.463-39.172,4.189-3.369,2.082-5.301,5.303-5.301,8.838 0,12.234 16.062,24.932 57.286,45.291 1.089,0.538 2.05,1.013 2.86,1.417 10.609,5.305 80.416,31.3 99.854,38.512v35.73c-7.259-5.272-16.972-12.224-27.035-19.133-42.701-29.317-49.971-29.317-53.465-29.317-6.394,0-21.661,1.951-34.758,4.442-28.521,5.424-32.598,10.278-34.339,12.351-1.97,2.346-2.784,5.188-2.29,8.002 2.066,11.789 19.461,17.952 52.976,25.841 4.136,0.974 7.708,1.815 9.73,2.418 9.711,2.899 68.344,13.12 89.181,16.712v36.613c-6.443-3.743-14.97-8.617-23.843-13.462-38.305-20.917-45.559-20.917-48.657-20.917-6.226,0-19.207,1.833-30.865,4.36-24.394,5.286-28.549,10.232-30.113,12.095-2.065,2.459-2.921,5.421-2.409,8.34 1.872,10.68 17.556,17.669 29.191,21.998 12.783,4.755 27.165,8.207 34.196,8.207h72.5v42.928c-4.354-2.663-9.605-5.797-15.179-8.954-26.863-15.214-36.448-16.974-41.321-16.974-8.451,0-35.759,7.122-44.434,16.454-3.205,3.448-3.685,6.8-3.523,9.005 1.293,17.671 29.282,21.541 39.957,21.541h64.5v35.416c-13.759-8.209-32.478-18.416-40.5-18.416-7.362,0-23.5,3.903-23.5,15.5 0,15.333 13.648,23.5 23.5,23.5h40.5v24.5c0,4.142 3.358,7.5 7.5,7.5s7.5-3.358 7.5-7.5v-24.5h40.5c9.852,0 23.5-8.167 23.5-23.5 0-11.597-16.138-15.5-23.5-15.5-8.022,0-26.741,10.207-40.5,18.416v-35.416h64.5c10.675,0 38.664-3.87 39.958-21.541 0.162-2.205-0.319-5.557-3.524-9.005-8.675-9.332-35.983-16.454-44.434-16.454-4.873,0-14.458,1.76-41.321,16.974-5.574,3.157-10.824,6.291-15.179,8.954v-42.928h72.5c7.031,0 21.413-3.452 34.196-8.207 11.635-4.329 27.319-11.318 29.191-21.998 0.512-2.919-0.344-5.881-2.409-8.34-1.564-1.862-5.719-6.809-30.113-12.095-11.659-2.526-24.639-4.36-30.865-4.36-3.098,0-10.352,0-48.657,20.917-8.873,4.845-17.4,9.719-23.843,13.462v-36.613c20.837-3.593 79.471-13.813 89.181-16.712 2.022-0.604 5.594-1.444 9.73-2.418 33.515-7.89 50.91-14.053 52.976-25.841 0.494-2.814-0.32-5.656-2.29-8.002-1.741-2.073-5.818-6.927-34.339-12.351-13.097-2.491-28.364-4.442-34.758-4.442-3.494,0-10.764,0-53.465,29.317-10.063,6.909-19.775,13.861-27.035,19.133v-35.73c19.438-7.212 89.245-33.207 99.854-38.512zm-187.354,137.792c-4.18,0-15.792-2.541-27.263-6.645-10.109-3.617-15.835-6.831-18.802-9.009 9.297-3.756 33.103-9.345 46.06-9.347 5.028,0.107 26.444,10.49 52.221,25h-52.216zm8,64.001c-10.99,0-21.299-3.779-24.196-6.409 5.588-3.892 24.361-10.591 32.196-10.591 3.971,0 17.379,5.368 37.543,17h-45.543zm24,56c-1.023,0-7.334-1.335-8.359-6.908 1.765-0.957 5.445-2.081 8.315-2.092 2.769,0.205 10.628,3.908 19.982,9h-19.938zm96.044-9c2.87,0.012 6.551,1.136 8.315,2.092-1.025,5.572-7.336,6.908-8.359,6.908h-19.952c9.698-5.268 17.39-8.807 19.996-9zm15.956-64c7.835,0 26.608,6.699 32.196,10.591-2.897,2.63-13.206,6.409-24.196,6.409h-45.547c20.162-11.632 33.572-17 37.547-17zm16.005-72c12.958,0.001 36.763,5.591 46.06,9.347-2.967,2.178-8.693,5.392-18.802,9.009-11.471,4.103-23.083,6.644-27.263,6.644h-52.215c25.777-14.51 47.192-24.893 52.22-25zm11.349-152.792c3.463-1.731 16.474-3.979 32.253-4.746 3.72-0.181 7.102-0.259 10.15-0.259 7.743,0 13.324,0.506 16.769,1.129-2.217,2.509-6.885,6.658-16.686,12.716-10.828,6.692-22.998,12.703-30.269,16.293-1.114,0.55-2.098,1.036-2.926,1.45-6.441,3.221-40.389,16.165-69.383,27.049 28.424-27.018 54.709-50.94 60.092-53.632zm-101.41-88.775c4.625-11.013 8.989-14.433 10.056-14.433s5.431,3.42 10.056,14.433c4.185,9.969 6.444,20.871 6.444,26.067 0,6.896-8.414,50.735-16.5,90.741-8.086-40.006-16.5-83.845-16.5-90.741 0-5.196 2.259-16.098 6.444-26.067zm-90.59,115.359c-0.828-0.414-1.812-0.9-2.926-1.45-7.271-3.591-19.44-9.601-30.269-16.293-9.801-6.058-14.469-10.207-16.686-12.716 4.801-0.868 13.748-1.51 26.919-0.87 15.78,0.766 28.791,3.015 32.253,4.746 5.383,2.692 31.668,26.614 60.091,53.633-28.992-10.885-62.94-23.829-69.382-27.05zm8.256,77.89c-2.445-0.73-6.037-1.576-10.584-2.646-7.967-1.875-17.881-4.21-26.565-7.075-5.469-1.804-9.019-3.367-11.306-4.586 4.208-1.48 11.247-3.409 22.118-5.428 13.03-2.419 25.977-3.924 30.624-3.946 6.165,0.75 31.301,16.809 57.869,35.567-26.121-4.619-56.277-10.131-62.156-11.886zm180.494-23.682c4.647,0.022 17.594,1.527 30.624,3.946 10.871,2.019 17.91,3.948 22.118,5.428-2.287,1.22-5.837,2.782-11.306,4.586-8.684,2.865-18.599,5.199-26.565,7.075-4.547,1.07-8.139,1.916-10.584,2.646-5.88,1.755-36.035,7.268-62.157,11.886 26.567-18.757 51.703-34.816 57.87-35.567z"/>
</svg>
