<?xml version='1.0' encoding='iso-8859-1'?>
<svg version="1.1" xmlns="http://www.w3.org/2000/svg" viewBox="0 0 463 463" xmlns:xlink="http://www.w3.org/1999/xlink" enable-background="new 0 0 463 463">
  <path d="m305.108,56.898c-23.87-33.501-54.139-56.898-73.608-56.898s-49.738,23.397-73.608,56.898c-17.139,24.054-45.892,74.566-45.892,142.602 0,2.227 0.049,4.423 0.133,6.597-0.226,1.191-0.16,2.425 0.194,3.591 3.658,61.024 39.665,100.866 68.915,133.196 22.944,25.36 42.758,47.262 42.758,72.616v40c0,4.142 3.357,7.5 7.5,7.5s7.5-3.358 7.5-7.5v-40c0-25.354 19.814-47.256 42.758-72.616 30.849-34.098 69.242-76.535 69.242-143.384 0-68.036-28.753-118.548-45.892-142.602zm-178.108,142.602c0-14.917 1.487-28.925 3.951-41.942l93.049,93.049v50.786l-96.911-96.911c-0.052-1.646-0.089-3.302-0.089-4.982zm21.463-96.43l75.537,75.537v50.786l-89.095-89.095c3.751-13.851 8.513-26.308 13.558-37.228zm179.632,37.228l-89.095,89.095v-50.786l75.537-75.537c5.045,10.92 9.807,23.377 13.558,37.228zm-89.095,161.095v-50.786l93.049-93.049c2.464,13.017 3.951,27.025 3.951,41.942 0,1.68-0.037,3.336-0.089,4.982l-96.911,96.911zm68.443-212.443l-68.443,68.443v-50.786l48.388-48.388c1.865,2.398 3.703,4.857 5.503,7.384 4.311,6.049 9.405,13.897 14.552,23.347zm-29.719-42.281l-38.724,38.724v-68.712c5.308,2.022 11.71,5.793 18.36,10.917 6.858,5.283 13.723,11.724 20.364,19.071zm-53.724-29.966v68.69l-38.719-38.719c14.98-16.557 29.131-26.293 38.719-29.971zm-53.892,48.9c1.831-2.569 3.667-5.021 5.503-7.384l48.389,48.388v50.786l-68.443-68.443c5.147-9.45 10.241-17.298 14.551-23.347zm22.257,267.218c-25.503-28.189-53.819-59.522-62.602-104.45l94.237,94.236v48.792c-8.587-13.093-19.949-25.662-31.635-38.578zm78.27,0c-11.686,12.916-23.047,25.485-31.635,38.579v-48.792l94.237-94.237c-8.783,44.928-37.099,76.261-62.602,104.45z"/>
</svg>
