<?xml version='1.0' encoding='iso-8859-1'?>
<svg version="1.1" xmlns="http://www.w3.org/2000/svg" viewBox="0 0 463 463" xmlns:xlink="http://www.w3.org/1999/xlink" enable-background="new 0 0 463 463">
  <path d="m437.724,147.601c-3.02-12.684-8.921-23.199-17.229-30.617-8.541-7.626-18.449-9.519-24.43-9.899-11.4-21.281-26.55-38.203-45.081-50.342-22.323-14.623-49.094-21.915-79.546-21.664-3.492,0.029-6.503,2.464-7.26,5.873l-22.209,99.939-11.016-99.141c-0.301-2.709-2.048-5.042-4.563-6.092-27.677-11.563-50.261-6.106-64.332,0.508-11.735,5.516-19.59,12.713-22.722,15.894-76.657,25.893-99.243,77.868-105.796,103.261-21.128,1.771-33.54,13.174-33.54,31.258 0,28.094 53.899,53.439 116.309,82.787 27.352,12.862 55.635,26.162 76.29,38.743 27.321,16.643 31.401,26.234 31.401,30.47v88c0,4.142 3.358,7.5 7.5,7.5s7.5-3.358 7.5-7.5v-88c0-4.283 4.101-14.112 31.564-31.822 20.671-13.33 48.962-27.644 76.321-41.486 62.306-31.523 116.115-58.748 116.115-86.692 0-18.867-11.893-28.697-25.276-30.978zm-315.033,108.191c-27.352-12.862-55.635-26.162-76.29-38.743-27.321-16.643-31.401-26.234-31.401-30.47 0-6.026 2.15-10.082 6.768-12.765 3.769-2.19 9.096-3.446 15.484-3.685l150.012,102.64c1.295,0.886 2.77,1.311 4.229,1.311 2.393,0 4.744-1.142 6.197-3.265 2.339-3.419 1.464-8.086-1.955-10.425l-147.732-101.081c5.602-21.967 24.964-67.02 90.993-91.227l83.017,226.411c1.318,3.595 1.986,7.359 1.986,11.188v6.619c-20.276-18.401-58.817-36.527-101.308-56.508zm293.745-45.391c-20.671,13.33-48.962,27.644-76.321,41.486-42.4,21.453-80.864,40.915-101.114,59.968v-6.173c0-5.596-0.977-11.098-2.903-16.352l-83.903-228.822c6.055-5.462 20.959-16.552 42.135-16.552 6.789,0 14.228,1.143 22.218,3.976l15.498,139.476c0.405,3.646 3.387,6.463 7.049,6.661 3.648,0.193 6.931-2.282 7.726-5.862l30.682-138.07c58.276,1.612 89.005,34.045 104.909,63.258l-84.441,92.118c-2.799,3.053-2.592,7.797 0.461,10.597 1.44,1.32 3.255,1.971 5.066,1.971 2.029,0 4.052-0.818 5.531-2.432l85.824-93.627c3.526,0.177 10.129,1.222 15.652,6.153 6.037,5.39 10.373,13.321 12.665,23.082l-155.97,109.179c-3.394,2.375-4.219,7.052-1.843,10.445 1.459,2.084 3.786,3.2 6.15,3.2 1.485,0 2.986-0.44 4.294-1.356l157.911-110.538c5.537,0.531 14.288,3.423 14.288,16.394 0,4.281-4.101,14.11-31.564,31.82z"/>
</svg>
