<?xml version='1.0' encoding='iso-8859-1'?>
<svg version="1.1" xmlns="http://www.w3.org/2000/svg" viewBox="0 0 463 463" xmlns:xlink="http://www.w3.org/1999/xlink" enable-background="new 0 0 463 463">
  <path d="m383.857,304.008c-2.006-0.633-7.376-4.875-11.71-8.297-15.017-11.86-40.153-31.711-73.98-31.711-24.967,0-45.726,17.36-49.536,40h-9.631v-29.393l30.921-30.921c9.609,7.333 21.285,11.314 33.579,11.314 14.825,0 28.763-5.773 39.245-16.256 26.773-26.774 29.91-63.446 31.784-85.357 0.557-6.512 1.248-14.589 2.375-16.695 1.318-1.432 1.978-3.253 1.978-5.075 0-1.919-0.732-3.839-2.196-5.303-2.855-2.854-7.437-2.926-10.379-0.219-2.105,1.127-10.183,1.818-16.694,2.375-21.911,1.874-58.583,5.011-85.357,31.785-19.839,19.84-21.475,51.08-4.935,72.817l-20.321,20.321v-94.914c27.066-3.675 48-26.921 48-54.979 0-37.864-23.713-66.013-37.881-82.832-4.211-4.999-9.434-11.198-10.126-13.484-0.165-3.996-3.457-7.184-7.493-7.184s-7.328,3.188-7.493,7.184c-0.692,2.286-5.915,8.486-10.126,13.484-14.168,16.819-37.881,44.968-37.881,82.832 0,28.058 20.934,51.305 48,54.979v94.914l-20.32-20.32c16.54-21.737 14.905-52.977-4.935-72.817-26.774-26.774-63.446-29.911-85.357-31.785-6.512-0.557-14.589-1.248-16.694-2.375-2.942-2.708-7.524-2.635-10.379,0.219-1.464,1.464-2.196,3.384-2.196,5.303 0,1.821 0.659,3.643 1.978,5.075 1.127,2.106 1.818,10.183 2.375,16.695 1.874,21.911 5.011,58.583 31.784,85.357 10.481,10.482 24.419,16.255 39.244,16.255 12.294,0 23.97-3.981 33.579-11.314l30.921,30.921v29.393h-9.631c-3.81-22.64-24.569-40-49.536-40-33.827,0-58.963,19.851-73.98,31.711-4.334,3.422-9.704,7.664-11.71,8.297-3.976,0.187-7.143,3.47-7.143,7.492s3.167,7.305 7.143,7.492c2.006,0.633 7.376,4.875 11.71,8.297 15.017,11.86 40.153,31.711 73.98,31.711 24.967,0 45.726-17.36 49.536-40h9.631v81h-9.772c-3.752-18.205-20.882-32-41.395-32-27.941,0-48.596,16.061-60.937,25.657-3.286,2.555-7.346,5.712-8.972,6.364-3.872,0.294-6.924,3.53-6.924,7.479s3.052,7.185 6.925,7.479c1.626,0.652 5.686,3.809 8.972,6.364 12.34,9.596 32.995,25.657 60.936,25.657 20.513,0 37.643-13.795 41.395-32h9.772v40.5c0,4.142 3.357,7.5 7.5,7.5s7.5-3.358 7.5-7.5v-40.5h9.772c3.752,18.205 20.882,32 41.395,32 27.941,0 48.596-16.061 60.937-25.657 3.286-2.555 7.346-5.712 8.972-6.364 3.873-0.294 6.925-3.53 6.925-7.479s-3.052-7.185-6.925-7.479c-1.626-0.652-5.686-3.809-8.972-6.364-12.341-9.596-32.996-25.657-60.937-25.657-20.513,0-37.643,13.795-41.395,32h-9.772v-81h9.631c3.81,22.64 24.569,40 49.536,40 33.827,0 58.963-19.851 73.98-31.711 4.334-3.422 9.704-7.664 11.71-8.297 3.976-0.187 7.143-3.469 7.143-7.492s-3.167-7.305-7.143-7.492zm-85.69-25.008c25.812,0 45.997,13.943 60.246,25h-94.457c3.674-14.315 17.613-25 34.211-25zm33.971-50.862c-7.65,7.649-17.82,11.862-28.638,11.862-8.273,0-16.163-2.472-22.841-7.052l78.745-78.745c-1.829,21.128-5.107,51.776-27.266,73.935zm-57.276-57.276c22.158-22.159 52.806-25.438 73.935-27.266l-78.738,78.738c-10.769-15.76-9.175-37.493 4.803-51.472zm-2.862-67.362c0,19.768-14.24,36.264-33,39.792v-111.352c13.648,16.233 33,40.223 33,71.56zm-81,0c0-31.337 19.352-55.327 33-71.56v111.352c-18.76-3.528-33-20.024-33-39.792zm1.941,118.834l-78.738-78.738c21.129,1.829 51.776,5.107 73.935,27.266 13.978,13.979 15.572,35.712 4.803,51.472zm-33.441,17.666c-10.818,0-20.988-4.213-28.638-11.862-22.159-22.159-25.438-52.806-27.266-73.935l78.745,78.745c-6.678,4.58-14.568,7.052-22.841,7.052zm39.544,64h-94.457c14.249-11.057 34.434-25 60.246-25 16.598,0 30.537,10.685 34.211,25zm-34.211,40c-25.812,0-45.997-13.943-60.246-25h94.457c-3.674,14.315-17.613,25-34.211,25zm33.86,56h-70.358c11.128-8.132 26.049-17 44.498-17 12.079,0 22.338,7.149 25.86,17zm-25.86,32c-18.45,0-33.371-8.868-44.498-17h70.358c-3.522,9.851-13.781,17-25.86,17zm91.474-17h70.358c-11.128,8.132-26.049,17-44.498,17-12.079,0-22.338-7.149-25.86-17zm25.86-32c18.45,0 33.371,8.868 44.498,17h-70.358c3.522-9.851 13.781-17 25.86-17zm-26.211-64h94.457c-14.249,11.057-34.434,25-60.246,25-16.598,0-30.537-10.685-34.211-25z"/>
</svg>
