<?xml version='1.0' encoding='iso-8859-1'?>
<svg version="1.1" xmlns="http://www.w3.org/2000/svg" viewBox="0 0 463 463" xmlns:xlink="http://www.w3.org/1999/xlink" enable-background="new 0 0 463 463">
  <path d="m383,287.5c0-27.938-33.648-48.639-69.254-54.083 4.985-3.449 9.846-7.52 14.524-12.198 29.265-29.265 45.755-77.989 22.627-101.116-15.839-15.838-43.685-13.093-69.064-0.389 3.405-9.567 5.167-20.42 5.167-32.214 0-41.386-22.793-87.5-55.5-87.5s-55.5,46.114-55.5,87.5c0,11.793 1.762,22.646 5.167,32.213-25.379-12.704-53.225-15.45-69.064,0.39-10.838,10.838-13.751,28.233-8.202,48.981 4.944,18.484 16.181,37.486 30.83,52.135 4.677,4.677 9.539,8.749 14.524,12.198-35.607,5.444-69.255,26.145-69.255,54.083 0,27.163 31.805,47.485 66.293,53.596-23.347,7.544-42.293,22.916-42.293,42.404 0,27.993 39.087,47.5 74.167,47.5 17.543,0 32.666-4.607 43.733-13.324 0.722-0.569 1.421-1.154 2.1-1.752v39.576c0,4.142 3.358,7.5 7.5,7.5s7.5-3.358 7.5-7.5v-39.576c0.679,0.598 1.378,1.183 2.1,1.752 11.067,8.716 26.19,13.324 43.733,13.324 35.08,0 74.167-19.507 74.167-47.5 0-19.488-18.946-34.86-42.293-42.404 34.488-6.111 66.293-26.433 66.293-53.596zm-16.509-7.5h-126.669c4.361-19.762 26.026-33 55.678-33 32.74,0 63.903,15.193 70.991,33zm-127.491-27.943v-19.016c3.93,3.818 8.351,6.89 13.15,9.165-2.907,1.634-5.65,3.451-8.202,5.46-1.763,1.389-3.406,2.859-4.948,4.391zm-15-19.016v19.016c-1.542-1.532-3.185-3.002-4.948-4.39-2.552-2.01-5.295-3.827-8.203-5.461 4.8-2.275 9.221-5.347 13.151-9.165zm0,89.902v28.133c-0.679-0.598-1.378-1.183-2.1-1.752-6.54-5.151-14.505-8.854-23.54-11.032 7.777-2.61 14.742-6.273 20.692-10.958 1.763-1.389 3.406-2.859 4.948-4.391zm15,0c1.542,1.532 3.185,3.002 4.948,4.39 5.95,4.686 12.915,8.348 20.692,10.958-9.035,2.178-17,5.881-23.54,11.032-0.722,0.569-1.421,1.154-2.1,1.752v-28.132zm78.663-112.33c-20.967,20.966-45.648,26.924-62.705,16.036l89.569-89.569c7.579,17.603-3.713,50.381-26.864,73.533zm16.249-84.132l-89.561,89.561c-3.619-5.668-5.388-12.172-5.351-19.108v-0.155c0.127-13.9 7.439-29.494 21.387-43.442 18.316-18.316 42.661-29.213 60.749-29.213 4.774,0 9.1,0.775 12.776,2.357zm-61.912-38.981c0,29.652-13.238,51.317-33,55.678v-126.669c17.807,7.088 33,38.251 33,70.991zm-48-70.991v126.669c-19.762-4.361-33-26.026-33-55.678 0-32.74 15.193-63.903 33-70.991zm-21.387,136.828c13.948,13.948 21.26,29.542 21.387,43.442v0.155c0.037,6.936-1.733,13.44-5.351,19.108l-89.569-89.569c17.604-7.578 50.381,3.713 73.533,26.864zm-84.14-16.257l89.569,89.569c-17.059,10.889-41.739,4.93-62.705-16.036-23.151-23.152-34.443-55.93-26.864-73.533zm49.027,109.92c29.652,0 51.317,13.238 55.678,33h-126.669c7.088-17.807 38.251-33 70.991-33zm-70.991,48h126.669c-4.361,19.762-26.026,33-55.678,33-32.74,0-63.903-15.193-70.991-33zm81.658,56c23.297,0 40.517,9.965 44.792,25h-101.973c7.061-13.479 31.92-25 57.181-25zm0,65c-25.26,0-50.12-11.521-57.18-25h101.973c-4.277,15.035-21.497,25-44.793,25zm106.666,0c-23.297,0-40.517-9.965-44.792-25h101.973c-7.061,13.479-31.92,25-57.181,25zm57.181-40h-101.973c4.276-15.035 21.495-25 44.792-25 25.261,0 50.12,11.521 57.181,25zm-46.514-48c-29.652,0-51.317-13.238-55.678-33h126.669c-7.088,17.807-38.251,33-70.991,33z"/>
</svg>
