<?xml version='1.0' encoding='iso-8859-1'?>
<svg version="1.1" xmlns="http://www.w3.org/2000/svg" viewBox="0 0 463 463" xmlns:xlink="http://www.w3.org/1999/xlink" enable-background="new 0 0 463 463">
  <path d="m264.825,40.229c-11.664-12.037-21.737-22.433-26.253-35.226-1.058-2.998-3.892-5.003-7.072-5.003s-6.014,2.005-7.072,5.004c-4.516,12.793-14.589,23.188-26.253,35.226-26.239,27.077-62.175,64.161-62.175,159.27 0,78.474 38.758,131.227 64.404,166.134 12.661,17.234 23.596,32.117 23.596,41.866v48c0,4.142 3.357,7.5 7.5,7.5s7.5-3.358 7.5-7.5v-48c0-9.749 10.935-24.632 23.596-41.866 25.646-34.907 64.404-87.66 64.404-166.134 0-95.109-35.936-132.193-62.175-159.271zm-52.333,316.524c-25.951-35.322-61.492-83.697-61.492-157.253 0-89.034 32.13-122.19 57.946-148.832 5.284-5.453 10.441-10.778 15.054-16.329v67.054l-11.196-11.196c-2.93-2.929-7.678-2.929-10.607,0-2.929,2.929-2.929,7.678 0,10.606l21.803,21.804v12.888c0,0.003 0,0.007 0,0.01v13.888l-19.196-19.196c-2.93-2.929-7.678-2.929-10.607,0-2.929,2.929-2.929,7.678 0,10.606l29.803,29.804v12.888c0,0.003 0,0.007 0,0.01v13.888l-35.196-35.196c-2.93-2.929-7.678-2.929-10.607,0-2.929,2.929-2.929,7.678 0,10.606l45.803,45.804v12.888c0,0.003 0,0.007 0,0.01v13.888l-27.196-27.196c-2.93-2.929-7.678-2.929-10.607,0-2.929,2.929-2.929,7.678 0,10.606l37.803,37.804v12.888c0,0.003 0,0.007 0,0.01v13.888l-19.196-19.196c-2.93-2.929-7.678-2.929-10.607,0-2.929,2.929-2.929,7.678 0,10.606l29.803,29.804v12.888c0,0.003 0,0.007 0,0.01v45.246c-3.471-5.047-7.359-10.351-11.508-15.998zm38.016,0c-4.148,5.646-8.036,10.951-11.508,15.998v-42.144l29.804-29.804c2.929-2.929 2.929-7.678 0-10.606-2.93-2.929-7.678-2.929-10.607,0l-19.197,19.196v-26.786l37.804-37.804c2.929-2.929 2.929-7.678 0-10.606-2.93-2.929-7.678-2.929-10.607,0l-27.197,27.196v-26.786l45.804-45.804c2.929-2.929 2.929-7.678 0-10.606-2.93-2.929-7.678-2.929-10.607,0l-35.197,35.196v-26.786l29.804-29.804c2.929-2.929 2.929-7.678 0-10.606-2.93-2.929-7.678-2.929-10.607,0l-19.197,19.196v-26.786l21.804-21.804c2.929-2.929 2.929-7.678 0-10.606-2.93-2.929-7.678-2.929-10.607,0l-11.197,11.196v-83.054c4.613,5.551 9.77,10.876 15.054,16.329 25.816,26.642 57.946,59.798 57.946,148.832 0,73.556-35.541,121.931-61.492,157.253z"/>
</svg>
