<?xml version='1.0' encoding='iso-8859-1'?>
<svg version="1.1" xmlns="http://www.w3.org/2000/svg" viewBox="0 0 463.003 463.003" xmlns:xlink="http://www.w3.org/1999/xlink" enable-background="new 0 0 463.003 463.003">
  <path d="m462.878,250.149c-0.747-4.075-4.664-6.773-8.729-6.024-9.799,1.796-19.602,3.977-29.401,6.534 2.478-7.082 7.154-14.24 11.1-17.045 3.375-2.401 4.166-7.083 1.766-10.459-2.4-3.375-7.084-4.166-10.459-1.766-8.199,5.831-17.245,20.503-18.889,33.937-5.629,1.714-11.254,3.547-16.874,5.509 1.275-10.969 5.763-20.38 13.414-28.031 2.929-2.929 2.929-7.678-0.001-10.606-2.928-2.929-7.677-2.929-10.606,0-11.682,11.683-17.944,26.993-18.174,44.319-5.44,2.122-10.874,4.365-16.299,6.718 1.562-11.937 5.236-23.185 6.741-26.948 1.538-3.846-0.333-8.211-4.179-9.749-3.843-1.539-8.211,0.331-9.749,4.178-2.233,5.584-7.817,22.956-8.472,39.64-11.148,5.308-22.254,11.103-33.302,17.379 0.45-22.735 7.719-43.481 7.801-43.711 1.393-3.901-0.64-8.192-4.541-9.585-3.899-1.394-8.192,0.639-9.586,4.541-0.422,1.182-10.14,28.807-8.509,57.489-24.479,14.944-43.789,29.405-56.349,39.811 3.551-13.596 8.059-27.002 13.534-40.168 11.242-3.509 23.939,0.481 24.05,0.516 3.938,1.291 8.173-0.853 9.464-4.788 1.292-3.936-0.852-8.173-4.788-9.464-0.543-0.178-9.973-3.203-21.369-2.62 8.899-18.41 19.686-36.311 32.331-53.572 0.527-0.719 1.055-1.43 1.583-2.14 6.525-2.194 16.488-4.088 30.787,0.587 3.934,1.285 8.172-0.861 9.459-4.798s-0.861-8.172-4.799-9.459c-7.487-2.448-14.691-3.653-21.713-3.62 15.243-18.001 29.878-31.614 39.933-39.289 3.293-2.513 3.925-7.219 1.412-10.512-2.512-3.292-7.22-3.926-10.512-1.412-8.652,6.603-19.368,16.212-30.842,28.497-1.41-3.711-3.586-7.654-6.991-11.504-2.744-3.102-7.484-3.393-10.587-0.648-3.103,2.745-3.393,7.484-0.647,10.586 5.004,5.657 5.678,11.686 5.769,15.66-20.159,24.072-41.177,55.573-56.651,92.944v-55.08c5.503-7.48 11.388-16.892 17.21-27.152 0.173-0.108 0.352-0.2 0.518-0.324 0.527-0.256 4.234-1.805 13.044,0.281 4.03,0.952 8.072-1.539 9.026-5.57 0.955-4.031-1.539-8.072-5.569-9.027-3.092-0.732-5.859-1.155-8.335-1.352 4.483-8.604 8.781-17.392 12.675-25.82 5.136-2.128 16.344-6.243 25.761-6.032 0.059,0.001 0.116,0.002 0.174,0.002 4.063,0 7.402-3.247 7.495-7.33 0.094-4.141-3.187-7.574-7.327-7.668-6.02-0.138-12.328,0.975-17.93,2.448 4.26-10.253 7.453-19.063 9.016-25.057 1.046-4.008-1.355-8.104-5.363-9.15-4.008-1.045-8.104,1.356-9.15,5.364-1.357,5.2-4.054,12.7-7.649,21.458l-1.979-5.936c-1.311-3.93-5.557-6.053-9.487-4.744-3.93,1.31-6.053,5.558-4.743,9.487l7.219,21.656c-7.318,15.745-16.079,32.762-24.603,47.072v-75.169c22.501-16.378 35.724-44.577 39.684-57.775 1.19-3.968-1.062-8.149-5.028-9.339-3.967-1.192-8.148,1.061-9.339,5.028-2.338,7.794-10.773,27.596-25.316,42.328v-39.444c0.683-3.165 4.888-19.645 19.434-25.827 3.813-1.62 5.589-6.024 3.969-9.836-1.619-3.812-6.023-5.588-9.836-3.969-5.487,2.332-9.942,5.571-13.566,9.172v-18.27c0-4.142-3.357-7.5-7.5-7.5s-7.5,3.358-7.5,7.5v18.27c-3.625-3.602-8.079-6.84-13.566-9.172-3.807-1.62-8.215,0.156-9.836,3.969-1.62,3.812 0.156,8.216 3.969,9.836 14.388,6.115 18.724,22.675 19.434,25.852v39.418c-14.543-14.732-22.978-34.534-25.316-42.328-1.19-3.968-5.37-6.22-9.339-5.028-3.967,1.19-6.219,5.371-5.028,9.339 3.96,13.198 17.183,41.397 39.684,57.775v75.169c-8.524-14.31-17.285-31.327-24.603-47.072l7.219-21.656c1.31-3.929-0.813-8.177-4.743-9.487-3.931-1.311-8.177,0.814-9.487,4.744l-1.979,5.936c-3.596-8.758-6.293-16.258-7.649-21.458-1.045-4.008-5.14-6.41-9.15-5.364-4.008,1.046-6.409,5.143-5.363,9.15 1.563,5.993 4.756,14.802 9.015,25.053-5.604-1.476-11.915-2.591-17.929-2.444-4.141,0.094-7.421,3.527-7.327,7.668 0.094,4.142 3.486,7.427 7.669,7.328 0.239-0.005 0.477-0.008 0.719-0.008 9.287,0 20.045,3.962 25.04,6.036 3.894,8.429 8.193,17.218 12.676,25.823-2.475,0.198-5.243,0.621-8.335,1.353-4.03,0.955-6.524,4.996-5.569,9.027 0.953,4.029 4.988,6.52 9.026,5.57 8.812-2.088 12.517-0.538 13.044-0.281 0.166,0.124 0.345,0.216 0.518,0.324 5.822,10.26 11.706,19.672 17.21,27.152v55.08c-15.474-37.371-36.492-68.871-56.651-92.944 0.091-3.974 0.765-10.004 5.769-15.66 2.745-3.102 2.455-7.842-0.647-10.586-3.102-2.745-7.842-2.455-10.587,0.648-3.406,3.85-5.582,7.793-6.991,11.504-11.474-12.285-22.189-21.893-30.842-28.497-3.292-2.514-7.999-1.881-10.512,1.412-2.513,3.293-1.881,8 1.412,10.512 10.055,7.674 24.69,21.288 39.933,39.289-7.021-0.032-14.225,1.172-21.713,3.62-3.938,1.287-6.086,5.522-4.799,9.459 1.287,3.937 5.521,6.089 9.459,4.798 14.3-4.675 24.262-2.78 30.787-0.586 0.528,0.709 1.056,1.421 1.583,2.14 12.645,17.261 23.432,35.162 32.331,53.572-11.397-0.583-20.827,2.441-21.369,2.62-3.937,1.291-6.08,5.529-4.788,9.464 1.291,3.935 5.525,6.081 9.464,4.788 0.131-0.043 12.854-4.008 24.05-0.516 5.475,13.166 9.983,26.571 13.534,40.167-12.56-10.406-31.87-24.867-56.349-39.811 1.631-28.683-8.087-56.307-8.509-57.489-1.393-3.898-5.679-5.93-9.579-4.54s-5.936,5.679-4.55,9.58c0.083,0.235 7.353,20.982 7.803,43.716-11.048-6.276-22.154-12.071-33.302-17.379-0.655-16.684-6.239-34.056-8.472-39.64-1.538-3.846-5.905-5.717-9.749-4.178-3.846,1.538-5.717,5.903-4.179,9.749 1.505,3.762 5.179,15.011 6.741,26.948-5.425-2.353-10.859-4.596-16.299-6.718-0.23-17.326-6.492-32.636-18.174-44.319-2.929-2.929-7.678-2.929-10.606,0-2.93,2.929-2.93,7.677-0.001,10.606 7.65,7.651 12.138,17.061 13.414,28.031-5.62-1.962-11.245-3.795-16.874-5.509-1.644-13.434-10.69-28.106-18.889-33.937-3.376-2.4-8.059-1.609-10.459,1.766-2.4,3.376-1.609,8.058 1.766,10.459 3.945,2.805 8.622,9.963 11.1,17.045-9.798-2.557-19.601-4.738-29.401-6.534-4.072-0.747-7.983,1.95-8.729,6.024-0.747,4.074 1.95,7.982 6.024,8.729 17.812,3.266 35.651,7.854 53.455,13.726-3.122,4.596-9.805,10.513-20.725,11.423-4.128,0.344-7.195,3.969-6.851,8.097 0.326,3.916 3.604,6.877 7.465,6.877 0.209,0 0.42-0.009 0.632-0.026 16.805-1.401 28.786-11.363 33.914-21.324 7.924,2.928 15.838,6.11 23.736,9.546-4.886,4.188-12.113,9.375-21.308,13.445-3.788,1.677-5.5,6.106-3.823,9.894 1.24,2.801 3.984,4.466 6.862,4.466 1.015,0 2.045-0.207 3.031-0.644 11.601-5.135 20.277-11.644 25.514-16.201 1.796-1.563 3.293-2.957 4.549-4.208 14.343,6.833 28.621,14.496 42.8,22.985 7.397,4.429 14.309,8.818 20.703,13.069-11.631,4.696-25.207,9.057-43.379,12.31-1.968-6.663-7.67-19.597-23.31-26.866-3.759-1.747-8.217-0.117-9.962,3.64-1.746,3.756-0.116,8.216 3.64,9.962 9.019,4.191 12.958,11.165 14.614,15.544-4.664,0.592-9.597,1.117-14.826,1.568-1.43-8.624-12.461-19.841-21.689-21.971-4.036-0.932-8.063,1.586-8.994,5.622-0.932,4.036 1.585,8.063 5.621,8.995 3.017,0.696 7.813,5.45 9.609,8.414-9.689,0.504-20.281,0.778-31.923,0.778-4.143,0-7.5,3.358-7.5,7.5s3.357,7.5 7.5,7.5c7.564,0 14.715-0.119 21.492-0.342-2.373,3.83-5.92,7.955-9.827,10.722-3.38,2.394-4.18,7.075-1.785,10.455 1.462,2.064 3.776,3.166 6.127,3.166 1.498,0 3.012-0.448 4.328-1.38 7.373-5.222 15.137-14.754 18.013-23.779 12.73-0.825 23.962-2.059 33.976-3.595-0.605,5.052-3.167,14.547-13.334,23.671-3.082,2.767-3.339,7.509-0.572,10.591 1.481,1.65 3.528,2.491 5.585,2.491 1.783,0 3.574-0.633 5.007-1.918 16.674-14.964 18.487-31.242 18.49-37.565 20.482-4.268 35.184-9.862 47.705-15.429 3.277,2.35 6.354,4.62 9.231,6.792-2.835,10.7-16.231,28.395-41.833,33.251-4.069,0.772-6.743,4.697-5.971,8.766 0.682,3.598 3.827,6.104 7.359,6.104 0.464,0 0.935-0.043 1.406-0.133 14.478-2.746 27.446-9.223 37.505-18.731 6.177-5.839 11.025-12.665 13.967-19.498 5.098,4.173 9.013,7.615 11.631,10.055v60.805c0,4.142 3.357,7.5 7.5,7.5s7.5-3.358 7.5-7.5v-60.805c2.618-2.44 6.533-5.882 11.631-10.055 2.942,6.832 7.79,13.658 13.967,19.498 10.059,9.508 23.027,15.985 37.505,18.731 0.472,0.089 0.942,0.133 1.406,0.133 3.531,0 6.678-2.506 7.359-6.104 0.772-4.069-1.901-7.994-5.971-8.766-25.603-4.856-38.998-22.551-41.833-33.251 2.877-2.172 5.954-4.442 9.231-6.792 12.522,5.567 27.224,11.162 47.705,15.429 0.003,6.323 1.816,22.601 18.49,37.565 1.433,1.285 3.223,1.918 5.007,1.918 2.056,0 4.104-0.84 5.585-2.491 2.767-3.083 2.51-7.825-0.572-10.591-10.167-9.124-12.729-18.619-13.334-23.671 10.013,1.536 21.245,2.769 33.976,3.595 2.876,9.025 10.641,18.557 18.013,23.779 1.316,0.933 2.83,1.38 4.328,1.38 2.351,0 4.665-1.102 6.127-3.166 2.395-3.38 1.595-8.061-1.785-10.455-3.907-2.767-7.453-6.892-9.827-10.722 6.777,0.223 13.928,0.342 21.492,0.342 4.143,0 7.5-3.358 7.5-7.5s-3.357-7.5-7.5-7.5c-11.642,0-22.233-0.274-31.922-0.778 1.796-2.964 6.592-7.718 9.609-8.414 4.036-0.932 6.553-4.958 5.621-8.995-0.931-4.036-4.96-6.554-8.994-5.622-9.229,2.13-20.259,13.346-21.689,21.971-5.223-0.45-10.15-0.975-14.808-1.566 1.675-4.367 5.643-11.385 14.595-15.546 3.756-1.746 5.386-6.206 3.64-9.962-1.744-3.755-6.205-5.388-9.962-3.64-15.639,7.269-21.342,20.203-23.31,26.866-18.173-3.253-31.748-7.614-43.379-12.31 6.394-4.251 13.306-8.641 20.703-13.069 14.179-8.489 28.457-16.152 42.8-22.985 1.255,1.25 2.752,2.644 4.549,4.208 5.236,4.557 13.913,11.066 25.514,16.201 0.986,0.437 2.017,0.644 3.031,0.644 2.877,0 5.622-1.666 6.862-4.466 1.677-3.788-0.035-8.217-3.823-9.894-9.195-4.07-16.421-9.257-21.308-13.445 7.898-3.436 15.812-6.619 23.736-9.546 5.128,9.961 17.109,19.923 33.914,21.324 0.212,0.018 0.423,0.026 0.632,0.026 3.859,0 7.139-2.961 7.465-6.877 0.345-4.128-2.723-7.753-6.851-8.097-10.921-0.91-17.603-6.826-20.725-11.423 17.803-5.872 35.643-10.46 53.455-13.726 4.055-0.747 6.752-4.655 6.005-8.729z"/>
</svg>
