<?xml version='1.0' encoding='iso-8859-1'?>
<svg version="1.1" xmlns="http://www.w3.org/2000/svg" viewBox="0 0 463 463" xmlns:xlink="http://www.w3.org/1999/xlink" enable-background="new 0 0 463 463">
  <path d="m431,135.5c0-16.333-7.8-24.054-14.344-27.655-17.072-9.395-43.11-1.404-62.746,9.508-2.844-3.53-7.06-7.312-12.701-8.672-4.273-1.03-10.934-1.005-18.394,4.963-8.05,6.44-25.42,21.667-40.092,34.668 1.985-5.09 4.051-10.523 6.071-16.05 16.343-44.709 15.936-57.328 13.754-63.325-2.29-6.297-7.68-9.841-12.117-11.764-0.107-4.313-1.132-9.925-4.854-14.924-3.525-4.735-8.615-7.864-15.18-9.342-1.001-6.068-3.655-15.103-10.667-22.226-6.977-7.087-16.475-10.681-28.23-10.681s-21.253,3.594-28.231,10.681c-7.012,7.123-9.665,16.158-10.667,22.226-6.565,1.479-11.655,4.607-15.18,9.342-3.722,5-4.747,10.611-4.854,14.924-4.437,1.923-9.827,5.467-12.117,11.764-2.181,5.998-2.589,18.616 13.754,63.325 2.02,5.526 4.086,10.96 6.071,16.05-14.672-13.001-32.042-28.229-40.092-34.668-7.46-5.968-14.121-5.993-18.394-4.963-5.642,1.36-9.857,5.142-12.701,8.672-19.636-10.912-45.674-18.903-62.747-9.508-6.542,3.601-14.342,11.322-14.342,27.655 0,17.881 13.887,33.775 21.698,41.301-2.698,4.993-5.698,12.776-5.698,22.699 0,11.208 9.003,22.284 27.525,33.86 3.912,2.445 7.806,4.628 11.318,6.477-3.917,3.699-6.843,8.824-6.843,15.663 0,12.863 7.466,23.033 20.418,28.44-2.261,5.055-4.418,11.886-4.418,19.56 0,5.947 3.208,11.403 9.533,16.216 11.005,8.375 31.894,14.993 57.311,18.16 21.852,2.722 43.548,2.34 61.156-0.968v118.592c0,4.142 3.358,7.5 7.5,7.5s7.5-3.358 7.5-7.5v-118.608c9.79,1.841 20.822,2.791 32.466,2.791 9.302,0 18.982-0.597 28.69-1.807 25.417-3.167 46.306-9.785 57.311-18.16 6.325-4.813 9.533-10.27 9.533-16.216 0-7.674-2.157-14.505-4.418-19.56 12.952-5.407 20.418-15.577 20.418-28.44 0-6.839-2.926-11.964-6.843-15.664 3.513-1.849 7.407-4.032 11.318-6.477 18.522-11.575 27.525-22.651 27.525-33.859 0-9.923-3-17.706-5.698-22.699 7.811-7.526 21.698-23.42 21.698-41.301zm-37.152,44.929c0.251,0.294 6.152,7.336 6.152,19.071 0,1.949-1.466,9.225-20.328,21.048-11.345,7.111-22.944,11.982-23.057,12.029-3.061,1.275-4.944,4.404-4.598,7.702s2.794,5.972 6.053,6.583c0.405,0.082 9.929,2.075 9.929,8.638 0,10.7-9.795,14.962-18.013,16.654-2.51,0.517-4.571,2.294-5.484,4.689-0.913,2.395-0.529,5.105 1,7.162 0.065,0.087 6.497,8.86 6.497,19.495 0,0.528-0.756,2.103-3.616,4.279-8.697,6.618-27.887,12.447-50.082,15.211-20.266,2.525-40.186,2.213-56.184-0.763 11.245-5.722 37.054-17.262 79.144-27.438 4.026-0.974 6.501-5.026 5.528-9.052-0.973-4.026-5.024-6.5-9.052-5.528-34.511,8.343-58.437,17.527-72.948,24.081 23.627-51.512 97.462-118.052 126.998-138.638 3.398-2.368 4.233-7.043 1.864-10.441s-7.043-4.233-10.441-1.864c-17.111,11.926-48.407,38.495-76.682,68.647-15.91,16.966-34.491,38.963-47.529,61.172v-123.666c0-26.312 18.454-49.017 29.357-58.286 3.156-2.683 3.54-7.416 0.857-10.572-2.683-3.157-7.417-3.54-10.572-0.857-6.592,5.603-13.636,13.392-19.643,22.691v-56.976c0-4.142-3.358-7.5-7.5-7.5s-7.5,3.358-7.5,7.5v56.977c-6.006-9.299-13.051-17.088-19.643-22.691-3.156-2.683-7.889-2.299-10.572,0.857s-2.299,7.889 0.857,10.572c10.906,9.268 29.36,31.973 29.36,58.285v123.667c-13.038-22.209-31.619-44.206-47.529-61.172-28.275-30.152-59.571-56.721-76.682-68.647-3.398-2.369-8.074-1.535-10.441,1.864-2.369,3.398-1.534,8.073 1.864,10.441 29.536,20.586 103.372,87.126 126.998,138.638-14.511-6.553-38.436-15.737-72.948-24.081-4.024-0.973-8.079,1.501-9.052,5.528-0.973,4.026 1.501,8.079 5.528,9.052 42.096,10.177 67.906,21.719 79.144,27.437-15.998,2.976-35.919,3.288-56.184,0.764-22.194-2.765-41.385-8.593-50.082-15.211-2.86-2.176-3.616-3.751-3.616-4.279 0-10.635 6.432-19.408 6.476-19.467 1.557-2.052 1.951-4.759 1.045-7.17-0.906-2.411-2.986-4.189-5.508-4.708-8.218-1.694-18.013-5.956-18.013-16.656 0-6.562 9.524-8.556 9.882-8.628 3.259-0.611 5.73-3.29 6.077-6.587 0.347-3.298-1.514-6.432-4.574-7.707-0.114-0.048-11.563-4.846-22.91-11.937-18.998-11.875-20.475-19.184-20.475-21.141 0-11.734 5.901-18.777 6.105-19.017 1.368-1.54 2.039-3.577 1.862-5.629s-1.193-3.944-2.804-5.227c-5.886-4.69-21.163-19.963-21.163-34.127 0-10.895 4.95-13.619 6.576-14.514 10.256-5.645 33.433-0.119 53.911,12.85 1.824,1.155 4.066,1.449 6.137,0.839 2.071-0.609 3.789-2.102 4.698-4.06 0.97-2.092 3.959-6.642 7.006-7.358 1.466-0.348 3.314,0.361 5.487,2.099 14.662,11.73 63.186,55.285 63.674,55.724 2.622,2.355 6.534,2.565 9.396,0.504 2.861-2.062 3.899-5.838 2.495-9.073-0.094-0.215-9.451-21.804-18.003-45.175-16.083-43.951-14.104-52.455-13.828-53.274 0.703-1.932 4.767-3.702 7.261-4.178 2.026-0.359 3.824-1.502 4.958-3.22s1.52-3.793 1.053-5.797c-0.347-1.632-0.722-6.559 1.678-9.718 1.856-2.444 5.379-3.845 10.47-4.164 3.998-0.25 7.094-3.597 7.031-7.603-0.001-0.109 0.023-11.133 6.959-18.178 4.053-4.117 9.955-6.204 17.541-6.204 7.542,0 13.419,2.063 17.469,6.131 7.002,7.036 7.032,18.18 7.032,18.252-0.063,4.005 3.033,7.353 7.031,7.603 5.091,0.318 8.614,1.719 10.47,4.164 2.399,3.16 2.024,8.086 1.692,9.652-0.466,2.004-0.111,4.108 1.022,5.826 1.134,1.718 2.901,2.89 4.927,3.249 2.541,0.485 6.604,2.255 7.305,4.182 0.278,0.824 2.255,9.32-13.804,53.22-8.551,23.374-17.931,45.019-18.025,45.234-1.404,3.234-0.366,7.011 2.495,9.072 2.861,2.061 6.772,1.852 9.395-0.504 0.489-0.439 49.011-43.993 63.674-55.724 2.172-1.737 4.018-2.448 5.487-2.099 3.046,0.716 6.036,5.266 6.989,7.32 0.892,1.982 2.601,3.48 4.683,4.105 2.083,0.625 4.333,0.316 6.169-0.847 20.479-12.97 43.655-18.494 53.911-12.85 1.626,0.895 6.576,3.619 6.576,14.514 0,14.164-15.277,29.437-21.155,34.12-1.618,1.281-2.66,3.145-2.84,5.2-0.178,2.055 0.474,4.067 1.845,5.609z"/>
</svg>
