<?xml version='1.0' encoding='iso-8859-1'?>
<svg version="1.1" xmlns="http://www.w3.org/2000/svg" viewBox="0 0 463 463" xmlns:xlink="http://www.w3.org/1999/xlink" enable-background="new 0 0 463 463">
  <path d="m438.079,163.101c1.149-2.101 1.228-4.625 0.207-6.793-1.02-2.167-3.013-3.718-5.365-4.172-40.319-7.783-68.069,8.219-69.23,8.904-0.545,0.321-1.047,0.71-1.494,1.157l-32.632,32.633c-2.361,2.362-5.491,3.535-8.83,3.295-3.331-0.237-6.27-1.839-8.273-4.511-3.7-4.934-2.827-11.817 1.989-15.67l25.735-20.588c1.778-1.423 2.814-3.578 2.814-5.856v-48c0-2.476-1.222-4.792-3.266-6.19-2.042-1.397-4.644-1.697-6.953-0.8-4.79,1.863-10.211,3.882-14.487,5.385-3.166-22.246-15.937-41.629-16.554-42.555-1.877-2.814-5.402-4.025-8.612-2.955l-15.557,5.186c-3.905-13.697-15.093-25.441-24.431-35.243-6.299-6.614-14.14-14.845-14.14-18.828 0-4.142-3.357-7.5-7.5-7.5s-7.5,3.358-7.5,7.5c0,3.983-7.841,12.214-14.141,18.827-9.338,9.802-20.525,21.546-24.431,35.243l-15.557-5.186c-3.211-1.068-6.736,0.141-8.612,2.955-0.617,0.926-13.388,20.31-16.554,42.555-4.276-1.503-9.697-3.522-14.487-5.385-2.311-0.897-4.911-0.597-6.953,0.8-2.044,1.398-3.266,3.714-3.266,6.19v48c0,2.278 1.036,4.433 2.814,5.856l25.735,20.588c4.816,3.853 5.689,10.736 1.989,15.67-2.004,2.672-4.942,4.273-8.273,4.51-3.33,0.237-6.469-0.933-8.829-3.295l-32.633-32.633c-0.447-0.447-0.949-0.836-1.494-1.157-1.161-0.685-28.907-16.687-69.23-8.904-2.353,0.454-4.347,2.004-5.366,4.172-1.02,2.167-0.942,4.692 0.208,6.793 0.085,0.154 8.522,15.598 15.751,31.502 6.661,14.654-2.904,21.216-4.814,22.34-2.186,1.214-3.622,3.437-3.831,5.928s0.836,4.923 2.788,6.484l23.305,18.647h-10.619c-2.469,0-4.779,1.215-6.179,3.249-1.399,2.034-1.708,4.626-0.826,6.932 0.06,0.156 6.041,15.758 12.984,31.451 14.142,31.963 19.403,35.778 23.96,37.08 16.667,4.762 30.579,6.789 39.478,7.651l-20.439,54.504c-0.715,1.907-0.624,4.024 0.253,5.863 0.878,1.839 2.465,3.241 4.397,3.886l20.442,6.814 6.814,20.442c1.197,3.589 4.879,5.723 8.586,4.983l36.064-7.213 13.161,13.162c1.418,1.418 3.331,2.197 5.304,2.197 0.398,0 0.801-0.032 1.201-0.097 2.38-0.386 4.429-1.893 5.507-4.049l16-32c0.683-1.364 0.933-2.904 0.717-4.415l-4.738-33.168c-1.494-10.456 3.85-20.654 13.297-25.378l.517-.258v115.864c0,4.142 3.357,7.5 7.5,7.5s7.5-3.358 7.5-7.5v-115.865l.517,.258c9.447,4.724 14.791,14.922 13.297,25.378l-4.738,33.167c-0.216,1.51 0.034,3.05 0.717,4.415l16,32c1.078,2.156 3.127,3.663 5.507,4.049 0.4,0.065 0.802,0.097 1.201,0.097 1.973,0 3.886-0.779 5.304-2.197l13.161-13.162 36.064,7.213c3.71,0.74 7.39-1.395 8.586-4.983l6.814-20.442 20.442-6.814c1.933-0.645 3.52-2.047 4.397-3.886 0.877-1.839 0.968-3.956 0.253-5.863l-20.439-54.504c8.898-0.862 22.811-2.889 39.478-7.651 4.557-1.302 9.818-5.117 23.96-37.08 6.943-15.693 12.925-31.295 12.984-31.451 0.882-2.306 0.573-4.897-0.826-6.932-1.399-2.034-3.71-3.249-6.179-3.249h-10.619l23.305-18.644c1.952-1.562 3.035-3.972 2.825-6.463-0.209-2.491-1.608-4.693-3.794-5.907-1.984-1.167-11.55-7.729-4.889-22.383 7.219-15.881 15.666-31.346 15.751-31.5zm-110.079-48.757v33.552l-22.921,18.336c-11.182,8.946-13.21,24.927-4.618,36.383 4.585,6.114 11.587,9.931 19.209,10.473 7.637,0.546 15.097-2.246 20.501-7.651l31.859-31.86c3.564-1.833 19.629-9.315 42.651-8.474-80.828,91.421-144.518,124.381-175.681,135.947v-89.537c32.698-22.785 68.171-75.095 77.592-93.25 2.49-0.707 5.652-1.829 9.918-3.376 0.5-0.181 0.997-0.363 1.49-0.543zm-85.72-77.671c10.181,10.687 21.72,22.801 21.72,34.827 0,2.411 1.159,4.675 3.114,6.084 1.957,1.41 4.47,1.794 6.758,1.031l18.271-6.09c4.159,7.509 11.366,22.608 11.814,37.528-5.712,12.25-36.188,58.053-64.957,82.497v-159.336c1.07,1.138 2.165,2.289 3.28,3.459zm-71.423,35.852l18.271,6.09c2.289,0.762 4.801,0.379 6.758-1.031 1.955-1.41 3.114-3.674 3.114-6.084 0-12.026 11.539-24.14 21.721-34.827 1.115-1.171 2.209-2.321 3.279-3.459v159.336c-28.769-24.444-59.245-70.248-64.957-82.497 0.449-14.921 7.657-30.022 11.814-37.528zm-79.889,101.049l31.862,31.863c5.404,5.404 12.878,8.187 20.5,7.65 7.622-0.542 14.624-4.359 19.209-10.473 8.592-11.456 6.563-27.437-4.618-36.383l-22.921-18.335v-33.552c0.493,0.181 0.99,0.362 1.49,0.543 4.266,1.546 7.428,2.668 9.917,3.375 9.419,18.153 44.894,70.466 77.593,93.251v89.537c-31.163-11.566-94.852-44.525-175.68-135.946 23.054-0.838 39.133,6.661 42.648,8.47zm125.807,152.904c-15.23,7.615-23.846,24.058-21.438,40.916l4.407,30.848-10.299,20.598-8.642-8.642c-1.774-1.773-4.315-2.541-6.774-2.051l-33.508,6.702-5.906-17.719c-0.747-2.24-2.504-3.997-4.743-4.744l-16.617-5.539 21.268-56.713c0.862-2.3 0.539-4.876-0.857-6.897s-3.699-3.229-6.155-3.236c-0.189,0-18.989-0.133-45.022-7.449-4.453-4.45-14.986-27.184-23.985-49.551h20.996c3.186,0 6.022-2.012 7.077-5.018 1.055-3.005 0.096-6.349-2.392-8.339l-33.072-26.458c0.863-1.039 1.717-2.201 2.514-3.488 3.11-5.024 5.828-12.708 3.579-22.829 17.762,18.589 39.219,39.245 63.137,58.7 37.085,30.166 71.924,50.798 103.657,61.408v5.888l-7.225,3.613zm162.04-76.834c-2.487,1.99-3.446,5.333-2.392,8.339 1.055,3.006 3.892,5.018 7.077,5.018h20.998c-8.999,22.368-19.532,45.101-23.985,49.551-26.033,7.315-44.833,7.448-45.013,7.448-2.46,0-4.764,1.206-6.164,3.228-1.401,2.022-1.722,4.602-0.858,6.905l21.268,56.713-16.617,5.539c-2.239,0.747-3.996,2.504-4.743,4.744l-5.906,17.719-33.508-6.702c-2.459-0.49-5,0.278-6.774,2.051l-8.642,8.642-10.299-20.598 4.407-30.848c2.408-16.858-6.207-33.301-21.438-40.916l-7.226-3.612v-5.888c31.733-10.61 66.572-31.242 103.657-61.408 23.917-19.455 45.375-40.111 63.137-58.7-2.249,10.121 0.469,17.805 3.579,22.829 0.797,1.288 1.65,2.449 2.514,3.488l-33.072,26.458z"/>
</svg>
