<?xml version='1.0' encoding='iso-8859-1'?>
<svg version="1.1" xmlns="http://www.w3.org/2000/svg" viewBox="0 0 463 463" xmlns:xlink="http://www.w3.org/1999/xlink" enable-background="new 0 0 463 463">
  <path d="m430.481,212.759c-0.777-1.979-2.357-3.535-4.348-4.281l-59.947-22.48-7.289-43.73c-0.603-3.617-3.731-6.267-7.397-6.267h-36.562c-23.118-27.069-75.938-95.802-75.938-128.501 0-4.142-3.357-7.5-7.5-7.5s-7.5,3.358-7.5,7.5c0,32.678-52.821,101.424-75.938,128.5h-36.562c-3.666,0-6.795,2.65-7.397,6.267l-7.289,43.73-59.947,22.48c-1.99,0.747-3.57,2.302-4.348,4.281-0.776,1.979-0.678,4.194 0.273,6.095l45.039,90.078-18.491,12.329c-3.411,2.274-4.364,6.865-2.14,10.309 3.4,5.264 34.031,51.431 62.3,51.431h104.5v72.5c0,4.142 3.357,7.5 7.5,7.5s7.5-3.358 7.5-7.5v-72.5h104.5c28.269,0 58.9-46.167 62.3-51.431 2.225-3.444 1.271-8.035-2.14-10.309l-18.491-12.328 45.039-90.078c0.951-1.901 1.05-4.117 0.273-6.095zm-24.4,4.219l-167.081,97.464v-39.976l107.596-114.769 5.506,33.036c0.439,2.642 2.256,4.849 4.764,5.79l49.215,18.455zm-94.581-65.978h22.688l-95.188,101.534v-51.264l41.887-83.775c13.587,17.818 24.346,30.228 24.953,30.926 1.425,1.639 3.489,2.579 5.66,2.579zm-46.14-54.692c1.84,2.623 3.677,5.194 5.498,7.706l-31.858,63.716v-113.771c6.618,12.613 15.41,26.745 26.36,42.349zm-41.36-42.349v113.771l-31.858-63.716c1.82-2.511 3.657-5.083 5.498-7.706 10.95-15.604 19.742-29.736 26.36-42.349zm-72.5,97.041c2.171,0 4.235-0.94 5.659-2.579 0.607-0.698 11.367-13.108 24.953-30.926l41.888,83.775v51.264l-95.188-101.534h22.688zm-45.366,47.522c2.508-0.94 4.324-3.147 4.764-5.79l5.506-33.036 107.596,114.77v39.976l-167.081-97.464 49.215-18.456zm-48.667,36.142l166.533,97.144v33.749l-142.845-40.813 10.506-7.004c3.147-2.098 4.239-6.211 2.548-9.594l-36.742-73.482zm25.216,106.117l95.267,27.219h-58.45c-10.611,0-25.188-13.317-36.817-27.219zm260.817,27.219h-58.449l95.164-27.19c-1.543,1.854-3.174,3.751-4.897,5.653-12.587,13.889-23.886,21.537-31.818,21.537zm27.84-50.26l10.506,7.004-142.846,40.813v-33.749l166.533-97.144-36.741,73.482c-1.691,3.383-0.6,7.496 2.548,9.594z"/>
</svg>
