<?xml version='1.0' encoding='iso-8859-1'?>
<svg version="1.1" xmlns="http://www.w3.org/2000/svg" viewBox="0 0 463 463" xmlns:xlink="http://www.w3.org/1999/xlink" enable-background="new 0 0 463 463">
  <path d="m292.779,128.662c-7.699-19.244-13.779-34.444-13.779-49.162 0-53.826-42.095-77.587-43.887-78.572-2.323-1.277-5.148-1.232-7.431,0.117-2.282,1.349-3.682,3.803-3.682,6.455 0,4.745-5.645,13.901-11.621,23.594-10.882,17.65-25.785,41.822-28.352,71.766-1.79,20.888-9.982,35.656-18.655,51.292-10.507,18.941-21.372,38.528-21.372,69.348 0,34.621 6.28,57.148 12.353,78.934 4.689,16.824 9.539,34.22 11.678,57.746 3.248,35.729 26.904,54.093 42.558,66.245 5.659,4.392 13.411,10.41 13.411,13.075v16c0,4.142 3.358,7.5 7.5,7.5s7.5-3.358 7.5-7.5v-16c0-9.188 8.01-17.899 19.097-29.955 24.252-26.373 60.903-66.227 60.903-162.045 0-53.29-14.539-89.635-26.221-118.838zm-121.977,169.743c-5.525-19.819-10.769-38.64-11.665-66.424 9.739,8.742 22.336,15.844 33.951,22.386 14.489,8.162 30.912,17.413 30.912,25.133v56.334c-6.553-4.952-14.617-9.503-22.882-14.162-10.255-5.781-20.836-11.749-29.023-18.612-0.432-1.559-0.863-3.111-1.293-4.655zm93.254-216.563c0.525,15.395 6.12,30.593 12.915,47.678-5.915,4.147-12.638,7.996-19.19,11.734-6.701,3.823-13.254,7.565-18.781,11.578v-47.666c0-5.32 5.581-9.518 14.771-15.799 3.391-2.318 6.956-4.762 10.285-7.525zm-25.056,173.658c0-7.087 15.543-15.784 29.257-23.457 11.312-6.329 23.65-13.235 33.061-21.813 1.677,11.425 2.682,23.786 2.682,37.27 0,6.53-0.192,12.852-0.541,19.012-7.898,11.609-24.888,21.227-39.913,29.722-8.904,5.034-17.592,9.946-24.546,15.297v-56.031zm58.869-63.837c-7.176,10.636-22.935,19.456-36.937,27.289-7.9,4.42-15.613,8.74-21.933,13.419v-56.871c0-6.26 13.927-14.207 26.215-21.217 5.837-3.33 11.804-6.747 17.436-10.481 5.455,13.926 11.102,29.581 15.219,47.861zm-35.926-130.372c-2.616,6.096-9.732,10.973-16.636,15.691-2.083,1.424-4.223,2.888-6.307,4.436v-58.97c8.191,7.505 18.597,20.218 22.943,38.843zm-37.943-20.463v62.769c-1.897-1.426-3.834-2.782-5.723-4.104-6.603-4.619-12.86-9.008-15.662-14.56 4.953-17 13.702-31.624 21.385-44.105zm-25.028,63.312c0.012-0.139 0.029-0.276 0.041-0.415 3.424,2.986 7.141,5.594 10.665,8.06 8.912,6.232 14.322,10.4 14.322,15.715v48.323c-6.654-5.056-14.873-9.712-23.297-14.48-5.616-3.179-11.377-6.445-16.786-9.875 7.091-13.439 13.406-28.082 15.055-47.328zm-22.271,60.517c5.454,3.423 11.103,6.622 16.613,9.741 14.384,8.14 30.686,17.367 30.686,25.102v56.378c-6.715-5.092-15.029-9.779-23.551-14.579-15.975-8.999-34.031-19.175-40.538-31.756 2.41-17.892 9.288-31.289 16.79-44.886zm43.086,249.918c-15.219-11.814-34.16-26.519-36.818-55.754-1.147-12.621-3.01-23.483-5.2-33.407 5.231,3.251 10.645,6.316 15.983,9.325 14.178,7.992 30.248,17.051 30.248,24.761v58.378c-1.366-1.089-2.772-2.184-4.213-3.303zm27.268-15.184c-2.846,3.094-5.555,6.044-8.056,8.926v-72.817c0-8.157 16.962-17.748 31.928-26.209 10.102-5.711 21.009-11.892 30.218-19.164-3.093,21.529-8.718,40.642-16.976,57.769-11.284,23.408-25.606,38.982-37.114,51.495z"/>
</svg>
