<?xml version='1.0' encoding='iso-8859-1'?>
<svg version="1.1" xmlns="http://www.w3.org/2000/svg" viewBox="0 0 463 463" xmlns:xlink="http://www.w3.org/1999/xlink" enable-background="new 0 0 463 463">
  <path d="m354.799,304.765c-2.065-1.012-51.024-24.765-91.299-24.765-9.887,0-18.721,4.583-24.5,11.732v-32.463c5.779,7.149 14.613,11.732 24.5,11.732 40.567,0 82.043-24.005 83.789-25.027 2.298-1.346 3.711-3.809 3.711-6.473s-1.413-5.127-3.711-6.473c-1.746-1.023-43.222-25.028-83.789-25.028-9.887,0-18.721,4.583-24.5,11.732v-30.514c5.444,5.977 13.577,9.782 22.654,9.782 37.43,0 75.738-20.017 77.351-20.869 2.458-1.299 3.996-3.851 3.996-6.631s-1.538-5.332-3.996-6.631c-1.613-0.852-39.922-20.869-77.351-20.869-9.077,0-17.21,3.805-22.654,9.782v-22.844c0.21,0.225 0.417,0.453 0.636,0.672 4.956,4.956 11.576,7.637 18.777,7.637 0.496,0 0.996-0.013 1.497-0.038 7.488-0.383 14.64-3.622 20.14-9.122 26.467-26.466 39.401-67.709 39.938-69.452 0.82-2.656 0.103-5.548-1.863-7.514-1.965-1.965-4.856-2.684-7.514-1.863-1.465,0.452-30.854,9.669-55.906,28.324 0.193-1.431 0.296-2.896 0.296-4.39 0-34.252-16.008-69.356-16.689-70.833-1.227-2.657-3.886-4.359-6.812-4.359s-5.585,1.702-6.811,4.359c-0.681,1.477-16.689,36.581-16.689,70.833 0,1.494 0.103,2.959 0.296,4.39-25.052-18.655-54.441-27.872-55.906-28.324-2.657-0.822-5.549-0.103-7.514,1.863-1.966,1.966-2.683,4.858-1.863,7.514 0.538,1.743 13.472,42.985 39.938,69.452 5.5,5.5 12.652,8.739 20.14,9.122 0.501,0.025 1,0.038 1.497,0.038 7.2,0 13.821-2.681 18.777-7.637 0.219-0.219 0.426-0.447 0.636-0.672v22.844c-5.444-5.977-13.577-9.782-22.654-9.782-37.43,0-75.738,20.017-77.351,20.869-2.458,1.299-3.996,3.851-3.996,6.631s1.538,5.332 3.996,6.631c1.613,0.853 39.921,20.869 77.351,20.869 9.077,0 17.21-3.805 22.654-9.782v30.514c-5.78-7.149-14.614-11.732-24.501-11.732-40.567,0-82.043,24.005-83.789,25.027-2.298,1.346-3.711,3.809-3.711,6.473s1.413,5.127 3.711,6.473c1.746,1.022 43.222,25.027 83.789,25.027 9.887,0 18.721-4.583 24.5-11.732v32.463c-5.779-7.148-14.613-11.731-24.5-11.731-40.275,0-89.234,23.753-91.299,24.765-2.571,1.259-4.201,3.873-4.201,6.735s1.63,5.476 4.201,6.735c2.065,1.012 51.024,24.765 91.299,24.765 9.887,0 18.721-4.583 24.5-11.732v29.429c-7.902-8.385-21.125-11.239-33.085-6.165-34.457,14.618-61.905,48.006-63.057,49.42-1.756,2.156-2.175,5.105-1.089,7.665 1.086,2.559 3.498,4.308 6.268,4.544 0.602,0.051 5.735,0.466 13.583,0.466 15.838,0 42.735-1.689 65.774-11.463 4.558-1.934 8.514-4.834 11.605-8.438v58.774c0,4.142 3.358,7.5 7.5,7.5s7.5-3.358 7.5-7.5v-58.774c3.091,3.604 7.047,6.505 11.605,8.438 23.041,9.775 49.937,11.463 65.774,11.463 7.847,0 12.981-0.415 13.583-0.466 2.77-0.236 5.182-1.985 6.268-4.544 1.086-2.56 0.667-5.509-1.089-7.665-1.151-1.414-28.6-34.803-63.057-49.42-11.96-5.074-25.183-2.221-33.085,6.165v-29.429c5.779,7.149 14.613,11.732 24.5,11.732 40.275,0 89.234-23.753 91.299-24.765 2.571-1.259 4.201-3.873 4.201-6.735s-1.628-5.476-4.199-6.735zm-91.299-81.765c23.803,0 48.862,9.706 63.488,16.5-14.626,6.795-39.685,16.5-63.488,16.5-9.098,0-16.5-7.402-16.5-16.5s7.402-16.5 16.5-16.5zm-1.846-64c20.424,0 41.837,6.978 55.594,12.506-13.739,5.526-35.123,12.494-55.594,12.494-8.08,0-14.654-5.607-14.654-12.5s6.574-12.5 14.654-12.5zm-60.308,25c-20.424,0-41.837-6.978-55.594-12.506 13.739-5.526 35.123-12.494 55.594-12.494 8.08,0 14.654,5.607 14.654,12.5s-6.574,12.5-14.654,12.5zm-1.846,72c-23.803,0-48.862-9.706-63.488-16.5 14.626-6.795 39.685-16.5 63.488-16.5 9.098,0 16.5,7.402 16.5,16.5s-7.402,16.5-16.5,16.5zm0,72c-23.799,0-52.078-9.638-69.195-16.5 17.117-6.862 45.396-16.5 69.195-16.5 9.098,0 16.5,7.402 16.5,16.5s-7.402,16.5-16.5,16.5zm15.298,55.587c-1.592,3.425-4.526,6.184-8.262,7.769-18.803,7.977-41.239,9.916-56.063,10.199 10.489-10.453 27.454-25.219 46.299-33.214 2.149-0.912 4.365-1.343 6.495-1.343 5.242,0 9.963,2.616 11.877,7.127 1.248,2.939 1.125,6.299-0.346,9.462zm33.057-9.462c1.914-4.512 6.634-7.127 11.877-7.127 2.13,0 4.346,0.432 6.495,1.343 18.796,7.974 35.777,22.752 46.284,33.213-14.825-0.285-37.253-2.226-56.047-10.199-3.735-1.584-6.669-4.343-8.262-7.769-1.471-3.162-1.594-6.522-0.347-9.461zm21.588-254.644c-2.869,2.869-6.526,4.555-10.298,4.748-3.479,0.175-6.645-0.967-8.902-3.225-4.874-4.874-4.19-13.487 1.523-19.201 14.438-14.438 34.503-24.642 48.14-30.462-5.821,13.638-16.025,33.703-30.463,48.14zm-37.938-90.872c4.086,12.503 8.495,29.868 8.495,46.583 0,6.823-3.972,12.808-8.5,12.808s-8.5-5.985-8.5-12.808c0-16.678 4.417-34.063 8.505-46.583zm-18.748,92.395c-2.257,2.257-5.415,3.396-8.902,3.225-3.772-0.193-7.429-1.879-10.298-4.748-14.438-14.437-24.642-34.503-30.462-48.14 13.637,5.82 33.702,16.024 48.14,30.462 5.713,5.714 6.396,14.327 1.522,19.201zm50.743,206.996c-9.098,0-16.5-7.402-16.5-16.5s7.402-16.5 16.5-16.5c23.799,0 52.078,9.638 69.195,16.5-17.117,6.862-45.396,16.5-69.195,16.5z"/>
</svg>
