<?xml version='1.0' encoding='iso-8859-1'?>
<svg version="1.1" xmlns="http://www.w3.org/2000/svg" viewBox="0 0 462.995 462.995" xmlns:xlink="http://www.w3.org/1999/xlink" enable-background="new 0 0 462.995 462.995">
  <path d="m378.318,204.691c15.58-15.579 16.776-40 2.724-55.597-7.345-8.151-17.412-12.798-28.348-13.084-10.929-0.292-21.229,3.815-28.971,11.552l-42.743,42.744c-2.524,2.523-5.438,1.592-6.271,1.248-0.833-0.345-3.553-1.749-3.553-5.317v-7.999c0-1.537 0.599-2.982 1.686-4.069l57.477-57.477c15.58-15.579 16.776-40 2.724-55.597-7.344-8.151-17.412-12.798-28.348-13.084-10.924-0.286-21.23,3.815-28.971,11.552l-4.567,4.567v-23.265c0-20.912-15.659-38.783-35.648-40.686-11.119-1.059-22.21,2.619-30.424,10.09-8.218,7.474-12.93,18.126-12.928,29.226v24.634l-3.292-3.292c-15.581-15.582-40.007-16.781-55.606-2.729-8.156,7.346-12.804,17.417-13.088,28.356-0.285,10.941 3.819,21.226 11.555,28.959l58.746,58.746c1.087,1.087 1.686,2.532 1.686,4.069v7.999c0,3.568-2.719,4.972-3.553,5.317-0.833,0.345-3.749,1.274-6.271-1.248l-41.468-41.469c-15.581-15.583-40.007-16.781-55.606-2.729-8.156,7.346-12.804,17.417-13.088,28.356-0.285,10.941 3.819,21.226 11.555,28.959l106.745,106.745c1.087,1.087 1.686,2.532 1.686,4.069 0,3.568-2.719,4.971-3.552,5.316-0.833,0.345-3.749,1.274-6.271-1.248l-1.467-1.467c-15.581-15.582-40.007-16.782-55.606-2.729-8.156,7.346-12.804,17.417-13.088,28.356-0.285,10.941 3.819,21.226 11.555,28.959l80.004,80.004c7.459,7.459 17.377,11.567 27.926,11.567h0.001c0,0 0.001,0 0.001,0 10.549,0 20.466-4.108 27.924-11.567l78.735-78.735c15.58-15.579 16.776-40 2.724-55.597-7.345-8.151-17.412-12.798-28.348-13.084-10.938-0.276-21.229,3.816-28.971,11.552l-2.742,2.742c-2.522,2.523-5.438,1.593-6.271,1.248-0.833-0.345-3.552-1.749-3.552-5.316 0-1.537 0.599-2.982 1.686-4.069l105.472-105.478zm-109.35,128.72c7.902,3.273 16.57,1.549 22.618-4.5l2.74-2.74c4.801-4.798 11.182-7.35 17.974-7.166 6.783,0.177 13.033,3.065 17.597,8.13 8.563,9.503 7.582,25.182-2.187,34.95l-78.735,78.735c-2.798,2.798-6.156,4.829-9.818,6.003v-20.223l77.803-77.803c2.929-2.929 2.929-7.678 0-10.606-2.929-2.929-7.678-2.929-10.606,0l-67.196,67.196v-106.787l117.802-117.803c2.929-2.929 2.929-7.678 0-10.606-2.929-2.929-7.678-2.929-10.606,0l-107.198,107.196v-114.785l69.804-69.804c2.929-2.929 2.929-7.678 0-10.606-2.929-2.929-7.678-2.929-10.606,0l-59.197,59.197v-101.894c0-4.142-3.358-7.5-7.5-7.5s-7.5,3.358-7.5,7.5v101.894l-59.197-59.197c-2.929-2.929-7.678-2.929-10.606,0-2.929,2.929-2.929,7.678 0,10.606l69.803,69.803v114.785l-107.197-107.196c-2.929-2.929-7.678-2.929-10.606,0-2.929,2.929-2.929,7.678 0,10.606l117.802,117.804v106.788l-67.196-67.196c-2.929-2.929-7.678-2.929-10.606,0-2.929,2.929-2.929,7.678 0,10.606l77.802,77.802v20.224c-3.663-1.173-7.022-3.205-9.82-6.004l-80.005-80.005c-4.798-4.796-7.343-11.175-7.167-17.962 0.176-6.785 3.064-13.036 8.132-17.601 4.343-3.912 9.974-5.832 15.742-5.832 6.858,0 13.912,2.715 19.219,8.022l1.467,1.467c6.048,6.048 14.716,7.773 22.618,4.5 7.903-3.273 12.813-10.621 12.813-19.175 0-5.544-2.159-10.756-6.079-14.676l-106.746-106.744c-4.797-4.796-7.342-11.175-7.166-17.962 0.177-6.785 3.064-13.036 8.132-17.601 9.507-8.563 25.19-7.581 34.961,2.191l41.468,41.469c6.048,6.048 14.713,7.771 22.618,4.499 7.903-3.273 12.813-10.621 12.813-19.175v-7.999c0-5.544-2.159-10.756-6.079-14.676l-58.747-58.747c-4.797-4.796-7.342-11.175-7.166-17.962 0.177-6.785 3.065-13.036 8.132-17.601 9.507-8.563 25.19-7.58 34.961,2.191l16.096,16.096c2.145,2.146 5.373,2.788 8.173,1.626 2.803-1.161 4.63-3.896 4.63-6.929v-42.741c-0.001-6.884 2.922-13.491 8.021-18.127 5.17-4.702 11.89-6.925 18.911-6.254 12.375,1.178 22.069,12.49 22.069,25.753v41.371c0,3.034 1.827,5.768 4.63,6.929 2.804,1.162 6.028,0.52 8.173-1.626l17.369-17.369c4.802-4.798 11.18-7.35 17.974-7.166 6.783,0.177 13.033,3.065 17.597,8.13 8.563,9.504 7.582,25.182-2.187,34.95l-57.477,57.477c-3.92,3.92-6.079,9.132-6.079,14.676v7.999c0,8.554 4.91,15.902 12.813,19.175 7.902,3.274 16.569,1.55 22.618-4.499l42.741-42.742c4.802-4.798 11.181-7.349 17.974-7.166 6.783,0.177 13.033,3.065 17.597,8.13 8.563,9.504 7.582,25.182-2.187,34.95l-105.478,105.476c-3.92,3.92-6.079,9.132-6.079,14.676 0,8.554 4.909,15.901 12.812,19.175z"/>
</svg>
