<?xml version='1.0' encoding='iso-8859-1'?>
<svg version="1.1" xmlns="http://www.w3.org/2000/svg" viewBox="0 0 463.002 463.002" xmlns:xlink="http://www.w3.org/1999/xlink" enable-background="new 0 0 463.002 463.002">
  <path d="m446.104,243.946c-1.964-3.647-6.511-5.012-10.159-3.048l-89.784,48.345 97.608-67.575c3.406-2.358 4.255-7.03 1.897-10.436-2.358-3.406-7.03-4.255-10.436-1.897l-161.374,111.722 139.37-164.71c2.675-3.162 2.281-7.895-0.881-10.57-3.164-2.675-7.896-2.28-10.57,0.881l-101.162,119.555 97.19-150.645c2.246-3.48 1.244-8.123-2.236-10.368-3.479-2.244-8.122-1.244-10.368,2.236l-108.468,168.124 81.631-185.031c1.672-3.79-0.045-8.217-3.834-9.889-3.79-1.672-8.218,0.044-9.889,3.834l-49.533,112.274 47.491-138.819c1.341-3.919-0.75-8.183-4.668-9.524-3.921-1.343-8.184,0.749-9.524,4.668l-69.72,203.798 44.184-231.967c0.775-4.069-1.896-7.996-5.964-8.771-4.07-0.775-7.996,1.896-8.771,5.964l-40.667,213.504 15.518-227.59c0.282-4.133-2.84-7.711-6.972-7.993-4.144-0.296-7.711,2.84-7.993,6.972l-16.518,242.258-16.519-242.256c-0.281-4.133-3.846-7.263-7.993-6.972-4.132,0.282-7.254,3.86-6.972,7.993l15.518,227.59-40.667-213.505c-0.775-4.069-4.706-6.739-8.771-5.964-4.069,0.775-6.739,4.702-5.964,8.771l44.184,231.967-69.72-203.798c-1.341-3.918-5.603-6.01-9.524-4.668-3.919,1.341-6.009,5.604-4.668,9.524l47.491,138.819-49.534-112.275c-1.672-3.79-6.1-5.507-9.889-3.834-3.79,1.672-5.506,6.1-3.834,9.889l81.63,185.031-108.467-168.124c-2.247-3.481-6.889-4.481-10.368-2.236-3.48,2.246-4.482,6.888-2.236,10.368l97.19,150.645-101.163-119.556c-2.675-3.162-7.407-3.557-10.57-0.881-3.162,2.676-3.556,7.408-0.881,10.57l139.37,164.71-161.375-111.721c-3.404-2.358-8.078-1.508-10.436,1.897-2.358,3.406-1.508,8.078 1.897,10.436l97.608,67.575-89.784-48.345c-3.648-1.964-8.195-0.599-10.159,3.048s-0.599,8.195 3.048,10.159l204.056,109.876v91.52c0,4.142 3.358,7.5 7.5,7.5s7.5-3.358 7.5-7.5v-91.52l204.056-109.876c3.648-1.964 5.012-6.512 3.048-10.159z"/>
</svg>
