<?xml version="1.0" encoding="UTF-8" standalone="no"?>
<!-- Generator: Adobe Illustrator 18.0.0, SVG Export Plug-In . SVG Version: 6.00 Build 0)  -->

<svg
   xmlns:dc="http://purl.org/dc/elements/1.1/"
   xmlns:cc="http://creativecommons.org/ns#"
   xmlns:rdf="http://www.w3.org/1999/02/22-rdf-syntax-ns#"
   xmlns:svg="http://www.w3.org/2000/svg"
   xmlns="http://www.w3.org/2000/svg"
   xmlns:sodipodi="http://sodipodi.sourceforge.net/DTD/sodipodi-0.dtd"
   xmlns:inkscape="http://www.inkscape.org/namespaces/inkscape"
   version="1.1"
   id="Capa_1"
   x="0px"
   y="0px"
   viewBox="0 0 254.869 254.869"
   style="enable-background:new 0 0 254.869 254.869;"
   xml:space="preserve"
   inkscape:version="0.91 r13725"
   sodipodi:docname="cordate.svg"><metadata
     id="metadata41"><rdf:RDF><cc:Work
         rdf:about=""><dc:format>image/svg+xml</dc:format><dc:type
           rdf:resource="http://purl.org/dc/dcmitype/StillImage" /></cc:Work></rdf:RDF></metadata><defs
     id="defs39" /><sodipodi:namedview
     pagecolor="#ffffff"
     bordercolor="#666666"
     borderopacity="1"
     objecttolerance="10"
     gridtolerance="10"
     guidetolerance="10"
     inkscape:pageopacity="0"
     inkscape:pageshadow="2"
     inkscape:window-width="690"
     inkscape:window-height="480"
     id="namedview37"
     showgrid="false"
     inkscape:zoom="0.92596588"
     inkscape:cx="127.4345"
     inkscape:cy="127.4345"
     inkscape:window-x="0"
     inkscape:window-y="0"
     inkscape:window-maximized="0"
     inkscape:current-layer="Capa_1" /><g
     id="g3"
     transform="matrix(-1,0,0,1,254.86895,0)"><path
       d="m 251.263,94.733 c -3.039,-1.324 -6.573,0.066 -7.896,3.105 -10.962,25.172 -30.66,26.938 -41.701,25.658 7.041,-11.526 10.735,-24.634 10.735,-38.406 0,-0.73 -0.011,-1.457 -0.032,-2.18 -0.696,-24.048 -13.864,-45.25 -35.225,-56.715 -21.761,-11.68 -47.229,-10.892 -68.128,2.113 -0.189,0.118 -0.372,0.247 -0.548,0.385 L 10.297,106.185 C 3.754,111.351 0.001,119.094 0,127.43 c 0,8.336 3.753,16.08 10.296,21.246 l 98.17,77.498 c 0.175,0.138 0.358,0.267 0.548,0.385 11.063,6.885 23.408,10.346 35.806,10.346 11.021,0 22.083,-2.735 32.324,-8.232 21.36,-11.465 34.529,-32.667 35.225,-56.713 0.021,-0.724 0.032,-1.451 0.032,-2.181 0,-12.117 -2.863,-23.72 -8.345,-34.187 0.947,0.046 1.922,0.074 2.927,0.074 14.773,-0.001 35.425,-5.57 47.386,-33.036 1.322,-3.038 -0.068,-6.574 -3.106,-7.897 z m -50.889,76.878 c -0.57,19.701 -11.376,37.081 -28.905,46.489 -17.836,9.571 -38.684,8.986 -55.837,-1.558 l -97.9,-77.285 C 14.089,136.382 12,132.071 12,127.43 c 10e-4,-4.64 2.09,-8.95 5.732,-11.826 l 97.901,-77.279 c 17.153,-10.542 38.002,-11.127 55.834,-1.557 17.529,9.409 28.335,26.788 28.906,46.492 0.018,0.608 0.026,1.218 0.026,1.831 0,12.956 -3.9,25.207 -11.293,35.668 -3.318,-0.674 -8.603,-1.663 -15.336,-2.641 1.094,-8.686 1.258,-30.922 -21.257,-48.555 -2.608,-2.043 -6.38,-1.584 -8.423,1.024 -2.043,2.609 -1.585,6.38 1.024,8.423 17.937,14.048 17.555,31.483 16.762,37.606 -5.662,-0.609 -11.885,-1.123 -18.487,-1.436 -4.221,-7.983 -16.729,-25.845 -44.816,-27.601 -3.284,-0.2 -6.156,2.307 -6.362,5.614 -0.207,3.308 2.307,6.156 5.614,6.363 16.423,1.026 25.969,8.924 31.068,15.303 -0.018,0 -0.036,0 -0.054,0 -19.563,0.096 -37.168,2.389 -52.323,6.816 -3.181,0.929 -5.006,4.261 -4.077,7.441 0.929,3.181 4.257,5.007 7.442,4.077 14.081,-4.113 30.572,-6.244 49.017,-6.334 0.404,-0.002 0.805,-0.003 1.208,-0.003 0.159,0 0.316,0.002 0.475,0.003 -4.541,6.587 -14.343,16.46 -32.756,17.611 -3.308,0.207 -5.821,3.055 -5.614,6.363 0.198,3.18 2.84,5.625 5.982,5.625 0.126,0 0.253,-0.004 0.38,-0.012 30.177,-1.886 42.375,-22.369 45.626,-29.209 6.373,0.337 12.379,0.87 17.819,1.483 0.624,7.034 -0.119,23.15 -16.904,36.296 -2.609,2.043 -3.067,5.814 -1.024,8.423 1.184,1.511 2.946,2.301 4.728,2.301 1.294,0 2.598,-0.417 3.695,-1.277 19.348,-15.153 21.948,-33.708 21.603,-44.142 6.568,1 11.48,1.964 14.064,2.505 7.997,10.736 12.22,23.464 12.22,36.952 0,0.613 -0.008,1.222 -0.026,1.833 z"
       id="path5"
       inkscape:connector-curvature="0" /></g><g
     id="g7" /><g
     id="g9" /><g
     id="g11" /><g
     id="g13" /><g
     id="g15" /><g
     id="g17" /><g
     id="g19" /><g
     id="g21" /><g
     id="g23" /><g
     id="g25" /><g
     id="g27" /><g
     id="g29" /><g
     id="g31" /><g
     id="g33" /><g
     id="g35" /></svg>