<?xml version="1.0" encoding="UTF-8" standalone="no"?>
<!-- Generator: Adobe Illustrator 18.0.0, SVG Export Plug-In . SVG Version: 6.00 Build 0)  -->

<svg
   xmlns:dc="http://purl.org/dc/elements/1.1/"
   xmlns:cc="http://creativecommons.org/ns#"
   xmlns:rdf="http://www.w3.org/1999/02/22-rdf-syntax-ns#"
   xmlns:svg="http://www.w3.org/2000/svg"
   xmlns="http://www.w3.org/2000/svg"
   xmlns:sodipodi="http://sodipodi.sourceforge.net/DTD/sodipodi-0.dtd"
   xmlns:inkscape="http://www.inkscape.org/namespaces/inkscape"
   version="1.1"
   id="Capa_1"
   x="0px"
   y="0px"
   viewBox="0 0 252.476 252.476"
   style="enable-background:new 0 0 252.476 252.476;"
   xml:space="preserve"
   inkscape:version="0.91 r13725"
   sodipodi:docname="digitate.svg"><metadata
     id="metadata41"><rdf:RDF><cc:Work
         rdf:about=""><dc:format>image/svg+xml</dc:format><dc:type
           rdf:resource="http://purl.org/dc/dcmitype/StillImage" /></cc:Work></rdf:RDF></metadata><defs
     id="defs39" /><sodipodi:namedview
     pagecolor="#ffffff"
     bordercolor="#666666"
     borderopacity="1"
     objecttolerance="10"
     gridtolerance="10"
     guidetolerance="10"
     inkscape:pageopacity="0"
     inkscape:pageshadow="2"
     inkscape:window-width="690"
     inkscape:window-height="480"
     id="namedview37"
     showgrid="false"
     inkscape:zoom="0.93474232"
     inkscape:cx="126.238"
     inkscape:cy="126.238"
     inkscape:window-x="0"
     inkscape:window-y="0"
     inkscape:window-maximized="0"
     inkscape:current-layer="Capa_1" /><g
     id="g3"
     transform="matrix(0,1,-1,0,252.4745,-5.0054587e-4)"><path
       d="m 225.398,141.444 c -4.789,-4.366 -11.24,-6.524 -17.688,-5.928 l -25.397,2.353 26.153,-23.817 c 5.455,-4.968 8.555,-11.767 8.727,-19.144 0.172,-7.376 -2.606,-14.312 -7.823,-19.528 -5.218,-5.217 -12.179,-7.992 -19.528,-7.824 -7.376,0.172 -14.175,3.271 -19.145,8.727 l -23.508,25.813 8.996,-67.923 C 157.328,25.546 154.693,16.844 148.957,10.299 143.221,3.754 134.941,0 126.238,0 c -8.703,0 -16.983,3.754 -22.719,10.299 -5.735,6.545 -8.37,15.247 -7.228,23.874 l 8.996,67.923 -23.508,-25.814 c -4.968,-5.455 -11.767,-8.554 -19.143,-8.727 -7.382,-0.171 -14.312,2.606 -19.529,7.824 -5.218,5.217 -7.996,12.152 -7.823,19.529 0.172,7.376 3.271,14.175 8.727,19.143 l 26.153,23.817 -25.397,-2.353 c -6.449,-0.596 -12.899,1.563 -17.688,5.928 -4.789,4.366 -7.535,10.586 -7.535,17.066 0,6.48 2.746,12.7 7.535,17.065 4.788,4.366 11.232,6.529 17.688,5.929 l 24.883,-2.306 -7.583,4.221 c -4.52,2.516 -7.793,6.846 -8.979,11.881 -1.186,5.035 -0.19,10.37 2.731,14.638 2.922,4.269 7.536,7.127 12.659,7.844 0.846,0.119 1.694,0.177 2.54,0.177 4.273,0 8.461,-1.49 11.783,-4.247 l 36.208,-30.045 c -0.755,18.229 1.661,47.414 21.298,67.051 1.171,1.171 2.707,1.757 4.242,1.757 1.535,0 3.071,-0.586 4.242,-1.757 2.344,-2.343 2.344,-6.142 0,-8.485 C 131.56,225 130.17,197.893 131.105,182.013 c 0.236,0.066 0.454,0.136 0.626,0.215 l 37.942,31.485 c 3.98,3.304 9.205,4.784 14.324,4.07 5.123,-0.716 9.737,-3.575 12.659,-7.844 2.922,-4.268 3.917,-9.604 2.731,-14.638 -1.186,-5.035 -4.459,-9.366 -8.979,-11.881 l -7.583,-4.221 24.883,2.306 c 6.457,0.599 12.9,-1.563 17.688,-5.929 4.789,-4.365 7.535,-10.585 7.535,-17.065 0.002,-6.481 -2.744,-12.701 -7.533,-17.067 z m -8.084,25.264 c -2.334,2.127 -5.354,3.14 -8.497,2.848 l -53.227,-4.931 c -2.832,-0.256 -5.446,1.491 -6.285,4.201 -0.839,2.71 0.335,5.637 2.813,7.017 l 32.455,18.063 c 1.601,0.891 2.714,2.364 3.134,4.147 0.42,1.783 0.082,3.597 -0.953,5.109 -1.035,1.512 -2.604,2.484 -4.418,2.738 -1.815,0.255 -3.589,-0.25 -5,-1.42 L 139.21,172.842 c -5.333,-4.425 -20.61,-4.427 -25.945,0 l -38.127,31.637 c -1.41,1.17 -3.188,1.675 -4.999,1.42 -1.814,-0.254 -3.383,-1.226 -4.418,-2.738 -1.035,-1.512 -1.373,-3.326 -0.953,-5.109 0.42,-1.783 1.533,-3.256 3.134,-4.147 l 32.455,-18.064 c 2.479,-1.379 3.652,-4.307 2.813,-7.017 -0.783,-2.531 -3.121,-4.226 -5.728,-4.226 -0.185,0 -0.371,0.008 -0.558,0.025 l -53.227,4.932 c -3.143,0.292 -6.163,-0.72 -8.497,-2.848 -2.334,-2.128 -3.619,-5.039 -3.619,-8.198 0,-3.159 1.285,-6.07 3.62,-8.198 2.333,-2.127 5.354,-3.144 8.496,-2.847 l 43.237,4.006 c 2.577,0.236 5.002,-1.193 6.043,-3.553 1.041,-2.36 0.458,-5.121 -1.449,-6.858 L 52.089,105.178 c -3.007,-2.738 -4.715,-6.485 -4.81,-10.551 -0.096,-4.065 1.437,-7.888 4.313,-10.763 2.875,-2.875 6.679,-4.392 10.763,-4.313 4.065,0.095 7.813,1.803 10.551,4.81 l 36.407,39.978 c 1.767,1.939 4.589,2.507 6.966,1.401 2.379,-1.106 3.763,-3.628 3.419,-6.229 L 108.187,32.596 c -0.688,-5.2 0.899,-10.445 4.356,-14.39 3.457,-3.945 8.448,-6.208 13.693,-6.208 5.245,0 10.236,2.263 13.693,6.208 3.457,3.945 5.045,9.189 4.356,14.39 l -11.511,86.915 c -0.344,2.6 1.04,5.123 3.419,6.229 2.377,1.104 5.199,0.538 6.966,-1.401 l 36.406,-39.978 c 2.739,-3.007 6.486,-4.715 10.552,-4.81 4.053,-0.101 7.889,1.436 10.765,4.312 2.875,2.875 4.406,6.698 4.312,10.763 -0.096,4.066 -1.804,7.813 -4.811,10.551 l -39.399,35.881 c -1.907,1.737 -2.49,4.498 -1.449,6.858 1.041,2.359 3.464,3.789 6.043,3.553 l 43.237,-4.006 c 3.144,-0.296 6.163,0.72 8.496,2.847 2.335,2.128 3.62,5.04 3.62,8.198 0,3.158 -1.283,6.072 -3.617,8.2 z"
       id="path5"
       inkscape:connector-curvature="0" /></g><g
     id="g7" /><g
     id="g9" /><g
     id="g11" /><g
     id="g13" /><g
     id="g15" /><g
     id="g17" /><g
     id="g19" /><g
     id="g21" /><g
     id="g23" /><g
     id="g25" /><g
     id="g27" /><g
     id="g29" /><g
     id="g31" /><g
     id="g33" /><g
     id="g35" /></svg>