<?xml version="1.0" encoding="UTF-8" standalone="no"?>
<!-- Generator: Adobe Illustrator 18.0.0, SVG Export Plug-In . SVG Version: 6.00 Build 0)  -->

<svg
   xmlns:dc="http://purl.org/dc/elements/1.1/"
   xmlns:cc="http://creativecommons.org/ns#"
   xmlns:rdf="http://www.w3.org/1999/02/22-rdf-syntax-ns#"
   xmlns:svg="http://www.w3.org/2000/svg"
   xmlns="http://www.w3.org/2000/svg"
   xmlns:sodipodi="http://sodipodi.sourceforge.net/DTD/sodipodi-0.dtd"
   xmlns:inkscape="http://www.inkscape.org/namespaces/inkscape"
   version="1.1"
   id="Capa_1"
   x="0px"
   y="0px"
   viewBox="0 0 296.441 296.441"
   style="enable-background:new 0 0 296.441 296.441;"
   xml:space="preserve"
   inkscape:version="0.91 r13725"
   sodipodi:docname="falcate.svg"><metadata
     id="metadata41"><rdf:RDF><cc:Work
         rdf:about=""><dc:format>image/svg+xml</dc:format><dc:type
           rdf:resource="http://purl.org/dc/dcmitype/StillImage" /></cc:Work></rdf:RDF></metadata><defs
     id="defs39" /><sodipodi:namedview
     pagecolor="#ffffff"
     bordercolor="#666666"
     borderopacity="1"
     objecttolerance="10"
     gridtolerance="10"
     guidetolerance="10"
     inkscape:pageopacity="0"
     inkscape:pageshadow="2"
     inkscape:window-width="690"
     inkscape:window-height="480"
     id="namedview37"
     showgrid="false"
     inkscape:zoom="0.79611117"
     inkscape:cx="122.36903"
     inkscape:cy="148.2205"
     inkscape:window-x="0"
     inkscape:window-y="0"
     inkscape:window-maximized="0"
     inkscape:current-layer="Capa_1" /><g
     id="g3"
     transform="matrix(0.69768176,0.71640782,-0.71640782,0.69768176,150.99671,-61.37643)"><path
       d="m 291.516,46.107 c -24.174,-4.405 -48.788,-4.979 -73.151,-1.699 -50.9,6.848 -97.039,29.701 -133.428,66.09 -35.353,35.352 -57.925,79.908 -65.462,129.093 l -14.542,2.634 c -3.261,0.59 -5.425,3.712 -4.835,6.973 0.525,2.899 3.052,4.932 5.897,4.932 0.354,0 0.715,-0.032 1.076,-0.097 l 18.688,-3.385 c 10.138,-1.371 20.271,-3.427 30.12,-6.113 23.783,-6.487 46.071,-18.871 64.452,-35.814 18.067,-16.654 32.446,-37.765 41.582,-61.052 7.113,-18.135 17.765,-34.375 31.656,-48.266 7.313,-7.313 15.427,-13.828 24.118,-19.365 21.754,-13.861 46.955,-21.478 72.88,-22.028 3.08,-0.065 5.609,-2.452 5.854,-5.522 0.245,-3.072 -1.875,-5.829 -4.905,-6.381 z m -80.277,23.809 c -9.426,6.005 -18.226,13.07 -26.154,21 -15.068,15.067 -26.623,32.687 -34.344,52.369 -17.313,44.131 -53.956,77.653 -98.021,89.671 -3.528,0.962 -7.095,1.835 -10.686,2.624 17.216,-18.19 38.175,-42.063 53.679,-63.484 1.943,-2.685 1.342,-6.436 -1.343,-8.378 -2.682,-1.942 -6.436,-1.342 -8.378,1.342 -14.17,19.579 -34.349,42.82 -51.835,61.375 C 43.262,185.73 63.518,148.885 93.42,118.983 127.935,84.47 171.693,62.794 219.964,56.3 c 7.781,-1.047 15.585,-1.68 23.395,-1.899 -11.236,3.885 -22.021,9.08 -32.12,15.515 z"
       id="path5"
       inkscape:connector-curvature="0" /></g><g
     id="g7" /><g
     id="g9" /><g
     id="g11" /><g
     id="g13" /><g
     id="g15" /><g
     id="g17" /><g
     id="g19" /><g
     id="g21" /><g
     id="g23" /><g
     id="g25" /><g
     id="g27" /><g
     id="g29" /><g
     id="g31" /><g
     id="g33" /><g
     id="g35" /></svg>