<?xml version="1.0" encoding="UTF-8" standalone="no"?>
<!-- Generator: Adobe Illustrator 18.0.0, SVG Export Plug-In . SVG Version: 6.00 Build 0)  -->

<svg
   xmlns:dc="http://purl.org/dc/elements/1.1/"
   xmlns:cc="http://creativecommons.org/ns#"
   xmlns:rdf="http://www.w3.org/1999/02/22-rdf-syntax-ns#"
   xmlns:svg="http://www.w3.org/2000/svg"
   xmlns="http://www.w3.org/2000/svg"
   xmlns:sodipodi="http://sodipodi.sourceforge.net/DTD/sodipodi-0.dtd"
   xmlns:inkscape="http://www.inkscape.org/namespaces/inkscape"
   version="1.1"
   id="Capa_1"
   x="0px"
   y="0px"
   viewBox="0 0 305.578 305.578"
   style="enable-background:new 0 0 305.578 305.578;"
   xml:space="preserve"
   inkscape:version="0.91 r13725"
   sodipodi:docname="fasciculate.svg"><metadata
     id="metadata41"><rdf:RDF><cc:Work
         rdf:about=""><dc:format>image/svg+xml</dc:format><dc:type
           rdf:resource="http://purl.org/dc/dcmitype/StillImage" /></cc:Work></rdf:RDF></metadata><defs
     id="defs39" /><sodipodi:namedview
     pagecolor="#ffffff"
     bordercolor="#666666"
     borderopacity="1"
     objecttolerance="10"
     gridtolerance="10"
     guidetolerance="10"
     inkscape:pageopacity="0"
     inkscape:pageshadow="2"
     inkscape:window-width="690"
     inkscape:window-height="480"
     id="namedview37"
     showgrid="false"
     inkscape:zoom="0.7723069"
     inkscape:cx="152.789"
     inkscape:cy="152.789"
     inkscape:window-x="0"
     inkscape:window-y="0"
     inkscape:window-maximized="0"
     inkscape:current-layer="Capa_1" /><g
     id="g3"
     transform="matrix(0.72389876,0.68990622,-0.68990622,0.72389876,147.59552,-63.224108)"><path
       d="m 247.321,60.335 c -3.313,0 -6,2.686 -6,6 0,53.744 -67.367,116.367 -106.295,148.066 C 165.448,165.707 223.5,67.318 235.745,7.199 236.407,3.952 234.31,0.783 231.063,0.122 227.821,-0.539 224.648,1.558 223.987,4.804 213.924,54.206 171.363,131.21 140.31,182.837 159.451,131.925 184.566,59.922 192.008,14.471 192.544,11.2 190.326,8.116 187.057,7.58 c -3.269,-0.533 -6.355,1.681 -6.891,4.952 -9.393,57.361 -48.98,161.514 -66.174,205.124 L 86.958,188.269 c -1.078,-1.171 -2.576,-1.867 -4.166,-1.933 -1.596,-0.064 -3.142,0.502 -4.313,1.579 l -24.285,22.341 c -2.438,2.243 -2.597,6.039 -0.354,8.478 l 78.109,84.907 c 1.184,1.286 2.798,1.938 4.418,1.938 1.451,0 2.907,-0.524 4.061,-1.584 l 24.285,-22.341 c 1.171,-1.077 1.866,-2.576 1.933,-4.166 0.067,-1.59 -0.502,-3.141 -1.579,-4.312 l -35.785,-38.899 c 13.236,-10.172 33.878,-26.928 54.351,-47.132 46.24,-45.632 69.687,-86.278 69.687,-120.81 0.001,-3.314 -2.686,-6 -5.999,-6 z M 136.72,291.1 66.735,215.025 82.189,200.808 109.071,230.03 c -1.901,4.735 -3.021,7.468 -3.101,7.664 -1.012,2.46 -0.283,5.293 1.791,6.959 1.095,0.879 2.425,1.322 3.759,1.322 1.194,0 2.392,-0.356 3.424,-1.073 0.075,-0.052 1.761,-1.23 4.698,-3.381 l 32.532,35.363 -15.454,14.216 z"
       id="path5"
       inkscape:connector-curvature="0" /></g><g
     id="g7" /><g
     id="g9" /><g
     id="g11" /><g
     id="g13" /><g
     id="g15" /><g
     id="g17" /><g
     id="g19" /><g
     id="g21" /><g
     id="g23" /><g
     id="g25" /><g
     id="g27" /><g
     id="g29" /><g
     id="g31" /><g
     id="g33" /><g
     id="g35" /></svg>