<?xml version="1.0" encoding="UTF-8" standalone="no"?>
<!-- Generator: Adobe Illustrator 18.0.0, SVG Export Plug-In . SVG Version: 6.00 Build 0)  -->

<svg
   xmlns:dc="http://purl.org/dc/elements/1.1/"
   xmlns:cc="http://creativecommons.org/ns#"
   xmlns:rdf="http://www.w3.org/1999/02/22-rdf-syntax-ns#"
   xmlns:svg="http://www.w3.org/2000/svg"
   xmlns="http://www.w3.org/2000/svg"
   xmlns:sodipodi="http://sodipodi.sourceforge.net/DTD/sodipodi-0.dtd"
   xmlns:inkscape="http://www.inkscape.org/namespaces/inkscape"
   version="1.1"
   id="Capa_1"
   x="0px"
   y="0px"
   viewBox="0 0 300.347 300.347"
   style="enable-background:new 0 0 300.347 300.347;"
   xml:space="preserve"
   inkscape:version="0.91 r13725"
   sodipodi:docname="obovate.svg"><metadata
     id="metadata41"><rdf:RDF><cc:Work
         rdf:about=""><dc:format>image/svg+xml</dc:format><dc:type
           rdf:resource="http://purl.org/dc/dcmitype/StillImage" /></cc:Work></rdf:RDF></metadata><defs
     id="defs39" /><sodipodi:namedview
     pagecolor="#ffffff"
     bordercolor="#666666"
     borderopacity="1"
     objecttolerance="10"
     gridtolerance="10"
     guidetolerance="10"
     inkscape:pageopacity="0"
     inkscape:pageshadow="2"
     inkscape:window-width="690"
     inkscape:window-height="480"
     id="namedview37"
     showgrid="false"
     inkscape:zoom="0.78575785"
     inkscape:cx="150.17349"
     inkscape:cy="150.17349"
     inkscape:window-x="0"
     inkscape:window-y="0"
     inkscape:window-maximized="0"
     inkscape:current-layer="Capa_1" /><g
     id="g3"
     transform="matrix(-1,0,0,1,300.34713,0)"><path
       d="m 298.589,158.322 c -7.569,-7.569 -17.21,-12.306 -27.641,-13.706 -1.979,-10.56 -9.48,-19.444 -19.926,-22.987 L 107.676,72.999 C 82.488,64.455 55.639,68.44 34.02,83.936 12.399,99.43 0,123.573 0,150.173 c 0,26.599 12.399,50.741 34.018,66.237 14.144,10.138 30.523,15.35 47.214,15.35 8.821,0 17.729,-1.456 26.438,-4.41 l 143.349,-48.62 c 10.122,-3.433 17.481,-11.877 19.732,-22.003 7.292,1.275 14.01,4.737 19.354,10.08 1.171,1.172 2.707,1.757 4.242,1.757 1.535,0 3.071,-0.586 4.243,-1.757 2.343,-2.343 2.343,-6.143 -10e-4,-8.485 z m -51.424,9.044 -143.349,48.62 C 82.335,223.271 59.443,219.871 41.008,206.657 22.573,193.443 12,172.855 12,150.173 12,127.49 22.574,106.902 41.011,93.688 53.071,85.044 67.038,80.6 81.271,80.6 c 7.523,0 15.121,1.242 22.55,3.762 l 143.346,48.63 c 5.389,1.828 9.474,6.017 11.285,11.177 l -62.132,0 -61.737,-27.053 c -3.035,-1.33 -6.573,0.052 -7.903,3.087 -1.33,3.035 0.052,6.574 3.087,7.904 l 36.654,16.062 -43.617,0 c -5.123,-9.239 -21.364,-32.608 -54.584,-32.608 -3.313,0 -6,2.687 -6,6 0,3.313 2.687,6 6,6 21.352,0 34.033,12.038 40.355,20.608 l -33.416,0 c -3.313,0 -6,2.687 -6,6 0,3.314 2.687,6 6,6 l 33.353,0 c -6.371,8.556 -19.103,20.613 -40.293,20.613 -3.313,0 -6,2.687 -6,6 0,3.313 2.687,6 6,6 33.228,0 49.468,-23.379 54.587,-32.613 l 43.629,0 -36.669,16.069 c -3.035,1.33 -4.417,4.869 -3.087,7.904 0.986,2.251 3.188,3.593 5.498,3.593 0.805,0 1.622,-0.163 2.405,-0.506 l 61.751,-27.06 62.124,0 c -1.808,5.169 -5.897,9.367 -11.292,11.197 z"
       id="path5"
       inkscape:connector-curvature="0" /></g><g
     id="g7" /><g
     id="g9" /><g
     id="g11" /><g
     id="g13" /><g
     id="g15" /><g
     id="g17" /><g
     id="g19" /><g
     id="g21" /><g
     id="g23" /><g
     id="g25" /><g
     id="g27" /><g
     id="g29" /><g
     id="g31" /><g
     id="g33" /><g
     id="g35" /></svg>