<?xml version="1.0" encoding="UTF-8" standalone="no"?>
<!-- Generator: Adobe Illustrator 18.0.0, SVG Export Plug-In . SVG Version: 6.00 Build 0)  -->

<svg
   xmlns:dc="http://purl.org/dc/elements/1.1/"
   xmlns:cc="http://creativecommons.org/ns#"
   xmlns:rdf="http://www.w3.org/1999/02/22-rdf-syntax-ns#"
   xmlns:svg="http://www.w3.org/2000/svg"
   xmlns="http://www.w3.org/2000/svg"
   xmlns:sodipodi="http://sodipodi.sourceforge.net/DTD/sodipodi-0.dtd"
   xmlns:inkscape="http://www.inkscape.org/namespaces/inkscape"
   version="1.1"
   id="Capa_1"
   x="0px"
   y="0px"
   viewBox="0 0 287.65 287.65"
   style="enable-background:new 0 0 287.65 287.65;"
   xml:space="preserve"
   inkscape:version="0.91 r13725"
   sodipodi:docname="ovate.svg"><metadata
     id="metadata41"><rdf:RDF><cc:Work
         rdf:about=""><dc:format>image/svg+xml</dc:format><dc:type
           rdf:resource="http://purl.org/dc/dcmitype/StillImage" /></cc:Work></rdf:RDF></metadata><defs
     id="defs39" /><sodipodi:namedview
     pagecolor="#ffffff"
     bordercolor="#666666"
     borderopacity="1"
     objecttolerance="10"
     gridtolerance="10"
     guidetolerance="10"
     inkscape:pageopacity="0"
     inkscape:pageshadow="2"
     inkscape:window-width="690"
     inkscape:window-height="480"
     id="namedview37"
     showgrid="false"
     inkscape:zoom="0.82044153"
     inkscape:cx="143.825"
     inkscape:cy="143.825"
     inkscape:window-x="313"
     inkscape:window-y="236"
     inkscape:window-maximized="0"
     inkscape:current-layer="Capa_1" /><g
     id="g3"
     transform="matrix(0,1,-1,0,287.651,10e-4)"><path
       d="m 246.111,144.649 c 0,-23.844 -8.382,-47.056 -23.604,-65.361 L 164.733,9.811 C 159.548,3.576 151.927,0 143.825,0 135.723,0 128.102,3.576 122.917,9.811 L 65.143,79.289 c -15.221,18.305 -23.604,41.517 -23.604,65.361 0,54.271 42.487,98.797 95.945,102.084 -1.298,6.705 -6.397,18.885 -25.6,29.687 -2.888,1.625 -3.913,5.283 -2.288,8.171 1.102,1.958 3.138,3.06 5.235,3.06 0.996,0 2.006,-0.249 2.936,-0.771 24.795,-13.947 30.603,-30.933 31.825,-40.109 53.728,-3.003 96.519,-47.657 96.519,-102.123 z m -96.286,90.082 0,-38.015 34.607,-15.299 c 3.031,-1.34 4.402,-4.883 3.062,-7.914 -1.34,-3.031 -4.883,-4.402 -7.914,-3.062 l -29.756,13.155 0,-20.644 26.132,-7.274 c 3.192,-0.889 5.06,-4.197 4.171,-7.389 -0.889,-3.193 -4.198,-5.062 -7.389,-4.171 l -22.914,6.378 0,-16.238 10.925,-3.041 c 3.192,-0.889 5.06,-4.197 4.171,-7.389 -0.889,-3.192 -4.198,-5.061 -7.389,-4.171 l -7.708,2.145 0,-34.764 c 0,-3.313 -2.687,-6 -6,-6 -3.313,0 -6,2.687 -6,6 l 0,34.739 -7.614,-2.119 c -3.191,-0.89 -6.5,0.979 -7.389,4.171 -0.889,3.192 0.979,6.5 4.171,7.389 l 10.832,3.015 0,16.251 -22.868,-6.365 c -3.192,-0.891 -6.5,0.979 -7.389,4.171 -0.889,3.192 0.979,6.5 4.171,7.389 l 26.085,7.261 0,20.657 -29.756,-13.155 c -3.028,-1.339 -6.573,0.031 -7.914,3.062 -1.34,3.031 0.031,6.574 3.062,7.914 l 34.607,15.299 0,38.015 C 90.824,231.633 53.535,192.418 53.535,144.65 c 0,-21.047 7.397,-41.534 20.83,-57.688 L 132.14,17.484 C 135.042,13.999 139.3,12 143.825,12 c 4.525,0 8.783,1.999 11.681,5.483 l 57.775,69.478 c 13.433,16.154 20.83,36.641 20.83,57.688 0,47.768 -37.289,86.983 -84.286,90.082 z"
       id="path5"
       inkscape:connector-curvature="0" /></g><g
     id="g7" /><g
     id="g9" /><g
     id="g11" /><g
     id="g13" /><g
     id="g15" /><g
     id="g17" /><g
     id="g19" /><g
     id="g21" /><g
     id="g23" /><g
     id="g25" /><g
     id="g27" /><g
     id="g29" /><g
     id="g31" /><g
     id="g33" /><g
     id="g35" /></svg>