<?xml version="1.0" encoding="UTF-8" standalone="no"?>
<!-- Generator: Adobe Illustrator 18.0.0, SVG Export Plug-In . SVG Version: 6.00 Build 0)  -->

<svg
   xmlns:dc="http://purl.org/dc/elements/1.1/"
   xmlns:cc="http://creativecommons.org/ns#"
   xmlns:rdf="http://www.w3.org/1999/02/22-rdf-syntax-ns#"
   xmlns:svg="http://www.w3.org/2000/svg"
   xmlns="http://www.w3.org/2000/svg"
   xmlns:sodipodi="http://sodipodi.sourceforge.net/DTD/sodipodi-0.dtd"
   xmlns:inkscape="http://www.inkscape.org/namespaces/inkscape"
   version="1.1"
   id="Capa_1"
   x="0px"
   y="0px"
   viewBox="0 0 264.214 264.214"
   style="enable-background:new 0 0 264.214 264.214;"
   xml:space="preserve"
   inkscape:version="0.91 r13725"
   sodipodi:docname="palmatelly.svg"><metadata
     id="metadata41"><rdf:RDF><cc:Work
         rdf:about=""><dc:format>image/svg+xml</dc:format><dc:type
           rdf:resource="http://purl.org/dc/dcmitype/StillImage" /></cc:Work></rdf:RDF></metadata><defs
     id="defs39" /><sodipodi:namedview
     pagecolor="#ffffff"
     bordercolor="#666666"
     borderopacity="1"
     objecttolerance="10"
     gridtolerance="10"
     guidetolerance="10"
     inkscape:pageopacity="0"
     inkscape:pageshadow="2"
     inkscape:window-width="690"
     inkscape:window-height="480"
     id="namedview37"
     showgrid="false"
     inkscape:zoom="0.89321538"
     inkscape:cx="132.10699"
     inkscape:cy="132.10699"
     inkscape:window-x="222"
     inkscape:window-y="195"
     inkscape:window-maximized="0"
     inkscape:current-layer="Capa_1" /><g
     id="g3"
     transform="matrix(0,1,-1,0,264.21246,-4.6037064e-4)"><path
       d="m 262.449,94.031 c -0.782,-1.789 -2.384,-3.085 -4.296,-3.477 -22.246,-4.55 -46.877,-1.649 -69.359,8.172 -20.992,9.17 -38.828,23.817 -50.688,41.521 l 0,-3.588 c 17.415,-17.939 26.975,-41.476 26.975,-66.568 0,-25.946 -10.221,-50.231 -28.779,-68.382 -2.332,-2.28 -6.059,-2.28 -8.391,0 -18.559,18.151 -28.779,42.436 -28.779,68.382 0,25.092 9.56,48.629 26.975,66.568 l 0,3.588 C 114.247,122.543 96.411,107.896 75.419,98.726 52.937,88.906 28.305,86.004 6.06,90.554 4.148,90.945 2.546,92.242 1.764,94.031 0.983,95.82 1.12,97.876 2.133,99.545 c 11.778,19.413 30.645,35.513 53.125,45.333 13.87,6.059 28.556,9.475 42.998,10.142 -12.875,6.099 -24.908,14.853 -35.141,25.723 l 0,0 c -16.266,17.279 -26.931,38.772 -30.031,60.52 -0.275,1.932 0.406,3.878 1.827,5.215 1.124,1.058 2.599,1.631 4.113,1.631 0.4,0 0.804,-0.04 1.204,-0.122 21.521,-4.407 42.331,-16.35 58.597,-33.629 13.026,-13.837 22.447,-30.379 27.281,-47.588 l 0,91.443 c 0,3.313 2.687,6 6,6 3.313,0 6,-2.687 6,-6 l 0,-91.443 c 4.833,17.209 14.255,33.75 27.281,47.588 16.266,17.279 37.076,29.222 58.597,33.628 0.4,0.082 0.803,0.122 1.204,0.122 1.514,0 2.989,-0.573 4.113,-1.631 1.421,-1.337 2.103,-3.283 1.827,-5.215 -3.1,-21.748 -13.765,-43.241 -30.031,-60.52 -10.232,-10.871 -22.265,-19.624 -35.141,-25.723 14.441,-0.667 29.129,-4.084 42.998,-10.142 22.48,-9.82 41.348,-25.92 53.125,-45.333 1.014,-1.668 1.151,-3.724 0.37,-5.513 z M 132.107,14.693 c 13.57,15.297 20.975,34.746 20.975,55.399 0,20.653 -7.405,40.102 -20.975,55.398 -13.57,-15.297 -20.975,-34.746 -20.975,-55.398 0,-20.652 7.405,-40.102 20.975,-55.399 z M 60.062,133.882 c -17.19,-7.509 -31.994,-19.034 -42.501,-32.95 17.348,-1.749 35.865,1.283 53.054,8.792 17.189,7.509 31.994,19.036 42.501,32.95 -17.348,1.746 -35.865,-1.285 -53.054,-8.792 l 0,0 z m 30.027,72.252 c -12.301,13.066 -27.43,22.716 -43.336,27.767 4.082,-16.182 12.8,-31.866 25.101,-44.932 0,0 0,0 0,0 12.3,-13.066 27.43,-22.716 43.336,-27.767 -4.082,16.181 -12.801,31.865 -25.101,44.932 z M 192.36,188.968 c 0,0.001 0,0.001 0,0 12.3,13.067 21.019,28.751 25.101,44.933 -15.906,-5.051 -31.035,-14.7 -43.336,-27.767 -12.3,-13.067 -21.019,-28.751 -25.101,-44.933 15.907,5.051 31.036,14.701 43.336,27.767 z m 11.791,-55.087 c -17.19,7.51 -35.702,10.541 -53.054,8.792 10.507,-13.915 25.312,-25.441 42.501,-32.95 17.19,-7.51 35.705,-10.539 53.054,-8.792 -10.507,13.915 -25.312,25.442 -42.501,32.95 z"
       id="path5"
       inkscape:connector-curvature="0" /></g><g
     id="g7" /><g
     id="g9" /><g
     id="g11" /><g
     id="g13" /><g
     id="g15" /><g
     id="g17" /><g
     id="g19" /><g
     id="g21" /><g
     id="g23" /><g
     id="g25" /><g
     id="g27" /><g
     id="g29" /><g
     id="g31" /><g
     id="g33" /><g
     id="g35" /></svg>