<?xml version="1.0" encoding="UTF-8" standalone="no"?>
<!-- Generator: Adobe Illustrator 18.0.0, SVG Export Plug-In . SVG Version: 6.00 Build 0)  -->

<svg
   xmlns:dc="http://purl.org/dc/elements/1.1/"
   xmlns:cc="http://creativecommons.org/ns#"
   xmlns:rdf="http://www.w3.org/1999/02/22-rdf-syntax-ns#"
   xmlns:svg="http://www.w3.org/2000/svg"
   xmlns="http://www.w3.org/2000/svg"
   xmlns:sodipodi="http://sodipodi.sourceforge.net/DTD/sodipodi-0.dtd"
   xmlns:inkscape="http://www.inkscape.org/namespaces/inkscape"
   version="1.1"
   id="Capa_1"
   x="0px"
   y="0px"
   viewBox="0 0 365.304 365.304"
   style="enable-background:new 0 0 365.304 365.304;"
   xml:space="preserve"
   inkscape:version="0.91 r13725"
   sodipodi:docname="perfoliate.svg"><metadata
     id="metadata41"><rdf:RDF><cc:Work
         rdf:about=""><dc:format>image/svg+xml</dc:format><dc:type
           rdf:resource="http://purl.org/dc/dcmitype/StillImage" /></cc:Work></rdf:RDF></metadata><defs
     id="defs39" /><sodipodi:namedview
     pagecolor="#ffffff"
     bordercolor="#666666"
     borderopacity="1"
     objecttolerance="10"
     gridtolerance="10"
     guidetolerance="10"
     inkscape:pageopacity="0"
     inkscape:pageshadow="2"
     inkscape:window-width="690"
     inkscape:window-height="480"
     id="namedview37"
     showgrid="false"
     inkscape:zoom="0.6460373"
     inkscape:cx="182.65199"
     inkscape:cy="182.65199"
     inkscape:window-x="265"
     inkscape:window-y="197"
     inkscape:window-maximized="0"
     inkscape:current-layer="Capa_1" /><g
     id="g3"
     transform="matrix(-1,0,0,1,365.30487,0)"><path
       d="m 361.493,196.881 c -31.562,-12.376 -64.527,-19.492 -98.21,-21.253 -1.523,-7.685 -5.879,-14.549 -12.302,-19.202 l -72.53,-52.546 c -6.877,-4.982 -15.875,-4.268 -21.879,1.737 -6.005,6.005 -6.719,15.002 -1.737,21.879 l 34.545,47.684 -19.281,0 c -1.428,-5.105 -4.14,-9.822 -7.982,-13.664 -6.475,-6.475 -15.43,-9.771 -24.548,-9.047 -9.127,0.725 -17.442,5.393 -22.813,12.807 l -7.175,9.904 -12.353,0 c -0.316,-1.521 -0.774,-3.021 -1.39,-4.478 -2.743,-6.482 -8.166,-11.416 -14.878,-13.536 l -60.963,-19.25 c -6.603,-2.085 -13.379,0.782 -16.48,6.974 -3.101,6.191 -1.338,13.335 4.287,17.374 l 51.929,37.288 c 4.124,2.961 9.017,4.508 13.989,4.508 1.921,0 3.855,-0.231 5.76,-0.701 6.833,-1.686 12.561,-6.262 15.713,-12.556 0.589,-1.176 1.076,-2.388 1.461,-3.625 l 4.232,0 -36.678,50.629 c -4.982,6.877 -4.268,15.874 1.737,21.879 3.337,3.337 7.597,5.04 11.904,5.04 3.444,0 6.919,-1.089 9.975,-3.303 l 72.531,-52.546 c 7.11,-5.151 11.684,-13.011 12.687,-21.696 l 27.03,0 9.307,12.847 c 5.371,7.414 13.686,12.082 22.813,12.807 0.83,0.066 1.659,0.098 2.484,0.098 8.25,0 16.179,-3.26 22.064,-9.145 4.456,-4.456 7.407,-10.085 8.577,-16.137 32.166,1.752 63.646,8.581 93.795,20.403 0.72,0.282 1.46,0.416 2.189,0.416 2.396,0 4.66,-1.446 5.587,-3.811 1.208,-3.086 -0.312,-6.568 -3.397,-7.778 z M 74.607,191.71 c -3.417,0.841 -7.017,0.149 -9.876,-1.904 L 12.802,152.518 c -0.306,-0.22 -1.239,-0.89 -0.556,-2.253 0.417,-0.833 0.988,-1.028 1.451,-1.028 0.295,0 0.547,0.08 0.687,0.124 l 60.962,19.25 c 3.357,1.06 6.068,3.527 7.44,6.769 0.515,1.217 0.82,2.494 0.917,3.78 -0.227,0.632 -0.357,1.311 -0.357,2.021 0,0.431 0.048,0.851 0.134,1.257 -0.209,1.027 -0.536,2.036 -1.016,2.993 -1.576,3.148 -4.44,5.436 -7.857,6.279 z m 84.593,-6.595 c -0.446,5.619 -3.319,10.738 -7.884,14.044 l -72.531,52.546 c -3.149,2.281 -5.659,0.19 -6.354,-0.504 -0.695,-0.694 -2.785,-3.206 -0.504,-6.354 l 41.777,-57.667 25.53,0 c 3.313,0 6,-2.687 6,-6 0,-3.313 -2.687,-6 -6,-6 l -16.836,0 2.075,-2.864 c 3.307,-4.564 8.426,-7.438 14.044,-7.884 0.511,-0.041 1.021,-0.061 1.529,-0.061 5.079,0 9.961,2.007 13.584,5.63 3.186,3.185 5.117,7.345 5.538,11.755 0.003,0.031 0.007,0.061 0.01,0.092 0.099,1.078 0.109,2.17 0.022,3.267 z m 87.055,10.187 c -3.986,3.986 -9.493,6.014 -15.113,5.57 -5.619,-0.446 -10.738,-3.32 -14.044,-7.884 l -52.546,-72.531 c -2.28,-3.147 -0.19,-5.659 0.504,-6.354 0.462,-0.462 1.728,-1.542 3.45,-1.542 0.867,0 1.85,0.273 2.904,1.037 l 72.53,52.546 c 3.173,2.299 5.526,5.474 6.817,9.083 -1.35,-0.017 -2.698,-0.047 -4.05,-0.047 l -14.079,0 c -3.314,0 -6,2.687 -6,6 0,3.314 2.686,6 6,6 l 14.079,0 c 1.457,0 2.911,0.03 4.366,0.051 -0.902,3.012 -2.539,5.791 -4.818,8.071 z"
       id="path5"
       inkscape:connector-curvature="0" /></g><g
     id="g7" /><g
     id="g9" /><g
     id="g11" /><g
     id="g13" /><g
     id="g15" /><g
     id="g17" /><g
     id="g19" /><g
     id="g21" /><g
     id="g23" /><g
     id="g25" /><g
     id="g27" /><g
     id="g29" /><g
     id="g31" /><g
     id="g33" /><g
     id="g35" /></svg>