<?xml version="1.0" encoding="iso-8859-1"?>
<!-- Generator: Adobe Illustrator 18.0.0, SVG Export Plug-In . SVG Version: 6.00 Build 0)  -->
<!DOCTYPE svg PUBLIC "-//W3C//DTD SVG 1.1//EN" "http://www.w3.org/Graphics/SVG/1.1/DTD/svg11.dtd">
<svg version="1.1" id="Capa_1" xmlns="http://www.w3.org/2000/svg" xmlns:xlink="http://www.w3.org/1999/xlink" x="0px" y="0px"
	 viewBox="0 0 306.474 306.474" style="enable-background:new 0 0 306.474 306.474;" xml:space="preserve">
<g>
	<path d="M302.901,183.191c-0.378-6.466-3.557-12.416-8.722-16.324c-3.529-2.67-7.721-4.188-12.041-4.438l-1.538-6.983
		c4.607-0.527,9.21-1.074,13.809-1.658c3.287-0.417,5.614-3.421,5.196-6.708c-0.417-3.287-3.415-5.612-6.708-5.196
		c-3.738,0.475-7.48,0.916-11.224,1.353l0.468-2.123c4.318-0.251,8.511-1.756,12.039-4.425c5.164-3.909,8.343-9.858,8.721-16.325
		l3.55-60.816c0.361-6.193-3.618-11.45-9.676-12.784c-6.063-1.333-11.877,1.765-14.15,7.537l-22.324,56.682
		c-2.373,6.026-1.988,12.761,1.057,18.477c2.08,3.905,5.249,7.044,9.063,9.086l-1.339,6.082c-13.494,1.417-27.018,2.583-40.56,3.505
		v-7.352c5.276-1.257,10.071-4.149,13.663-8.361c4.917-5.766,7.052-13.364,5.855-20.846l-11.855-74.2
		c-1.097-6.861-6.715-11.653-13.664-11.653c-6.947,0-12.565,4.793-13.661,11.653l-11.855,74.2
		c-1.196,7.483,0.938,15.082,5.855,20.847c3.592,4.211,8.386,7.104,13.662,8.361v8.103c-15.372,0.879-30.76,1.442-46.15,1.682
		v-9.785c5.276-1.257,10.07-4.149,13.662-8.36c4.917-5.766,7.052-13.364,5.856-20.847l-11.856-74.2
		c-1.096-6.861-6.714-11.653-13.661-11.654c-0.001,0-0.001,0-0.001,0c-6.948,0-12.566,4.792-13.663,11.653l-11.855,74.2
		c-1.195,7.483,0.939,15.082,5.856,20.847c3.592,4.211,8.386,7.103,13.662,8.36v9.903c-12.661,0.06-25.319-0.092-37.964-0.465
		l-1.402-14.347c5.141-1.99,9.555-5.587,12.546-10.349c4.03-6.417,5.041-14.245,2.774-21.475L111.85,32.347
		c-2.08-6.631-8.343-10.562-15.207-9.551c-6.875,1.006-11.74,6.561-11.831,13.509l-0.983,75.135
		c-0.1,7.577,3.112,14.787,8.813,19.779c4.096,3.587,9.158,5.741,14.464,6.268l1.203,12.317
		c-12.178-0.493-24.339-1.194-36.478-2.089l-5.51-13.814c4.297-3.626,7.329-8.584,8.561-14.181c1.63-7.4-0.058-15.111-4.631-21.154
		L24.907,38.646c-4.192-5.539-11.401-7.129-17.536-3.863C1.238,38.05-1.468,44.921,0.789,51.492l24.416,71.063
		c2.463,7.167,7.919,12.87,14.969,15.647c3.058,1.204,6.271,1.802,9.476,1.802c1.987,0,3.97-0.237,5.911-0.695l5.554,13.925
		l-5.218,11.094c-5.17-1.292-10.66-0.971-15.721,1.024c-7.051,2.777-12.507,8.48-14.97,15.647L0.789,252.064
		c-2.258,6.571,0.449,13.442,6.582,16.708c2.132,1.136,4.394,1.684,6.614,1.684c4.167,0,8.188-1.933,10.922-5.547l45.345-59.917
		c4.573-6.043,6.261-13.753,4.631-21.154c-1.21-5.494-4.154-10.372-8.326-13.979l4.771-10.145
		c12.201,0.896,24.424,1.595,36.663,2.088l-0.621,4.241c-5.402,0.479-10.565,2.647-14.729,6.294
		c-5.701,4.993-8.913,12.202-8.813,19.779l0.983,75.135c0.091,6.947,4.956,12.502,11.831,13.509c0.719,0.105,1.429,0.156,2.13,0.156
		c6.005,0,11.216-3.771,13.077-9.708l22.477-71.701c2.267-7.23,1.256-15.058-2.774-21.475c-2.945-4.688-7.27-8.244-12.308-10.252
		l0.813-5.554c10.999,0.324,22.007,0.49,33.021,0.49c1.765,0,3.529-0.013,5.294-0.021v6.078c-5.276,1.257-10.07,4.149-13.662,8.36
		c-4.917,5.766-7.052,13.365-5.856,20.848l11.855,74.2c1.097,6.861,6.715,11.653,13.664,11.653c6.947,0,12.565-4.793,13.661-11.653
		l11.856-74.2c1.195-7.483-0.939-15.082-5.857-20.847c-3.592-4.211-8.386-7.103-13.661-8.36v-6.193
		c15.389-0.237,30.778-0.794,46.15-1.663v7.856c-5.276,1.257-10.07,4.149-13.662,8.361c-4.917,5.766-7.052,13.364-5.855,20.847
		l11.855,74.199c1.096,6.861,6.714,11.653,13.661,11.654c0.001,0,0.001,0,0.001,0c6.948,0,12.566-4.792,13.663-11.653l11.855-74.2
		c1.196-7.483-0.938-15.081-5.855-20.847c-3.592-4.212-8.387-7.104-13.663-8.361v-8.602c13.386-0.901,26.756-2.035,40.095-3.415
		c0.015,0.084,0.024,0.168,0.042,0.252l1.761,8c-3.815,2.042-6.983,5.181-9.063,9.086c-3.045,5.716-3.43,12.451-1.057,18.477
		l22.324,56.682c1.921,4.876,6.371,7.845,11.358,7.845c0.917,0,1.852-0.101,2.792-0.308c6.058-1.334,10.037-6.591,9.676-12.784
		L302.901,183.191z M271.467,115.38l22.324-56.682c0.057-0.145,0.107-0.216,0.1-0.216c0.131-0.059,0.485,0.019,0.565,0.102
		c0.007,0.02,0.024,0.107,0.015,0.264l-3.55,60.815c-0.172,2.953-1.624,5.671-3.982,7.456c-2.357,1.784-5.363,2.443-8.252,1.809
		c-0.001,0-0.003-0.001-0.004-0.001s-0.003,0-0.004-0.001c-2.886-0.637-5.339-2.499-6.728-5.108
		C270.559,121.208,270.383,118.132,271.467,115.38z M211.99,124.632c-2.634-3.088-3.777-7.158-3.137-11.166l11.855-74.201
		c0.062-0.382,0.247-1.546,1.813-1.546c1.566,0,1.752,1.165,1.813,1.547l11.855,74.201c0.641,4.007-0.503,8.077-3.137,11.166
		s-6.473,4.86-10.532,4.86C218.463,129.492,214.624,127.721,211.99,124.632z M153.839,124.633
		c-2.634-3.088-3.777-7.158-3.137-11.167l11.855-74.2c0.062-0.382,0.247-1.547,1.813-1.547c1.565,0,1.751,1.164,1.813,1.547
		l11.856,74.2c0.641,4.008-0.503,8.078-3.138,11.167c-2.634,3.088-6.473,4.859-10.531,4.859
		C160.312,129.492,156.474,127.721,153.839,124.633z M121.39,184.416c2.158,3.437,2.7,7.63,1.485,11.503l-22.477,71.701
		c-0.116,0.37-0.469,1.493-2.018,1.268c-1.55-0.227-1.565-1.406-1.571-1.793l-0.983-75.135c-0.053-4.059,1.668-7.92,4.722-10.594
		c2.543-2.228,5.78-3.43,9.112-3.43c0.668,0,1.341,0.048,2.012,0.146C115.689,178.67,119.231,180.979,121.39,184.416z
		 M95.826,111.596l0.983-75.134c0.006-0.388,0.021-1.566,1.57-1.793c0.141-0.02,0.271-0.03,0.392-0.03
		c1.221,0,1.521,0.961,1.627,1.298l22.477,71.701c1.215,3.873,0.673,8.066-1.485,11.503c-2.159,3.437-5.701,5.746-9.718,6.334
		c-4.013,0.587-8.07-0.609-11.124-3.283C97.494,119.517,95.774,115.655,95.826,111.596z M44.572,127.038
		c-3.776-1.488-6.699-4.542-8.018-8.381L12.139,47.593c-0.126-0.366-0.509-1.481,0.873-2.217c0.373-0.199,0.697-0.275,0.976-0.275
		c0.756,0,1.181,0.562,1.352,0.787l45.345,59.917c2.449,3.237,3.354,7.367,2.48,11.332c-0.873,3.964-3.429,7.332-7.011,9.239
		C52.571,128.283,48.35,128.525,44.572,127.038z M60.684,197.75l-45.345,59.917c-0.234,0.309-0.947,1.247-2.327,0.513
		c-1.382-0.736-0.999-1.851-0.873-2.217l24.416-71.064c1.318-3.839,4.241-6.894,8.018-8.381c1.638-0.645,3.358-0.965,5.075-0.965
		c2.242,0,4.477,0.546,6.506,1.627c3.582,1.908,6.138,5.275,7.011,9.239C64.037,190.383,63.133,194.514,60.684,197.75z
		 M174.902,184.923c2.635,3.088,3.778,7.159,3.138,11.167l-11.856,74.2c-0.062,0.382-0.247,1.546-1.813,1.546
		c-1.566,0-1.752-1.165-1.813-1.547l-11.855-74.199c-0.641-4.009,0.503-8.079,3.138-11.167c2.634-3.088,6.473-4.859,10.531-4.859
		S172.269,181.834,174.902,184.923z M233.054,184.923c2.634,3.088,3.777,7.158,3.137,11.167l-11.855,74.2
		c-0.062,0.382-0.247,1.547-1.813,1.547c-1.565,0-1.751-1.164-1.813-1.547l-11.855-74.2c-0.641-4.008,0.503-8.078,3.137-11.167
		s6.473-4.86,10.531-4.86C226.581,180.063,230.42,181.835,233.054,184.923z M294.471,244.946c-0.095,0.108-0.444,0.188-0.556,0.145
		c-0.015-0.015-0.066-0.086-0.124-0.233l-22.324-56.682c-1.084-2.752-0.908-5.828,0.481-8.438c1.39-2.609,3.842-4.471,6.729-5.108
		c0.001,0,0.003,0,0.004-0.001c0.001,0,0.002-0.001,0.003-0.001c0.72-0.158,1.448-0.237,2.172-0.237
		c2.177,0,4.313,0.706,6.082,2.044c2.358,1.785,3.811,4.502,3.982,7.455l3.55,60.816
		C294.481,244.86,294.464,244.946,294.471,244.946z"/>
</g>
<g>
</g>
<g>
</g>
<g>
</g>
<g>
</g>
<g>
</g>
<g>
</g>
<g>
</g>
<g>
</g>
<g>
</g>
<g>
</g>
<g>
</g>
<g>
</g>
<g>
</g>
<g>
</g>
<g>
</g>
</svg>
