<?xml version="1.0" encoding="UTF-8" standalone="no"?>
<!-- Generator: Adobe Illustrator 18.0.0, SVG Export Plug-In . SVG Version: 6.00 Build 0)  -->

<svg
   xmlns:dc="http://purl.org/dc/elements/1.1/"
   xmlns:cc="http://creativecommons.org/ns#"
   xmlns:rdf="http://www.w3.org/1999/02/22-rdf-syntax-ns#"
   xmlns:svg="http://www.w3.org/2000/svg"
   xmlns="http://www.w3.org/2000/svg"
   xmlns:sodipodi="http://sodipodi.sourceforge.net/DTD/sodipodi-0.dtd"
   xmlns:inkscape="http://www.inkscape.org/namespaces/inkscape"
   version="1.1"
   id="Capa_1"
   x="0px"
   y="0px"
   viewBox="0 0 320.259 320.259"
   style="enable-background:new 0 0 320.259 320.259;"
   xml:space="preserve"
   inkscape:version="0.91 r13725"
   sodipodi:docname="pinnation.svg"><metadata
     id="metadata41"><rdf:RDF><cc:Work
         rdf:about=""><dc:format>image/svg+xml</dc:format><dc:type
           rdf:resource="http://purl.org/dc/dcmitype/StillImage" /></cc:Work></rdf:RDF></metadata><defs
     id="defs39" /><sodipodi:namedview
     pagecolor="#ffffff"
     bordercolor="#666666"
     borderopacity="1"
     objecttolerance="10"
     gridtolerance="10"
     guidetolerance="10"
     inkscape:pageopacity="0"
     inkscape:pageshadow="2"
     inkscape:window-width="690"
     inkscape:window-height="480"
     id="namedview37"
     showgrid="false"
     inkscape:zoom="0.73690356"
     inkscape:cx="160.1295"
     inkscape:cy="160.1295"
     inkscape:window-x="588"
     inkscape:window-y="126"
     inkscape:window-maximized="0"
     inkscape:current-layer="Capa_1" /><g
     id="g3"
     transform="matrix(0,1,-1,0,320.2595,-5e-4)"><path
       d="M 165.173,2.75 C 164.069,1.036 162.169,0 160.129,0 158.089,0 156.19,1.036 155.085,2.75 118.786,59.096 99.6,124.306 99.6,191.33 l 0,40.656 c 0,29.404 21.079,53.967 48.918,59.4 -3.767,5.563 -10.026,11.805 -20.404,17.642 -2.888,1.625 -3.913,5.283 -2.288,8.171 1.102,1.958 3.138,3.06 5.235,3.06 0.996,0 2.006,-0.249 2.936,-0.771 15.464,-8.698 23.542,-18.58 27.729,-27.012 32.639,-0.852 58.934,-27.648 58.934,-60.489 l 0,-40.657 C 220.659,124.306 201.473,59.096 165.173,2.75 Z m 43.486,229.236 c 0,24.46 -18.194,44.74 -41.757,48.047 L 183.55,238.64 c 1.236,-3.074 -0.254,-6.569 -3.328,-7.806 -3.075,-1.235 -6.569,0.254 -7.805,3.328 l -6.362,15.818 0,-25.007 17.495,-43.5 c 1.236,-3.074 -0.254,-6.569 -3.328,-7.806 -3.075,-1.236 -6.569,0.254 -7.805,3.328 l -6.362,15.818 0,-25.008 17.495,-43.5 c 1.236,-3.074 -0.254,-6.569 -3.328,-7.806 -3.075,-1.236 -6.569,0.254 -7.805,3.328 l -6.362,15.818 0,-50.387 c 0,-3.314 -2.686,-6 -6,-6 -3.314,0 -6,2.686 -6,6 l 0,50.018 -6.212,-15.447 c -1.236,-3.075 -4.732,-4.565 -7.805,-3.328 -3.074,1.237 -4.564,4.731 -3.328,7.806 l 17.346,43.128 0,25.008 -6.212,-15.447 c -1.236,-3.075 -4.732,-4.564 -7.805,-3.328 -3.074,1.237 -4.564,4.731 -3.328,7.806 l 17.346,43.128 0,25.007 -6.212,-15.447 c -1.236,-3.075 -4.732,-4.565 -7.805,-3.328 -3.074,1.237 -4.564,4.731 -3.328,7.806 l 16.648,41.393 c -23.563,-3.306 -41.757,-23.586 -41.757,-48.047 l 0,-40.656 c 0,-61.535 16.752,-121.49 48.53,-174.004 31.778,52.515 48.53,112.469 48.53,174.004 l 0,40.656 z"
       id="path5"
       inkscape:connector-curvature="0" /></g><g
     id="g7" /><g
     id="g9" /><g
     id="g11" /><g
     id="g13" /><g
     id="g15" /><g
     id="g17" /><g
     id="g19" /><g
     id="g21" /><g
     id="g23" /><g
     id="g25" /><g
     id="g27" /><g
     id="g29" /><g
     id="g31" /><g
     id="g33" /><g
     id="g35" /></svg>