<?xml version="1.0" encoding="UTF-8" standalone="no"?>
<!-- Generator: Adobe Illustrator 18.0.0, SVG Export Plug-In . SVG Version: 6.00 Build 0)  -->

<svg
   xmlns:dc="http://purl.org/dc/elements/1.1/"
   xmlns:cc="http://creativecommons.org/ns#"
   xmlns:rdf="http://www.w3.org/1999/02/22-rdf-syntax-ns#"
   xmlns:svg="http://www.w3.org/2000/svg"
   xmlns="http://www.w3.org/2000/svg"
   xmlns:sodipodi="http://sodipodi.sourceforge.net/DTD/sodipodi-0.dtd"
   xmlns:inkscape="http://www.inkscape.org/namespaces/inkscape"
   version="1.1"
   id="Capa_1"
   x="0px"
   y="0px"
   viewBox="0 0 222.418 222.418"
   style="enable-background:new 0 0 222.418 222.418;"
   xml:space="preserve"
   inkscape:version="0.91 r13725"
   sodipodi:docname="reniform.svg"><metadata
     id="metadata41"><rdf:RDF><cc:Work
         rdf:about=""><dc:format>image/svg+xml</dc:format><dc:type
           rdf:resource="http://purl.org/dc/dcmitype/StillImage" /></cc:Work></rdf:RDF></metadata><defs
     id="defs39" /><sodipodi:namedview
     pagecolor="#ffffff"
     bordercolor="#666666"
     borderopacity="1"
     objecttolerance="10"
     gridtolerance="10"
     guidetolerance="10"
     inkscape:pageopacity="0"
     inkscape:pageshadow="2"
     inkscape:window-width="690"
     inkscape:window-height="480"
     id="namedview37"
     showgrid="false"
     inkscape:zoom="1.0610652"
     inkscape:cx="111.209"
     inkscape:cy="111.209"
     inkscape:window-x="0"
     inkscape:window-y="0"
     inkscape:window-maximized="0"
     inkscape:current-layer="Capa_1" /><g
     id="g3"
     transform="matrix(-1,0,0,1,222.41788,0)"><path
       d="M 220.66,137.528 C 202.28,119.148 178.602,107.991 153.07,105.482 163.774,94.553 170.205,79.824 170.561,64.145 170.943,47.348 164.611,31.617 152.732,19.849 140.546,7.777 123.496,1.177 105.952,1.739 77.451,2.654 50.802,14.447 30.912,34.946 10.979,55.493 0,82.576 0,111.209 c 0,28.633 10.979,55.716 30.912,76.262 19.89,20.5 46.539,32.292 75.04,33.207 0.692,0.022 1.385,0.033 2.075,0.033 16.807,0 33,-6.547 44.704,-18.142 11.878,-11.767 18.211,-27.497 17.83,-44.292 -0.347,-15.347 -6.509,-29.79 -16.808,-40.645 22.059,2.589 42.476,12.436 58.422,28.382 1.171,1.171 2.707,1.757 4.242,1.757 1.535,0 3.071,-0.586 4.242,-1.757 2.345,-2.344 2.345,-6.142 0.001,-8.486 z m -86.509,-32.391 c -0.095,0.024 -0.192,0.044 -0.285,0.073 l -14.255,0 c 1.185,-16.148 7.333,-31.682 17.637,-44.258 l 16.265,-19.85 c 3.475,6.951 5.236,14.704 5.052,22.772 -0.387,17.048 -9.709,32.701 -24.414,41.263 z M 106.337,13.734 c 14.238,-0.474 28.097,4.878 37.95,14.641 0.806,0.798 1.567,1.627 2.309,2.469 -0.341,0.268 -0.661,0.573 -0.947,0.922 l -17.682,21.58 c -12.058,14.716 -19.174,32.947 -20.378,51.864 l -10.654,0 -4.701,-14.05 C 87.579,77.247 86.894,62.345 90.255,48.066 l 7.938,-33.733 c 2.682,-0.305 5.396,-0.511 8.144,-0.599 z M 78.573,176.833 85.38,205.76 C 69.976,201.893 56.098,194.414 44.662,184.268 l -0.729,-6.984 c -1.459,-13.98 0.854,-28.131 6.688,-40.921 l 8.737,-19.153 24.833,0 -3.337,9.973 c -5.363,16.03 -6.152,33.199 -2.281,49.65 z M 43.933,44.598 44.601,38.203 C 56.032,28.044 69.909,20.552 85.314,16.674 l -6.74,28.643 c -3.871,16.452 -3.082,33.621 2.281,49.65 l 3.427,10.242 -24.679,0 -8.983,-19.69 C 44.786,72.728 42.474,58.577 43.933,44.598 Z m -12.425,7.817 c -0.051,13.098 2.732,26.108 8.194,38.084 l 6.711,14.711 -34.227,0 C 13.367,85.414 20.352,67.252 31.508,52.415 Z m -19.322,64.795 33.982,0 -6.465,14.173 c -5.539,12.143 -8.315,25.35 -8.183,38.635 C 20.357,155.179 13.367,137.012 12.186,117.21 Z m 94.151,91.474 c -2.726,-0.087 -5.419,-0.29 -8.08,-0.592 l -8.002,-34.007 c -3.36,-14.279 -2.676,-29.181 1.979,-43.094 l 4.611,-13.781 10.761,0 c 1.255,18.82 8.36,36.948 20.361,51.595 l 17.682,21.58 c 0.325,0.397 0.693,0.736 1.088,1.027 -0.785,0.899 -1.593,1.783 -2.45,2.632 -9.854,9.762 -23.702,15.094 -37.95,14.64 z M 153.595,181.15 137.248,161.199 C 127,148.692 120.862,133.261 119.628,117.21 l 14.403,0 c 14.775,8.547 24.146,24.242 24.534,41.338 0.182,8.003 -1.55,15.695 -4.97,22.602 z"
       id="path5"
       inkscape:connector-curvature="0" /></g><g
     id="g7" /><g
     id="g9" /><g
     id="g11" /><g
     id="g13" /><g
     id="g15" /><g
     id="g17" /><g
     id="g19" /><g
     id="g21" /><g
     id="g23" /><g
     id="g25" /><g
     id="g27" /><g
     id="g29" /><g
     id="g31" /><g
     id="g33" /><g
     id="g35" /></svg>