<?xml version="1.0" encoding="UTF-8" standalone="no"?>
<!-- Generator: Adobe Illustrator 18.0.0, SVG Export Plug-In . SVG Version: 6.00 Build 0)  -->

<svg
   xmlns:dc="http://purl.org/dc/elements/1.1/"
   xmlns:cc="http://creativecommons.org/ns#"
   xmlns:rdf="http://www.w3.org/1999/02/22-rdf-syntax-ns#"
   xmlns:svg="http://www.w3.org/2000/svg"
   xmlns="http://www.w3.org/2000/svg"
   xmlns:sodipodi="http://sodipodi.sourceforge.net/DTD/sodipodi-0.dtd"
   xmlns:inkscape="http://www.inkscape.org/namespaces/inkscape"
   version="1.1"
   id="Capa_1"
   x="0px"
   y="0px"
   viewBox="0 0 275.131 275.131"
   style="enable-background:new 0 0 275.131 275.131;"
   xml:space="preserve"
   inkscape:version="0.91 r13725"
   sodipodi:docname="rhomboid.svg"><metadata
     id="metadata41"><rdf:RDF><cc:Work
         rdf:about=""><dc:format>image/svg+xml</dc:format><dc:type
           rdf:resource="http://purl.org/dc/dcmitype/StillImage" /></cc:Work></rdf:RDF></metadata><defs
     id="defs39" /><sodipodi:namedview
     pagecolor="#ffffff"
     bordercolor="#666666"
     borderopacity="1"
     objecttolerance="10"
     gridtolerance="10"
     guidetolerance="10"
     inkscape:pageopacity="0"
     inkscape:pageshadow="2"
     inkscape:window-width="690"
     inkscape:window-height="480"
     id="namedview37"
     showgrid="false"
     inkscape:zoom="0.85777317"
     inkscape:cx="137.56551"
     inkscape:cy="137.56551"
     inkscape:window-x="703"
     inkscape:window-y="182"
     inkscape:window-maximized="0"
     inkscape:current-layer="Capa_1" /><g
     id="g3"
     transform="matrix(-1,0,0,1,275.131,0)"><path
       d="m 273.374,125.525 c -2.343,-2.343 -6.143,-2.343 -8.485,0 -3.895,3.896 -9.074,6.041 -14.583,6.041 l -21.658,0 -52.581,-69.375 c -1.402,-1.851 -3.745,-2.725 -6.02,-2.247 L 120.372,70.415 93.955,69.554 c -1.277,-0.048 -2.537,0.326 -3.591,1.05 L 61.31,90.545 c -0.47,0.202 -0.925,0.462 -1.346,0.794 -0.139,0.109 -0.269,0.226 -0.395,0.345 l -28.023,6.188 c -1.949,0.43 -3.556,1.802 -4.288,3.659 L 19.899,120.2 2.5,132.692 c -1.57,1.127 -2.5,2.941 -2.5,4.874 0,1.933 0.931,3.747 2.5,4.874 l 17.397,12.493 7.359,18.669 c 0.732,1.857 2.339,3.229 4.288,3.659 l 28.146,6.215 30.672,21.052 c 1.054,0.724 2.314,1.1 3.591,1.05 l 26.417,-0.86 49.676,10.471 c 0.412,0.087 0.827,0.129 1.238,0.129 1.854,0 3.633,-0.861 4.781,-2.376 l 52.581,-69.375 21.658,0 c 8.714,0 16.907,-3.394 23.068,-9.555 2.345,-2.345 2.345,-6.144 0.002,-8.487 z m -59.783,6.041 -25.864,0 -54.405,-51.617 35.479,-7.479 44.79,59.096 z m -118.06,-49.954 22.895,0.747 51.866,49.208 -71.045,0 -26.823,-34.095 23.107,-15.86 z m -67.199,47.304 c 0.937,-0.672 1.66,-1.601 2.083,-2.673 l 6.836,-17.343 24.619,-5.436 22.109,28.101 -9.61,0 c -0.003,0 -0.005,0 -0.008,0 l -49.719,0 3.69,-2.649 z m 0,17.299 -3.689,-2.649 32.839,0 -22.072,17.997 -4.996,-12.675 c -0.423,-1.072 -1.146,-2.001 -2.082,-2.673 z m 35.087,25.794 -17.179,-3.793 30.23,-24.65 19.859,0 c 0.003,0 0.006,0 0.009,0 0.002,0 0.004,0 0.006,0 l 24.641,0 -27.713,48.403 -27.751,-19.047 c -0.636,-0.437 -1.35,-0.747 -2.102,-0.913 z m 57.482,20.688 c -0.065,0 -0.13,0.001 -0.195,0.003 l -14.292,0.465 28.398,-49.6 17.727,0 11.15,58.018 -41.551,-8.758 c -0.407,-0.086 -0.822,-0.128 -1.237,-0.128 z m 53.735,2.265 -9.878,-51.397 48.832,0 -38.954,51.397 z"
       id="path5"
       inkscape:connector-curvature="0" /></g><g
     id="g7" /><g
     id="g9" /><g
     id="g11" /><g
     id="g13" /><g
     id="g15" /><g
     id="g17" /><g
     id="g19" /><g
     id="g21" /><g
     id="g23" /><g
     id="g25" /><g
     id="g27" /><g
     id="g29" /><g
     id="g31" /><g
     id="g33" /><g
     id="g35" /></svg>