<?xml version="1.0" encoding="UTF-8" standalone="no"?>
<!-- Generator: Adobe Illustrator 18.0.0, SVG Export Plug-In . SVG Version: 6.00 Build 0)  -->

<svg
   xmlns:dc="http://purl.org/dc/elements/1.1/"
   xmlns:cc="http://creativecommons.org/ns#"
   xmlns:rdf="http://www.w3.org/1999/02/22-rdf-syntax-ns#"
   xmlns:svg="http://www.w3.org/2000/svg"
   xmlns="http://www.w3.org/2000/svg"
   xmlns:sodipodi="http://sodipodi.sourceforge.net/DTD/sodipodi-0.dtd"
   xmlns:inkscape="http://www.inkscape.org/namespaces/inkscape"
   version="1.1"
   id="Capa_1"
   x="0px"
   y="0px"
   viewBox="0 0 277 277"
   style="enable-background:new 0 0 277 277;"
   xml:space="preserve"
   inkscape:version="0.91 r13725"
   sodipodi:docname="spear-shaped.svg"><metadata
     id="metadata41"><rdf:RDF><cc:Work
         rdf:about=""><dc:format>image/svg+xml</dc:format><dc:type
           rdf:resource="http://purl.org/dc/dcmitype/StillImage" /></cc:Work></rdf:RDF></metadata><defs
     id="defs39" /><sodipodi:namedview
     pagecolor="#ffffff"
     bordercolor="#666666"
     borderopacity="1"
     objecttolerance="10"
     gridtolerance="10"
     guidetolerance="10"
     inkscape:pageopacity="0"
     inkscape:pageshadow="2"
     inkscape:window-width="690"
     inkscape:window-height="480"
     id="namedview37"
     showgrid="false"
     inkscape:zoom="0.85198556"
     inkscape:cx="138.5"
     inkscape:cy="138.5"
     inkscape:window-x="229"
     inkscape:window-y="186"
     inkscape:window-maximized="0"
     inkscape:current-layer="Capa_1" /><g
     id="g3"
     transform="matrix(0,1,-1,0,276.99911,-1.1358087e-4)"><path
       d="M 199.802,169.044 172.373,27.924 C 169.229,11.744 154.983,0 138.5,0 122.017,0 107.771,11.744 104.626,27.924 l -27.429,141.12 c -2.254,11.598 -1.156,23.194 3.175,33.535 0.206,0.492 0.418,0.98 0.637,1.467 2.277,5.071 6.624,8.897 11.925,10.498 5.291,1.599 11.017,0.819 15.708,-2.136 7.04,-4.434 14.946,-7.212 23.17,-8.194 -0.549,13.475 2.19,42.616 30.603,71.028 1.171,1.171 2.707,1.757 4.243,1.757 1.536,0 3.071,-0.586 4.243,-1.757 2.343,-2.343 2.343,-6.142 0,-8.485 -25.927,-25.927 -27.677,-51.974 -27.087,-62.691 8.717,0.824 17.113,3.661 24.543,8.341 3.091,1.947 6.631,2.95 10.201,2.95 1.847,0 3.703,-0.269 5.507,-0.813 5.301,-1.601 9.648,-5.427 11.926,-10.5 0.218,-0.485 0.43,-0.974 0.636,-1.466 4.332,-10.341 5.429,-21.937 3.175,-33.534 z m -14.243,28.899 c -0.167,0.398 -0.339,0.794 -0.515,1.187 -0.866,1.927 -2.445,3.322 -4.448,3.927 -1.993,0.601 -4.067,0.316 -5.843,-0.802 -9.359,-5.895 -19.975,-9.386 -30.975,-10.236 l 0,-12.585 c 14.026,-1.437 23.683,-7.906 23.683,-16.434 0,-3.313 -2.687,-6 -6,-6 -3.242,0 -5.883,2.571 -5.996,5.786 -0.678,1.182 -4.727,3.601 -11.687,4.55 l 0,-18.345 c 14.026,-1.437 23.683,-7.906 23.683,-16.434 0,-3.313 -2.687,-6 -6,-6 -3.242,0 -5.883,2.571 -5.996,5.786 -0.678,1.182 -4.727,3.601 -11.687,4.55 l 0,-17.94 c 7.972,-1.427 13.152,-5.741 13.152,-11.453 0,-3.313 -2.687,-6 -6,-6 -2.795,0 -5.145,1.912 -5.811,4.499 -0.309,0.179 -0.769,0.381 -1.342,0.577 l 0,-37.698 c 0,-3.313 -2.687,-6 -6,-6 -3.313,0 -6,2.687 -6,6 l 0,37.698 c -0.573,-0.197 -1.034,-0.399 -1.342,-0.577 -0.666,-2.587 -3.015,-4.499 -5.811,-4.499 -3.313,0 -6,2.687 -6,6 0,5.712 5.181,10.025 13.153,11.453 l 0,17.94 c -6.96,-0.95 -11.009,-3.368 -11.687,-4.55 -0.113,-3.214 -2.754,-5.786 -5.996,-5.786 -3.313,0 -6,2.687 -6,6 0,8.528 9.657,14.998 23.683,16.434 l 0,18.345 c -6.96,-0.95 -11.009,-3.368 -11.687,-4.55 -0.113,-3.214 -2.754,-5.786 -5.996,-5.786 -3.313,0 -6,2.687 -6,6 0,8.528 9.657,14.998 23.683,16.434 l 0,12.712 c -10.484,1.034 -20.582,4.472 -29.531,10.109 -1.776,1.119 -3.852,1.402 -5.844,0.802 -2.002,-0.605 -3.582,-2 -4.447,-3.926 -0.176,-0.394 -0.348,-0.789 -0.515,-1.188 -3.412,-8.146 -4.264,-17.348 -2.464,-26.61 L 116.405,30.213 C 118.457,19.66 127.749,12 138.5,12 c 10.751,0 20.042,7.66 22.094,18.213 l 27.429,141.12 c 1.8,9.262 0.948,18.463 -2.464,26.61 z"
       id="path5"
       inkscape:connector-curvature="0" /></g><g
     id="g7" /><g
     id="g9" /><g
     id="g11" /><g
     id="g13" /><g
     id="g15" /><g
     id="g17" /><g
     id="g19" /><g
     id="g21" /><g
     id="g23" /><g
     id="g25" /><g
     id="g27" /><g
     id="g29" /><g
     id="g31" /><g
     id="g33" /><g
     id="g35" /></svg>