<?xml version="1.0" encoding="UTF-8" standalone="no"?>
<!-- Generator: Adobe Illustrator 18.0.0, SVG Export Plug-In . SVG Version: 6.00 Build 0)  -->

<svg
   xmlns:dc="http://purl.org/dc/elements/1.1/"
   xmlns:cc="http://creativecommons.org/ns#"
   xmlns:rdf="http://www.w3.org/1999/02/22-rdf-syntax-ns#"
   xmlns:svg="http://www.w3.org/2000/svg"
   xmlns="http://www.w3.org/2000/svg"
   xmlns:sodipodi="http://sodipodi.sourceforge.net/DTD/sodipodi-0.dtd"
   xmlns:inkscape="http://www.inkscape.org/namespaces/inkscape"
   version="1.1"
   id="Capa_1"
   x="0px"
   y="0px"
   viewBox="0 0 247.746 247.746"
   style="enable-background:new 0 0 247.746 247.746;"
   xml:space="preserve"
   inkscape:version="0.91 r13725"
   sodipodi:docname="straberry-leaf.svg"><metadata
     id="metadata41"><rdf:RDF><cc:Work
         rdf:about=""><dc:format>image/svg+xml</dc:format><dc:type
           rdf:resource="http://purl.org/dc/dcmitype/StillImage" /></cc:Work></rdf:RDF></metadata><defs
     id="defs39" /><sodipodi:namedview
     pagecolor="#ffffff"
     bordercolor="#666666"
     borderopacity="1"
     objecttolerance="10"
     gridtolerance="10"
     guidetolerance="10"
     inkscape:pageopacity="0"
     inkscape:pageshadow="2"
     inkscape:window-width="690"
     inkscape:window-height="849"
     id="namedview37"
     showgrid="false"
     inkscape:zoom="0.95258853"
     inkscape:cx="123.873"
     inkscape:cy="123.873"
     inkscape:window-x="0"
     inkscape:window-y="0"
     inkscape:window-maximized="0"
     inkscape:current-layer="Capa_1" /><g
     id="g3"
     style="fill:#800000;fill-opacity:1"
     transform="matrix(0,1,-1,0,247.74661,-0.00260834)"><path
       d="m 246.801,117.385 c -0.997,-1.56 -2.659,-2.572 -4.503,-2.742 l -8.04,-0.743 -2.628,-3.105 c -1.385,-1.637 -3.542,-2.411 -5.651,-2.027 l -11.436,2.076 -0.373,-1.277 c -0.69,-2.364 -2.755,-4.067 -5.208,-4.293 -3.108,-0.29 -10.221,1.652 -21.105,5.745 l -11.459,4.203 -2.86,-10.07 5.976,-14.726 c 0.663,-1.634 0.574,-3.477 -0.244,-5.039 l -5.347,-10.214 0.06,-20.661 c 0.005,-1.64 -0.662,-3.21 -1.845,-4.346 -1.184,-1.136 -2.783,-1.732 -4.418,-1.666 l -2.515,0.11 c -1.83,-7.927 -4.159,-16.262 -6.359,-19.09 -1.512,-1.944 -4.058,-2.767 -6.422,-2.074 l -2.373,0.695 -5.508,-13.424 c -0.814,-1.985 -2.626,-3.384 -4.752,-3.669 L 134.663,10.36 128.61,2.576 c -1.137,-1.461 -2.885,-2.316 -4.736,-2.316 -1.851,0 -3.6,0.855 -4.736,2.316 l -6.053,7.784 -5.128,0.688 c -2.126,0.286 -3.938,1.685 -4.752,3.669 l -5.508,13.424 -2.373,-0.695 c -2.365,-0.694 -4.911,0.13 -6.422,2.074 -2.2,2.829 -4.529,11.164 -6.359,19.09 L 80.028,48.5 c -1.628,-0.067 -3.234,0.53 -4.418,1.666 -1.183,1.136 -1.85,2.706 -1.845,4.346 l 0.06,20.661 -5.347,10.214 c -0.842,1.61 -0.91,3.515 -0.184,5.18 l 6.067,13.917 -2.684,10.857 -11.74,-4.307 c -10.929,-4.109 -18.045,-6.045 -21.151,-5.762 -2.453,0.227 -4.519,1.929 -5.208,4.293 l -0.373,1.277 -11.436,-2.076 c -2.111,-0.384 -4.266,0.39 -5.651,2.027 l -2.628,3.105 -8.04,0.743 c -1.844,0.17 -3.506,1.183 -4.503,2.742 -0.998,1.56 -1.219,3.493 -0.6,5.238 l 2.699,7.61 -1.715,3.688 c -0.905,1.945 -0.702,4.225 0.531,5.98 l 6.682,9.509 -1.003,0.875 c -1.857,1.619 -2.536,4.208 -1.712,6.53 0.882,2.485 4.413,6.908 10.514,13.173 l -0.821,1.168 c -0.943,1.342 -1.296,3.011 -0.977,4.62 0.319,1.609 1.283,3.016 2.667,3.896 l 14.729,9.357 4.788,8.369 c 0.875,1.531 2.38,2.598 4.114,2.92 l 13.065,2.423 6.466,7.295 c 1.554,1.753 3.986,2.441 6.228,1.764 l 10.054,-3.042 c 0.268,1.076 0.831,2.067 1.643,2.855 1.124,1.091 2.625,1.695 4.179,1.695 0.163,0 0.326,-0.007 0.49,-0.02 l 18.817,-1.54 c 5.83,-0.477 11.37,-2.654 15.962,-6.123 -0.809,11.947 -5.835,23.071 -14.383,31.619 -2.343,2.343 -2.343,6.142 0,8.485 1.171,1.171 2.707,1.757 4.243,1.757 1.536,0 3.071,-0.586 4.243,-1.757 10.854,-10.854 17.151,-25.049 17.939,-40.265 4.633,3.565 10.258,5.8 16.18,6.284 l 18.817,1.54 c 0.164,0.013 0.327,0.02 0.49,0.02 1.554,0 3.055,-0.604 4.179,-1.695 0.812,-0.788 1.375,-1.78 1.643,-2.855 l 10.054,3.042 c 2.241,0.677 4.674,-0.01 6.228,-1.764 l 6.466,-7.295 13.065,-2.423 c 1.733,-0.322 3.238,-1.389 4.114,-2.92 l 4.788,-8.369 14.729,-9.357 c 1.384,-0.88 2.348,-2.288 2.667,-3.896 0.319,-1.608 -0.034,-3.278 -0.977,-4.62 l -0.821,-1.168 c 6.101,-6.265 9.632,-10.688 10.514,-13.173 0.824,-2.322 0.145,-4.911 -1.712,-6.53 l -1.003,-0.875 6.682,-9.509 c 1.233,-1.755 1.436,-4.035 0.531,-5.98 l -1.715,-3.688 2.699,-7.61 c 0.613,-1.743 0.391,-3.676 -0.606,-5.236 z M 93.181,56.073 c 1.14,-5.364 2.694,-11.599 3.925,-15.6 l 2.403,0.704 c 2.949,0.864 6.071,-0.639 7.237,-3.48 l 6.243,-15.216 4.123,-0.554 c 1.558,-0.209 2.972,-1.022 3.938,-2.263 l 2.823,-3.63 2.823,3.63 c 0.965,1.241 2.379,2.054 3.938,2.263 l 4.123,0.554 6.243,15.215 c 1.166,2.842 4.29,4.346 7.237,3.48 l 2.403,-0.704 c 1.23,4.001 2.785,10.236 3.925,15.6 0.609,2.869 3.207,4.877 6.132,4.748 l 1.267,-0.056 -0.046,15.858 c -0.003,0.975 0.232,1.936 0.684,2.8 l 4.746,9.066 -5.707,14.061 c -0.503,1.239 -0.577,2.61 -0.212,3.896 l 2.724,9.592 -13.753,11.776 c -1.484,1.271 -2.257,3.185 -2.07,5.13 0.187,1.945 1.309,3.678 3.008,4.644 l 0.531,0.302 -27.884,33.043 -26.722,-33.25 0.526,-0.343 c 1.59,-1.035 2.596,-2.76 2.715,-4.653 0.119,-1.893 -0.665,-3.73 -2.113,-4.956 l -14.406,-12.188 2.51,-10.153 c 0.316,-1.28 0.202,-2.629 -0.325,-3.837 l -5.73,-13.146 4.703,-8.983 c 0.452,-0.864 0.687,-1.825 0.684,-2.8 l -0.046,-15.858 1.267,0.056 c 2.913,0.122 5.523,-1.88 6.133,-4.748 z m 7.622,143.717 -11.981,0.98 c 0.046,-1.892 -0.803,-3.699 -2.298,-4.87 -1.069,-0.838 -2.375,-1.277 -3.701,-1.277 -0.582,0 -1.167,0.084 -1.737,0.257 l -14.283,4.321 -5.285,-5.963 c -0.887,-1 -2.082,-1.676 -3.396,-1.92 l -12.36,-2.292 -4.145,-7.245 c -0.484,-0.846 -1.167,-1.562 -1.99,-2.085 l -10.675,-6.782 0.099,-0.141 c 1.687,-2.399 1.392,-5.666 -0.696,-7.724 -3.055,-3.011 -6.506,-6.642 -8.818,-9.303 l 0.964,-0.841 c 2.315,-2.018 2.733,-5.459 0.967,-7.973 l -7.796,-11.094 1.288,-2.769 c 0.663,-1.425 0.74,-3.054 0.214,-4.536 l -0.94,-2.651 2.801,-0.259 c 1.566,-0.145 3.012,-0.898 4.028,-2.098 l 1.973,-2.331 13.341,2.421 c 3.03,0.552 5.971,-1.274 6.832,-4.222 l 0.358,-1.228 c 3.39,0.984 8.145,2.597 12.19,4.118 l 27.981,10.265 c -0.634,0.799 -1.066,1.75 -1.23,2.778 -0.268,1.674 0.186,3.383 1.248,4.705 l 34.065,42.386 c -0.197,3.125 -1.169,6.196 -2.884,8.874 -3.108,4.852 -8.392,8.029 -14.134,8.499 z m 125.475,-52.857 c -1.766,2.513 -1.349,5.955 0.967,7.973 l 0.964,0.84 c -2.313,2.661 -5.763,6.292 -8.818,9.304 -2.088,2.059 -2.382,5.325 -0.696,7.724 l 0.099,0.141 -10.675,6.782 c -0.823,0.523 -1.506,1.239 -1.99,2.085 l -4.145,7.245 -12.36,2.292 c -1.314,0.244 -2.509,0.919 -3.396,1.92 l -5.285,5.963 -14.283,-4.321 c -1.87,-0.565 -3.899,-0.185 -5.438,1.02 -1.495,1.171 -2.344,2.978 -2.298,4.87 l -11.981,-0.98 c -5.742,-0.47 -11.026,-3.647 -14.134,-8.498 -1.701,-2.656 -2.67,-5.699 -2.878,-8.797 l 35.766,-42.383 c 1.15,-1.363 1.634,-3.167 1.321,-4.923 -0.214,-1.203 -0.798,-2.288 -1.638,-3.142 l 26.653,-9.778 c 4.016,-1.509 8.759,-3.119 12.146,-4.101 l 0.358,1.228 c 0.86,2.948 3.806,4.773 6.832,4.222 l 13.341,-2.421 1.973,2.331 c 1.016,1.2 2.462,1.954 4.028,2.098 l 2.801,0.259 -0.94,2.651 c -0.525,1.482 -0.449,3.111 0.214,4.536 l 1.288,2.769 -7.796,11.091 z"
       id="path5"
       style="fill:#800000;fill-opacity:1"
       inkscape:connector-curvature="0" /></g><g
     id="g7" /><g
     id="g9" /><g
     id="g11" /><g
     id="g13" /><g
     id="g15" /><g
     id="g17" /><g
     id="g19" /><g
     id="g21" /><g
     id="g23" /><g
     id="g25" /><g
     id="g27" /><g
     id="g29" /><g
     id="g31" /><g
     id="g33" /><g
     id="g35" /><path
     style="opacity:1;fill:#808900;fill-opacity:1;stroke:#373e48;stroke-width:0.5427317;stroke-miterlimit:4;stroke-dasharray:none;stroke-opacity:1"
     d="m 151.37701,163.61677 c -6.61362,-2.84536 -9.13714,-3.07379 -14.89609,-1.34836 l -4.11707,1.2335 -7.66255,-8.17603 c -6.65559,-7.1016 -7.99294,-8.07453 -10.17663,-7.40365 -1.38275,0.42481 -3.09956,1.24064 -3.81515,1.81295 -0.94228,0.75363 -5.50514,-2.49936 -16.546336,-11.79633 -8.384899,-7.06031 -15.448815,-13.16626 -15.69759,-13.56878 -0.248774,-0.40253 6.676248,-6.45477 15.388938,-13.44942 15.388268,-12.353877 15.911658,-12.671415 18.303218,-11.104402 3.83729,2.514282 6.64984,0.990992 13.75072,-7.44746 l 6.54949,-7.783189 6.01204,1.397546 c 5.83318,1.355967 6.23543,1.303775 13.5206,-1.754272 l 7.50856,-3.151818 5.35197,2.712046 c 4.26092,2.159173 6.91061,2.720289 12.9977,2.752483 7.42473,0.03927 7.70643,0.136514 9.74528,3.364165 1.82414,2.887742 3.20956,3.585826 10.5617,5.321822 8.40654,1.984962 8.45919,2.018319 8.0105,5.075409 -0.62286,4.24388 1.4141,6.11366 10.68106,9.80437 7.13591,2.84197 7.93269,3.45222 8.50738,6.51558 0.34874,1.85895 1.79458,4.29277 3.21297,5.40848 l 2.57889,2.02855 -2.56886,1.68319 c -1.5156,0.99306 -2.84017,3.12934 -3.23056,5.21029 -0.60914,3.24699 -1.31887,3.79844 -8.93664,6.94359 -9.52707,3.93345 -10.85751,5.15758 -10.23263,9.41508 0.44706,3.04612 0.34198,3.11941 -6.9654,4.85726 -8.51209,2.02435 -11.70215,3.72229 -12.6593,6.73802 -0.59521,1.87532 -1.56902,2.12873 -8.21535,2.13777 -5.81656,0.008 -8.82371,0.60781 -13.15563,2.62442 -6.66527,3.10285 -6.46865,3.1036 -13.80523,-0.0528 z"
     id="path4177"
     inkscape:connector-curvature="0" /><path
     style="opacity:1;fill:#808900;fill-opacity:1;stroke:#373e48;stroke-width:0.5427317;stroke-miterlimit:4;stroke-dasharray:none;stroke-opacity:1"
     d="m 106.00603,229.30046 c -5.96146,-4.26891 -10.783676,-5.39237 -13.119511,-3.05654 -0.864124,0.86413 -2.582282,-0.14526 -6.525287,-3.83347 -4.039316,-3.77831 -6.123827,-4.98453 -8.497346,-4.91704 -2.690465,0.0765 -3.661656,-0.71819 -6.719359,-5.49815 -2.147076,-3.35642 -5.249157,-6.52887 -7.768688,-7.94493 -3.924288,-2.20557 -4.278497,-2.80452 -5.500963,-9.30181 -1.049241,-5.57662 -2.023147,-7.66242 -4.944502,-10.58955 l -3.637904,-3.6451 2.356014,-8.15358 c 2.21348,-7.6603 2.251536,-8.31303 0.62905,-10.78925 -0.94983,-1.44963 -2.462268,-2.63568 -3.360975,-2.63568 -2.381503,0 -0.976672,-12.71891 2.087091,-18.89588 2.346797,-4.73147 8.498598,-9.39337 12.44464,-9.43067 1.004696,-0.01 11.633629,8.28177 23.619852,18.42505 19.699018,16.67019 22.116958,18.40576 25.163198,18.06177 3.77003,-0.42571 3.02021,-1.91022 12.95081,25.64024 3.86175,10.71365 3.95386,11.26031 2.00174,11.87989 -2.89388,0.91848 -3.63201,5.14758 -2.27803,13.05203 1.07281,6.26302 1.00087,6.97913 -0.87688,8.72852 -1.12506,1.04815 -2.04557,2.79855 -2.04557,3.88976 0,1.56387 -0.72249,1.95786 -3.41175,1.86049 -1.87647,-0.0679 -4.14243,0.21553 -5.03547,0.62994 -1.05989,0.49183 -3.67469,-0.7152 -7.53016,-3.47604 z"
     id="path4179"
     inkscape:connector-curvature="0" /><path
     style="opacity:1;fill:#808900;fill-opacity:1;stroke:#373e48;stroke-width:0.5427317;stroke-miterlimit:4;stroke-dasharray:none;stroke-opacity:1"
     d="m 60.046912,116.18707 c -6.949284,-2.61125 -10.927324,-9.02631 -11.935278,-19.247044 -0.666703,-6.760426 -0.622788,-6.923702 2.478962,-9.216925 3.758994,-2.779144 3.80898,-3.475766 0.92961,-12.955464 l -2.22808,-7.335468 3.677715,-3.850093 c 2.929277,-3.066576 3.931619,-5.242503 4.92536,-10.69218 1.160453,-6.363937 1.537141,-7.008699 5.390206,-9.226242 2.345853,-1.350101 5.789243,-4.864236 7.939212,-8.102323 3.128186,-4.711389 4.20458,-5.615783 6.113566,-5.136657 1.733775,0.43515 3.846899,-0.724076 8.395779,-4.605788 5.665388,-4.834463 6.256981,-5.094888 8.697516,-3.828722 3.150222,1.634354 4.333472,1.255041 11.85805,-3.80133 4.48432,-3.013374 6.2467,-3.680049 7.65094,-2.894199 1.00348,0.561576 3.22366,0.713743 4.93373,0.338149 2.6679,-0.58597 3.10921,-0.373058 3.10921,1.500054 0,1.200623 0.94069,3.12364 2.09042,4.27337 1.8687,1.868704 1.97278,2.638949 0.98126,7.262223 -1.62009,7.554247 -0.93918,12.925407 1.81137,14.288342 2.23837,1.109144 2.19642,1.290498 -4.67996,20.232233 l -6.93858,19.113056 -3.29058,0 c -2.6851,0 -7.25055,3.187169 -24.811691,17.321224 C 66.928383,115.89512 64.01275,117.67726 60.046912,116.18707 Z"
     id="path4181"
     inkscape:connector-curvature="0" /></svg>