<?xml version="1.0" encoding="UTF-8" standalone="no"?>
<!-- Generator: Adobe Illustrator 18.0.0, SVG Export Plug-In . SVG Version: 6.00 Build 0)  -->

<svg
   xmlns:dc="http://purl.org/dc/elements/1.1/"
   xmlns:cc="http://creativecommons.org/ns#"
   xmlns:rdf="http://www.w3.org/1999/02/22-rdf-syntax-ns#"
   xmlns:svg="http://www.w3.org/2000/svg"
   xmlns="http://www.w3.org/2000/svg"
   xmlns:sodipodi="http://sodipodi.sourceforge.net/DTD/sodipodi-0.dtd"
   xmlns:inkscape="http://www.inkscape.org/namespaces/inkscape"
   version="1.1"
   id="Capa_1"
   x="0px"
   y="0px"
   viewBox="0 0 240.999 240.999"
   style="enable-background:new 0 0 240.999 240.999;"
   xml:space="preserve"
   inkscape:version="0.91 r13725"
   sodipodi:docname="subulate.svg"><metadata
     id="metadata41"><rdf:RDF><cc:Work
         rdf:about=""><dc:format>image/svg+xml</dc:format><dc:type
           rdf:resource="http://purl.org/dc/dcmitype/StillImage" /></cc:Work></rdf:RDF></metadata><defs
     id="defs39" /><sodipodi:namedview
     pagecolor="#ffffff"
     bordercolor="#666666"
     borderopacity="1"
     objecttolerance="10"
     gridtolerance="10"
     guidetolerance="10"
     inkscape:pageopacity="0"
     inkscape:pageshadow="2"
     inkscape:window-width="1131"
     inkscape:window-height="713"
     id="namedview37"
     showgrid="false"
     inkscape:zoom="0.9792572"
     inkscape:cx="120.4995"
     inkscape:cy="110.56695"
     inkscape:window-x="199"
     inkscape:window-y="284"
     inkscape:window-maximized="0"
     inkscape:current-layer="g3" /><g
     id="g3"><path
       d="m 240.61939,106.84158 c -0.0307,-7.790346 -3.23977,-14.055416 -7.80627,-15.233764 L 82.814257,52.879018 C 73.120097,50.375685 63.304617,55.143755 55.884914,65.95878 49.571932,75.160797 45.587136,87.895359 44.574136,101.6756 l -40.7081222,0.44853 c -2.3988716,0.0265 -4.33096127,3.32788 -4.31477299,7.37461 0.007801,2.02206 0.50125692,3.84881 1.29219255,5.16545 0.79093564,1.31667 1.88041334,2.12489 3.07933714,2.11167 l 40.7070975,-0.44852 c 0.999302,12.28677 4.362912,23.68667 9.619673,32.43741 0.629141,1.04734 1.285271,2.05722 1.968376,3.02621 7.503369,10.65144 17.355459,15.20197 27.028888,12.48609 L 232.9313,122.24695 c 4.55698,-1.27886 7.71879,-7.61329 7.68809,-15.40537 z m -9.11455,0.95265 -149.685527,42.02836 c -7.160463,2.01126 -14.452859,-1.35779 -20.007284,-9.24182 -4.42245,-6.28104 -7.361142,-14.90453 -8.396537,-24.35025 l 73.180428,-0.80635 c 2.3994,-0.0255 4.33147,-3.32704 4.31529,-7.37373 -0.0146,-4.04415 -1.97317,-7.30445 -4.37154,-7.27715 l -73.181443,0.80637 C 54.317806,92.114549 57.18485,83.431429 61.565911,77.045621 67.058785,69.039833 74.323949,65.511255 81.49989,67.363668 l 149.99885,38.728802 c 0.23061,0.0596 0.42996,0.11005 0.43332,0.84483 0.003,0.73562 -0.19608,0.79221 -0.42722,0.85693 z"
       id="path5"
       inkscape:connector-curvature="0"
       style="fill:#552200" /><path
       style="opacity:1;fill:#ff9955;fill-opacity:1;stroke:#373e48;stroke-width:0.49639103;stroke-miterlimit:4;stroke-dasharray:none;stroke-opacity:1"
       d="m 69.463587,147.31096 c -3.937556,-2.43792 -9.0284,-8.88335 -11.193696,-14.17214 -1.825736,-4.45942 -4.127729,-12.75266 -4.127729,-14.87071 0,-0.61385 16.378132,-1.39427 36.995948,-1.76291 34.0555,-0.60888 37.11109,-0.83719 38.44461,-2.87258 1.8209,-2.77926 1.86929,-8.2776 0.0967,-10.98319 -1.22025,-1.86248 -4.96707,-2.06362 -38.444618,-2.06362 -42.205404,0 -38.727104,1.15702 -34.712473,-11.546521 4.158337,-13.158313 12.381293,-21.359591 21.278104,-21.221994 3.61851,0.05609 146.971077,36.519685 151.560507,38.551525 2.76917,1.22599 -144.48661,42.69518 -151.560507,42.68146 -3.049692,-0.006 -6.801254,-0.78861 -8.336801,-1.73932 z"
       id="path4171"
       inkscape:connector-curvature="0" /></g><g
     id="g7" /><g
     id="g9" /><g
     id="g11" /><g
     id="g13" /><g
     id="g15" /><g
     id="g17" /><g
     id="g19" /><g
     id="g21" /><g
     id="g23" /><g
     id="g25" /><g
     id="g27" /><g
     id="g29" /><g
     id="g31" /><g
     id="g33" /><g
     id="g35" /></svg>