<?xml version="1.0" encoding="UTF-8" standalone="no"?>
<!-- Created with Inkscape (http://www.inkscape.org/) -->

<svg
   xmlns:dc="http://purl.org/dc/elements/1.1/"
   xmlns:cc="http://creativecommons.org/ns#"
   xmlns:rdf="http://www.w3.org/1999/02/22-rdf-syntax-ns#"
   xmlns:svg="http://www.w3.org/2000/svg"
   xmlns="http://www.w3.org/2000/svg"
   xmlns:sodipodi="http://sodipodi.sourceforge.net/DTD/sodipodi-0.dtd"
   xmlns:inkscape="http://www.inkscape.org/namespaces/inkscape"
   width="52"
   height="52"
   viewBox="0 0 51.999997 51.999997"
   id="svg2"
   version="1.1"
   inkscape:version="0.91 r13725"
   sodipodi:docname="NewChildNodes_src.svg">
  <defs
     id="defs4">
    <inkscape:perspective
       sodipodi:type="inkscape:persp3d"
       inkscape:vp_x="0 : 526.18106 : 1"
       inkscape:vp_y="0 : 999.99993 : 0"
       inkscape:vp_z="744.09444 : 526.18106 : 1"
       inkscape:persp3d-origin="372.04722 : 350.78738 : 1"
       id="perspective4180" />
  </defs>
  <sodipodi:namedview
     id="base"
     pagecolor="#433b43"
     bordercolor="#666666"
     borderopacity="1.0"
     inkscape:pageopacity="0"
     inkscape:pageshadow="2"
     inkscape:zoom="11.313708"
     inkscape:cx="19.783262"
     inkscape:cy="29.579464"
     inkscape:document-units="px"
     inkscape:current-layer="layer1"
     showgrid="false"
     inkscape:window-width="1920"
     inkscape:window-height="1018"
     inkscape:window-x="-8"
     inkscape:window-y="-8"
     inkscape:window-maximized="1"
     units="px" />
  <metadata
     id="metadata7">
    <rdf:RDF>
      <cc:Work
         rdf:about="">
        <dc:format>image/svg+xml</dc:format>
        <dc:type
           rdf:resource="http://purl.org/dc/dcmitype/StillImage" />
        <dc:title></dc:title>
      </cc:Work>
    </rdf:RDF>
  </metadata>
  <g
     inkscape:label="Layer 1"
     inkscape:groupmode="layer"
     id="layer1"
     transform="translate(0,-1000.3622)">
    <circle
       style="opacity:1;fill:#ffffff;fill-opacity:1;stroke:#0b6b0e;stroke-width:0;stroke-miterlimit:4;stroke-dasharray:none;stroke-opacity:1"
       id="path4206"
       cy="1025.7729"
       cx="9.7071066"
       r="4.9999952" />
    <ellipse
       style="opacity:1;fill:#ffffff;fill-opacity:1;stroke:#0b6b0e;stroke-width:0;stroke-miterlimit:4;stroke-dasharray:none;stroke-opacity:1"
       id="path4206-2"
       cy="1013.0818"
       cx="44.919048"
       rx="6.2673926"
       ry="6.4300647" />
    <ellipse
       style="opacity:1;fill:#ffffff;fill-opacity:1;stroke:#0b6b0e;stroke-width:0;stroke-miterlimit:4;stroke-dasharray:none;stroke-opacity:1"
       id="path4206-29"
       cy="1038.6738"
       cx="44.919048"
       rx="6.2673926"
       ry="6.4300647" />
    <rect
       style="opacity:1;fill:#ffffff;fill-opacity:1;stroke:#69ffff;stroke-width:0;stroke-linecap:butt;stroke-linejoin:miter;stroke-miterlimit:4;stroke-dasharray:none;stroke-dashoffset:0;stroke-opacity:1"
       id="rect5932-3-4-80-4"
       width="2.1196611"
       height="12.457013"
       x="1002.9198"
       y="14.712769"
       rx="0.11096213"
       transform="matrix(0,1,-1,0,0,0)" />
    <path
       style="fill:#ffffff;fill-opacity:1;fill-rule:evenodd;stroke:none;stroke-width:0.67099994;stroke-linecap:butt;stroke-linejoin:miter;stroke-miterlimit:4;stroke-dasharray:none;stroke-opacity:1"
       d="m -14.921199,1000.8862 -0.02411,6 5.9999989,-3 z"
       id="path4268"
       inkscape:connector-curvature="0"
       sodipodi:nodetypes="cccc" />
    <rect
       style="opacity:1;fill:#ffffff;fill-opacity:1;stroke:#69ffff;stroke-width:0;stroke-linecap:butt;stroke-linejoin:miter;stroke-miterlimit:4;stroke-dasharray:none;stroke-dashoffset:0;stroke-opacity:1"
       id="rect5932-3-4-80-4-6-9"
       width="1.0571681"
       height="3.1419194"
       x="1006.6461"
       y="19.491537"
       rx="0.05534168"
       transform="matrix(0,1,-1,0,0,0)" />
    <path
       style="opacity:1;fill:#ffffff;fill-opacity:1;stroke:#69ffff;stroke-width:0;stroke-linecap:butt;stroke-linejoin:miter;stroke-miterlimit:4;stroke-dasharray:none;stroke-dashoffset:0;stroke-opacity:1"
       d="m 30.443517,1015.0073 0.770865,1.8814 -11.205648,4.6415 c -0.05679,0.024 -0.08372,0.089 -0.06026,0.1455 l 0.726487,1.7538 c 0.02373,0.057 0.08793,0.082 0.144719,0.058 l 11.198429,-4.6385 0.699878,1.71 4.395227,-5.0677 -6.669673,-0.4845 z"
       id="rect5932-3-4-80-4-8"
       inkscape:connector-curvature="0" />
    <path
       style="opacity:1;fill:#ffffff;fill-opacity:1;stroke:#69ffff;stroke-width:0;stroke-linecap:butt;stroke-linejoin:miter;stroke-miterlimit:4;stroke-dasharray:none;stroke-dashoffset:0;stroke-opacity:1"
       d="m 32.811192,1030.829 -0.785267,1.8754 -11.205625,-4.6415 c -0.05713,-0.023 -0.122131,0 -0.145494,0.06 l -0.72642,1.7538 c -0.02352,0.057 0.0042,0.1202 0.06132,0.1433 l 11.198399,4.6386 -0.714265,1.704 6.6913,-0.4755 -4.373577,-5.0587 z"
       id="rect5932-3-4-80-4-8-4"
       inkscape:connector-curvature="0" />
    <path
       style="opacity:0.5;fill:#ffffff;fill-opacity:1;stroke:#0b6b0e;stroke-width:0;stroke-miterlimit:4;stroke-dasharray:none;stroke-opacity:1"
       d="m 9.7071112,1016.7729 a 8.9999944,8.9999944 0 0 0 -8.99999946,9 8.9999944,8.9999944 0 0 0 8.99999946,9 8.9999944,8.9999944 0 0 0 9.0000008,-9 8.9999944,8.9999944 0 0 0 -9.0000008,-9 z m 0,2 a 6.9999946,6.9999951 0 0 1 7.0000008,7 6.9999946,6.9999951 0 0 1 -7.0000008,7 6.9999946,6.9999951 0 0 1 -6.9999995,-7 6.9999946,6.9999951 0 0 1 6.9999995,-7 z"
       id="path4206-9"
       inkscape:connector-curvature="0" />
  </g>
</svg>
