<?xml version="1.0" encoding="UTF-8" standalone="no"?>
<!-- Created with Inkscape (http://www.inkscape.org/) -->

<svg
   xmlns:dc="http://purl.org/dc/elements/1.1/"
   xmlns:cc="http://creativecommons.org/ns#"
   xmlns:rdf="http://www.w3.org/1999/02/22-rdf-syntax-ns#"
   xmlns:svg="http://www.w3.org/2000/svg"
   xmlns="http://www.w3.org/2000/svg"
   xmlns:sodipodi="http://sodipodi.sourceforge.net/DTD/sodipodi-0.dtd"
   xmlns:inkscape="http://www.inkscape.org/namespaces/inkscape"
   width="52"
   height="52"
   viewBox="0 0 51.999997 51.999997"
   id="svg2"
   version="1.1"
   inkscape:version="0.91 r13725"
   sodipodi:docname="NewNodes_src.svg">
  <defs
     id="defs4">
    <inkscape:perspective
       sodipodi:type="inkscape:persp3d"
       inkscape:vp_x="0 : 526.18106 : 1"
       inkscape:vp_y="0 : 999.99993 : 0"
       inkscape:vp_z="744.09444 : 526.18106 : 1"
       inkscape:persp3d-origin="372.04722 : 350.78738 : 1"
       id="perspective4180" />
  </defs>
  <sodipodi:namedview
     id="base"
     pagecolor="#433b43"
     bordercolor="#666666"
     borderopacity="1.0"
     inkscape:pageopacity="0"
     inkscape:pageshadow="2"
     inkscape:zoom="11.313708"
     inkscape:cx="19.783262"
     inkscape:cy="29.579464"
     inkscape:document-units="px"
     inkscape:current-layer="layer1"
     showgrid="false"
     inkscape:window-width="1920"
     inkscape:window-height="1018"
     inkscape:window-x="-8"
     inkscape:window-y="-8"
     inkscape:window-maximized="1"
     units="px" />
  <metadata
     id="metadata7">
    <rdf:RDF>
      <cc:Work
         rdf:about="">
        <dc:format>image/svg+xml</dc:format>
        <dc:type
           rdf:resource="http://purl.org/dc/dcmitype/StillImage" />
        <dc:title></dc:title>
      </cc:Work>
    </rdf:RDF>
  </metadata>
  <g
     inkscape:label="Layer 1"
     inkscape:groupmode="layer"
     id="layer1"
     transform="translate(0,-1000.3622)">
    <path
       id="path4206-29"
       style="opacity:1;fill:#ffffff;fill-opacity:1;stroke:#0b6b0e;stroke-width:0;stroke-miterlimit:4;stroke-dasharray:none;stroke-opacity:1"
       d="m 32.57315,1036.5525 a 6.2673926,6.4300647 0 0 1 -6.267392,6.4301 6.2673926,6.4300647 0 0 1 -6.267393,-6.4301 6.2673926,6.4300647 0 0 1 6.267393,-6.4301 6.2673926,6.4300647 0 0 1 6.267392,6.4301 z m 19.388773,-20.0814 a 6.2673926,6.4300647 0 0 1 -6.267393,6.4301 6.2673926,6.4300647 0 0 1 -6.267392,-6.4301 6.2673926,6.4300647 0 0 1 6.267392,-6.43 6.2673926,6.4300647 0 0 1 6.267393,6.43 z m -39.256949,-0.096 a 6.2673931,6.4300652 0 0 1 -6.2673929,6.43 6.2673931,6.4300652 0 0 1 -6.26739315,-6.43 6.2673931,6.4300652 0 0 1 6.26739315,-6.4301 6.2673931,6.4300652 0 0 1 6.2673929,6.4301 z" />
  </g>
</svg>
