<?xml version="1.0" encoding="UTF-8" standalone="no"?>
<!-- Created with Inkscape (http://www.inkscape.org/) -->

<svg
   xmlns:dc="http://purl.org/dc/elements/1.1/"
   xmlns:cc="http://creativecommons.org/ns#"
   xmlns:rdf="http://www.w3.org/1999/02/22-rdf-syntax-ns#"
   xmlns:svg="http://www.w3.org/2000/svg"
   xmlns="http://www.w3.org/2000/svg"
   xmlns:sodipodi="http://sodipodi.sourceforge.net/DTD/sodipodi-0.dtd"
   xmlns:inkscape="http://www.inkscape.org/namespaces/inkscape"
   width="52"
   height="52"
   viewBox="0 0 51.999997 51.999997"
   id="svg2"
   version="1.1"
   inkscape:version="0.91 r13725"
   sodipodi:docname="NewNode2.svg">
  <defs
     id="defs4">
    <inkscape:perspective
       sodipodi:type="inkscape:persp3d"
       inkscape:vp_x="0 : 526.18106 : 1"
       inkscape:vp_y="0 : 999.99993 : 0"
       inkscape:vp_z="744.09444 : 526.18106 : 1"
       inkscape:persp3d-origin="372.04722 : 350.78738 : 1"
       id="perspective4180" />
  </defs>
  <sodipodi:namedview
     id="base"
     pagecolor="#433b43"
     bordercolor="#666666"
     borderopacity="1.0"
     inkscape:pageopacity="0"
     inkscape:pageshadow="2"
     inkscape:zoom="11.313708"
     inkscape:cx="19.724189"
     inkscape:cy="20.786584"
     inkscape:document-units="px"
     inkscape:current-layer="layer1"
     showgrid="false"
     inkscape:window-width="1920"
     inkscape:window-height="1058"
     inkscape:window-x="1912"
     inkscape:window-y="-8"
     inkscape:window-maximized="1"
     units="px" />
  <metadata
     id="metadata7">
    <rdf:RDF>
      <cc:Work
         rdf:about="">
        <dc:format>image/svg+xml</dc:format>
        <dc:type
           rdf:resource="http://purl.org/dc/dcmitype/StillImage" />
        <dc:title></dc:title>
      </cc:Work>
    </rdf:RDF>
  </metadata>
  <g
     inkscape:label="Layer 1"
     inkscape:groupmode="layer"
     id="layer1"
     transform="translate(0,-1000.3622)">
    <path
       id="path4206"
       style="opacity:1;fill:#ffffff;fill-opacity:1;stroke:#0b6b0e;stroke-width:0;stroke-miterlimit:4;stroke-dasharray:none;stroke-opacity:1"
       d="m 40.204506,1026.6277 a 14.399994,14.399994 0 0 1 -14.399994,14.4 14.399994,14.399994 0 0 1 -14.399994,-14.4 14.399994,14.399994 0 0 1 14.399994,-14.4 14.399994,14.399994 0 0 1 14.399994,14.4 z m 5.463356,16.9929 -2.069331,2.0406 c -0.067,0.066 -0.174969,0.066 -0.241992,0 l -4.380663,-4.3198 c -0.067,-0.066 -0.06702,-0.1726 0,-0.2387 l 2.069332,-2.0405 c 0.067,-0.066 0.174968,-0.066 0.241992,0 l 4.380662,4.3198 c 0.067,0.066 0.06702,0.1725 0,0.2386 z m -32.39543,-31.7987 -2.069332,2.0406 c -0.06707,0.066 -0.174968,0.066 -0.241992,0 l -4.3806694,-4.3198 c -0.067003,-0.066 -0.067024,-0.1725 0,-0.2386 l 2.0693315,-2.0406 c 0.067003,-0.066 0.1749684,-0.066 0.2419923,0 l 4.3806696,4.3198 c 0.067,0.066 0.06702,0.1725 0,0.2386 z m -4.6357919,33.9309 -2.0693314,-2.0406 c -0.067074,-0.066 -0.067024,-0.1725 0,-0.2386 l 4.3806623,-4.3198 c 0.067,-0.066 0.174968,-0.066 0.241992,0 l 2.069332,2.0406 c 0.067,0.066 0.06702,0.1725 0,0.2386 l -4.3806625,4.3198 c -0.067074,0.066 -0.1749685,0.066 -0.2419924,0 z m 32.4457149,-31.8668 -2.069339,-2.0406 c -0.067,-0.066 -0.06702,-0.1726 0,-0.2387 l 4.380669,-4.3198 c 0.067,-0.066 0.174969,-0.066 0.241993,0 l 2.069338,2.0406 c 0.067,0.066 0.06702,0.1726 0,0.2387 l -4.380669,4.3198 c -0.067,0.066 -0.174969,0.066 -0.241992,0 z m -16.424339,31.9811 2.926484,0 c 0.0948,0 0.171114,0.076 0.171114,0.1711 l 0,6.1044 c 0,0.095 -0.07632,0.1711 -0.171114,0.1711 l -2.926484,0 c -0.0948,0 -0.171114,-0.076 -0.171114,-0.1711 l 0,-6.1044 c 0,-0.095 0.07632,-0.1711 0.171114,-0.1711 z m -0.0024,-45.1728 2.926484,0 c 0.0948,0 0.171114,0.076 0.171114,0.1711 l 0,6.1044 c 0,0.095 -0.07632,0.1711 -0.171114,0.1711 l -2.926484,0 c -0.0948,0 -0.171114,-0.076 -0.171114,-0.1711 l 0,-6.1044 c 0,-0.095 0.07632,-0.1711 0.171114,-0.1711 z" />
  </g>
</svg>
