<?xml version="1.0" encoding="UTF-8" standalone="no"?>
<!-- Created with Inkscape (http://www.inkscape.org/) -->

<svg
   xmlns:dc="http://purl.org/dc/elements/1.1/"
   xmlns:cc="http://creativecommons.org/ns#"
   xmlns:rdf="http://www.w3.org/1999/02/22-rdf-syntax-ns#"
   xmlns:svg="http://www.w3.org/2000/svg"
   xmlns="http://www.w3.org/2000/svg"
   xmlns:sodipodi="http://sodipodi.sourceforge.net/DTD/sodipodi-0.dtd"
   xmlns:inkscape="http://www.inkscape.org/namespaces/inkscape"
   width="52"
   height="52"
   viewBox="0 0 51.999997 51.999997"
   id="svg2"
   version="1.1"
   inkscape:version="0.91 r13725"
   sodipodi:docname="NewChildNodes.svg">
  <defs
     id="defs4">
    <inkscape:perspective
       sodipodi:type="inkscape:persp3d"
       inkscape:vp_x="0 : 526.18106 : 1"
       inkscape:vp_y="0 : 999.99993 : 0"
       inkscape:vp_z="744.09444 : 526.18106 : 1"
       inkscape:persp3d-origin="372.04722 : 350.78738 : 1"
       id="perspective4180" />
  </defs>
  <sodipodi:namedview
     id="base"
     pagecolor="#433b43"
     bordercolor="#666666"
     borderopacity="1.0"
     inkscape:pageopacity="0"
     inkscape:pageshadow="2"
     inkscape:zoom="11.313708"
     inkscape:cx="19.783262"
     inkscape:cy="29.579464"
     inkscape:document-units="px"
     inkscape:current-layer="layer1"
     showgrid="false"
     inkscape:window-width="1920"
     inkscape:window-height="1018"
     inkscape:window-x="-8"
     inkscape:window-y="-8"
     inkscape:window-maximized="1"
     units="px" />
  <metadata
     id="metadata7">
    <rdf:RDF>
      <cc:Work
         rdf:about="">
        <dc:format>image/svg+xml</dc:format>
        <dc:type
           rdf:resource="http://purl.org/dc/dcmitype/StillImage" />
        <dc:title></dc:title>
      </cc:Work>
    </rdf:RDF>
  </metadata>
  <g
     inkscape:label="Layer 1"
     inkscape:groupmode="layer"
     id="layer1"
     transform="translate(0,-1000.3622)">
    <path
       id="path4206-9"
       style="opacity:1;fill:#ffffff;fill-opacity:1;stroke:#0b6b0e;stroke-width:0;stroke-miterlimit:4;stroke-dasharray:none;stroke-opacity:1"
       d="m 9.7071112,1016.7729 a 8.9999944,8.9999944 0 0 0 -8.99999946,9 8.9999944,8.9999944 0 0 0 8.99999946,9 8.9999944,8.9999944 0 0 0 9.0000008,-9 8.9999944,8.9999944 0 0 0 -9.0000008,-9 z m 0,2 a 6.9999946,6.9999951 0 0 1 7.0000008,7 6.9999946,6.9999951 0 0 1 -7.0000008,7 6.9999946,6.9999951 0 0 1 -6.9999995,-7 6.9999946,6.9999951 0 0 1 6.9999995,-7 z m 23.1040808,12.0561 -0.785267,1.8754 -11.205625,-4.6415 c -0.05713,-0.023 -0.122131,0 -0.145494,0.06 l -0.72642,1.7538 c -0.02352,0.057 0.0042,0.1202 0.06132,0.1433 l 11.198399,4.6386 -0.714265,1.704 6.6913,-0.4755 -4.373577,-5.0587 z m -2.367675,-15.8217 0.770865,1.8814 -11.205648,4.6415 c -0.05679,0.024 -0.08372,0.089 -0.06026,0.1455 l 0.726487,1.7538 c 0.02373,0.057 0.08793,0.082 0.144719,0.058 l 11.198429,-4.6385 0.699878,1.71 4.395227,-5.0677 -6.669673,-0.4845 z m 20.742924,23.6665 a 6.2673926,6.4300647 0 0 1 -6.267393,6.4301 6.2673926,6.4300647 0 0 1 -6.267392,-6.4301 6.2673926,6.4300647 0 0 1 6.267392,-6.43 6.2673926,6.4300647 0 0 1 6.267393,6.43 z m 0,-25.592 a 6.2673926,6.4300647 0 0 1 -6.267393,6.4301 6.2673926,6.4300647 0 0 1 -6.267392,-6.4301 6.2673926,6.4300647 0 0 1 6.267392,-6.4301 6.2673926,6.4300647 0 0 1 6.267393,6.4301 z m -36.479339,12.6911 a 4.9999952,4.9999952 0 0 1 -4.9999954,5 4.9999952,4.9999952 0 0 1 -4.9999952,-5 4.9999952,4.9999952 0 0 1 4.9999952,-4.9999 4.9999952,4.9999952 0 0 1 4.9999954,4.9999 z" />
  </g>
</svg>
