<?xml version="1.0" encoding="UTF-8" standalone="no"?>
<!-- Created with Inkscape (http://www.inkscape.org/) -->

<svg
   xmlns:dc="http://purl.org/dc/elements/1.1/"
   xmlns:cc="http://creativecommons.org/ns#"
   xmlns:rdf="http://www.w3.org/1999/02/22-rdf-syntax-ns#"
   xmlns:svg="http://www.w3.org/2000/svg"
   xmlns="http://www.w3.org/2000/svg"
   xmlns:sodipodi="http://sodipodi.sourceforge.net/DTD/sodipodi-0.dtd"
   xmlns:inkscape="http://www.inkscape.org/namespaces/inkscape"
   width="52"
   height="52"
   viewBox="0 0 51.999997 51.999997"
   id="svg2"
   version="1.1"
   inkscape:version="0.91 r13725"
   sodipodi:docname="NewEdge.svg">
  <defs
     id="defs4">
    <inkscape:perspective
       sodipodi:type="inkscape:persp3d"
       inkscape:vp_x="0 : 526.18106 : 1"
       inkscape:vp_y="0 : 999.99993 : 0"
       inkscape:vp_z="744.09444 : 526.18106 : 1"
       inkscape:persp3d-origin="372.04722 : 350.78738 : 1"
       id="perspective4180" />
  </defs>
  <sodipodi:namedview
     id="base"
     pagecolor="#433b43"
     bordercolor="#666666"
     borderopacity="1.0"
     inkscape:pageopacity="0"
     inkscape:pageshadow="2"
     inkscape:zoom="11.313708"
     inkscape:cx="19.783262"
     inkscape:cy="26.655016"
     inkscape:document-units="px"
     inkscape:current-layer="layer1"
     showgrid="false"
     inkscape:window-width="1920"
     inkscape:window-height="1018"
     inkscape:window-x="-8"
     inkscape:window-y="-8"
     inkscape:window-maximized="1"
     units="px" />
  <metadata
     id="metadata7">
    <rdf:RDF>
      <cc:Work
         rdf:about="">
        <dc:format>image/svg+xml</dc:format>
        <dc:type
           rdf:resource="http://purl.org/dc/dcmitype/StillImage" />
        <dc:title></dc:title>
      </cc:Work>
    </rdf:RDF>
  </metadata>
  <g
     inkscape:label="Layer 1"
     inkscape:groupmode="layer"
     id="layer1"
     transform="translate(0,-1000.3622)">
    <path
       id="rect5932-3-7-0-7-8-3"
       transform="matrix(0.92653363,0.37621195,-0.38913619,0.92118023,0,0)"
       style="opacity:1;fill:#ffffff;fill-opacity:1;stroke:#69ffff;stroke-width:0;stroke-linecap:butt;stroke-linejoin:miter;stroke-miterlimit:4;stroke-dasharray:none;stroke-dashoffset:0;stroke-opacity:1"
       d="m 418.602,946.7475 2.90622,0 c 0.0942,0 0.16993,0.0758 0.16993,0.16993 l 0,6.15231 c 0,0.0941 -0.0758,0.16993 -0.16993,0.16993 l -2.90622,0 c -0.0941,0 -0.16993,-0.0758 -0.16993,-0.16993 l 0,-6.15231 c 0,-0.0941 0.0758,-0.16993 0.16993,-0.16993 z m 10.14628,-2.91475 2.02626,-2.05521 c 0.0657,-0.0666 0.17208,-0.0658 0.23865,0.002 l 4.35077,4.41121 c 0.0666,0.0675 0.0673,0.17545 0.002,0.24201 l -2.02625,2.05521 c -0.0656,0.0665 -0.17209,0.0658 -0.23865,-0.002 l -4.35078,-4.41121 c -0.0665,-0.0675 -0.0673,-0.17544 -0.002,-0.24201 z m -1.59097,-10.62956 -2.90623,0 c -0.0941,0 -0.16993,-0.0758 -0.16993,-0.16993 l 0,-6.15232 c 0,-0.0941 0.0758,-0.16993 0.16993,-0.16993 l 2.90623,0 c 0.0941,0 0.16993,0.0758 0.16993,0.16993 l 0,6.15232 c 0,0.0941 -0.0758,0.16993 -0.16993,0.16993 z m -10.14591,2.91471 -2.02626,2.05521 c -0.0656,0.0666 -0.17208,0.0658 -0.23865,-0.002 l -4.35077,-4.41121 c -0.0666,-0.0675 -0.0673,-0.17544 -0.002,-0.24201 l 2.02626,-2.05521 c 0.0656,-0.0666 0.17208,-0.0658 0.23865,0.002 l 4.35077,4.41121 c 0.0666,0.0675 0.0673,0.17544 0.002,0.24201 z m 15.12245,-0.912 0.73853,1.75845 c 0.0241,0.0575 -0.002,0.12148 -0.059,0.14461 l -19.00763,7.76275 c -0.0566,0.0231 -0.12168,-0.005 -0.14542,-0.0611 l -0.73854,-1.75846 c -0.0241,-0.0575 0.002,-0.12147 0.059,-0.1446 l 19.00763,-7.76276 c 0.0566,-0.0231 0.1213,0.004 0.14543,0.0611 z m 13.527,-4.48992 a 6.4666339,6.23256 59.716064 0 1 -3.27153,8.31639 6.4666339,6.23256 59.716064 0 1 -8.27639,-3.60019 6.4666339,6.23256 59.716064 0 1 3.27157,-8.31629 6.4666339,6.23256 59.716064 0 1 8.27635,3.60009 z m -33.87076,13.84386 a 6.4666339,6.23256 59.716064 0 1 -3.27157,8.31629 6.4666339,6.23256 59.716064 0 1 -8.27636,-3.6001 6.4666339,6.23256 59.716064 0 1 3.27154,-8.31638 6.4666339,6.23256 59.716064 0 1 8.27639,3.60019 z" />
  </g>
</svg>
