<?xml version="1.0" encoding="UTF-8" standalone="no"?>
<!-- Created with Inkscape (http://www.inkscape.org/) -->

<svg
   xmlns:dc="http://purl.org/dc/elements/1.1/"
   xmlns:cc="http://creativecommons.org/ns#"
   xmlns:rdf="http://www.w3.org/1999/02/22-rdf-syntax-ns#"
   xmlns:svg="http://www.w3.org/2000/svg"
   xmlns="http://www.w3.org/2000/svg"
   xmlns:sodipodi="http://sodipodi.sourceforge.net/DTD/sodipodi-0.dtd"
   xmlns:inkscape="http://www.inkscape.org/namespaces/inkscape"
   width="52"
   height="52"
   viewBox="0 0 51.999997 51.999997"
   id="svg2"
   version="1.1"
   inkscape:version="0.91 r13725"
   sodipodi:docname="NewParentAndChildren.svg">
  <defs
     id="defs4">
    <inkscape:perspective
       sodipodi:type="inkscape:persp3d"
       inkscape:vp_x="0 : 526.18106 : 1"
       inkscape:vp_y="0 : 999.99993 : 0"
       inkscape:vp_z="744.09444 : 526.18106 : 1"
       inkscape:persp3d-origin="372.04722 : 350.78738 : 1"
       id="perspective4180" />
  </defs>
  <sodipodi:namedview
     id="base"
     pagecolor="#433b43"
     bordercolor="#666666"
     borderopacity="1.0"
     inkscape:pageopacity="0"
     inkscape:pageshadow="2"
     inkscape:zoom="11.313708"
     inkscape:cx="19.783262"
     inkscape:cy="29.579464"
     inkscape:document-units="px"
     inkscape:current-layer="layer1"
     showgrid="false"
     inkscape:window-width="1920"
     inkscape:window-height="1018"
     inkscape:window-x="-8"
     inkscape:window-y="-8"
     inkscape:window-maximized="1"
     units="px" />
  <metadata
     id="metadata7">
    <rdf:RDF>
      <cc:Work
         rdf:about="">
        <dc:format>image/svg+xml</dc:format>
        <dc:type
           rdf:resource="http://purl.org/dc/dcmitype/StillImage" />
        <dc:title></dc:title>
      </cc:Work>
    </rdf:RDF>
  </metadata>
  <g
     inkscape:label="Layer 1"
     inkscape:groupmode="layer"
     id="layer1"
     transform="translate(0,-1000.3622)">
    <path
       id="rect5932-3-4-80-4-3-4"
       style="opacity:1;fill:#ffffff;fill-opacity:1;stroke:#69ffff;stroke-width:0;stroke-linecap:butt;stroke-linejoin:miter;stroke-miterlimit:4;stroke-dasharray:none;stroke-dashoffset:0;stroke-opacity:1"
       d="m 27.846121,1031.1976 -0.386262,0.8893 -7.21714,-2.8818 c -0.05979,-0.024 -0.130568,0.01 -0.155903,0.065 l -0.792553,1.8461 c -0.02594,0.06 0.0031,0.1275 0.06288,0.152 l 7.209511,2.8786 -0.405762,0.9348 4.765829,-0.3752 -3.080664,-3.5083 z m -1.55513,-13.2952 0.355644,0.9019 -7.140979,3.0656 c -0.05956,0.025 -0.08865,0.096 -0.06458,0.1559 l 0.744961,1.8658 c 0.02432,0.061 0.09237,0.088 0.151921,0.063 l 7.13339,-3.0624 0.374065,0.9479 3.104701,-3.6352 -4.659117,-0.3024 z m 18.243797,17.9431 a 6.2673926,6.4300647 0 0 1 -6.267393,6.43 6.2673926,6.4300647 0 0 1 -6.267393,-6.43 6.2673926,6.4300647 0 0 1 6.267393,-6.4301 6.2673926,6.4300647 0 0 1 6.267393,6.4301 z m 0,-19.5514 a 6.2673926,6.4300647 0 0 1 -6.267393,6.4301 6.2673926,6.4300647 0 0 1 -6.267393,-6.4301 6.2673926,6.4300647 0 0 1 6.267393,-6.43 6.2673926,6.4300647 0 0 1 6.267393,6.43 z m -25.907795,9.9803 a 6.2673931,6.4300652 0 0 1 -6.267393,6.4301 6.2673931,6.4300652 0 0 1 -6.267393,-6.4301 6.2673931,6.4300652 0 0 1 6.267393,-6.4301 6.2673931,6.4300652 0 0 1 6.267393,6.4301 z" />
  </g>
</svg>
